%TF.GenerationSoftware,KiCad,Pcbnew,(6.0.4)*%
%TF.CreationDate,2023-01-14T20:05:49-08:00*%
%TF.ProjectId,fcp-control-pcb,6663702d-636f-46e7-9472-6f6c2d706362,rev?*%
%TF.SameCoordinates,Original*%
%TF.FileFunction,Soldermask,Bot*%
%TF.FilePolarity,Negative*%
%FSLAX46Y46*%
G04 Gerber Fmt 4.6, Leading zero omitted, Abs format (unit mm)*
G04 Created by KiCad (PCBNEW (6.0.4)) date 2023-01-14 20:05:49*
%MOMM*%
%LPD*%
G01*
G04 APERTURE LIST*
G04 Aperture macros list*
%AMRoundRect*
0 Rectangle with rounded corners*
0 $1 Rounding radius*
0 $2 $3 $4 $5 $6 $7 $8 $9 X,Y pos of 4 corners*
0 Add a 4 corners polygon primitive as box body*
4,1,4,$2,$3,$4,$5,$6,$7,$8,$9,$2,$3,0*
0 Add four circle primitives for the rounded corners*
1,1,$1+$1,$2,$3*
1,1,$1+$1,$4,$5*
1,1,$1+$1,$6,$7*
1,1,$1+$1,$8,$9*
0 Add four rect primitives between the rounded corners*
20,1,$1+$1,$2,$3,$4,$5,0*
20,1,$1+$1,$4,$5,$6,$7,0*
20,1,$1+$1,$6,$7,$8,$9,0*
20,1,$1+$1,$8,$9,$2,$3,0*%
G04 Aperture macros list end*
%ADD10RoundRect,0.250000X-1.550000X0.650000X-1.550000X-0.650000X1.550000X-0.650000X1.550000X0.650000X0*%
%ADD11O,3.600000X1.800000*%
%ADD12C,1.650000*%
%ADD13C,1.450000*%
%ADD14R,1.700000X1.700000*%
%ADD15C,3.000000*%
%ADD16RoundRect,0.250001X-1.599999X1.099999X-1.599999X-1.099999X1.599999X-1.099999X1.599999X1.099999X0*%
%ADD17O,3.700000X2.700000*%
%ADD18O,1.700000X1.700000*%
%ADD19C,3.200000*%
%ADD20C,2.500000*%
%ADD21RoundRect,0.250001X-1.099999X-1.599999X1.099999X-1.599999X1.099999X1.599999X-1.099999X1.599999X0*%
%ADD22O,2.700000X3.700000*%
%ADD23C,1.680000*%
%ADD24C,1.800000*%
%ADD25R,1.600000X1.600000*%
%ADD26O,1.600000X1.600000*%
%ADD27RoundRect,0.150000X0.825000X0.150000X-0.825000X0.150000X-0.825000X-0.150000X0.825000X-0.150000X0*%
%ADD28RoundRect,0.160000X0.197500X0.160000X-0.197500X0.160000X-0.197500X-0.160000X0.197500X-0.160000X0*%
%ADD29RoundRect,0.250000X-0.475000X0.337500X-0.475000X-0.337500X0.475000X-0.337500X0.475000X0.337500X0*%
%ADD30RoundRect,0.250000X0.475000X-0.337500X0.475000X0.337500X-0.475000X0.337500X-0.475000X-0.337500X0*%
%ADD31RoundRect,0.160000X-0.160000X0.197500X-0.160000X-0.197500X0.160000X-0.197500X0.160000X0.197500X0*%
%ADD32RoundRect,0.160000X-0.197500X-0.160000X0.197500X-0.160000X0.197500X0.160000X-0.197500X0.160000X0*%
%ADD33RoundRect,0.160000X0.160000X-0.197500X0.160000X0.197500X-0.160000X0.197500X-0.160000X-0.197500X0*%
%ADD34RoundRect,0.250000X-0.337500X-0.475000X0.337500X-0.475000X0.337500X0.475000X-0.337500X0.475000X0*%
%ADD35RoundRect,0.250000X0.337500X0.475000X-0.337500X0.475000X-0.337500X-0.475000X0.337500X-0.475000X0*%
%ADD36RoundRect,0.250000X0.450000X-0.350000X0.450000X0.350000X-0.450000X0.350000X-0.450000X-0.350000X0*%
%ADD37RoundRect,0.150000X-0.825000X-0.150000X0.825000X-0.150000X0.825000X0.150000X-0.825000X0.150000X0*%
%ADD38RoundRect,0.250000X-0.450000X0.350000X-0.450000X-0.350000X0.450000X-0.350000X0.450000X0.350000X0*%
%ADD39R,1.220000X0.650000*%
G04 APERTURE END LIST*
D10*
%TO.C,J15*%
X57777500Y-37607500D03*
D11*
X57777500Y-41107500D03*
X57777500Y-44607500D03*
X57777500Y-48107500D03*
X57777500Y-51607500D03*
X57777500Y-55107500D03*
X57777500Y-58607500D03*
X57777500Y-62107500D03*
X57777500Y-65607500D03*
X57777500Y-69107500D03*
%TD*%
D12*
%TO.C,D5*%
X127000000Y-39272500D03*
X121920000Y-39272500D03*
D13*
X123190000Y-41812500D03*
X125730000Y-41812500D03*
%TD*%
D14*
%TO.C,TP14*%
X175260000Y-133985000D03*
%TD*%
D15*
%TO.C,J10*%
X188810000Y-126365000D03*
D16*
X181510000Y-126365000D03*
D17*
X176010000Y-126365000D03*
%TD*%
D14*
%TO.C,J1*%
X116215000Y-62260000D03*
D18*
X116215000Y-64800000D03*
X116215000Y-67340000D03*
X116215000Y-69880000D03*
X116215000Y-72420000D03*
X116215000Y-74960000D03*
X116215000Y-77500000D03*
X116215000Y-80040000D03*
X116215000Y-82580000D03*
X116215000Y-85120000D03*
X116215000Y-87660000D03*
X116215000Y-90200000D03*
X116215000Y-92740000D03*
X116215000Y-95280000D03*
X116215000Y-97820000D03*
%TD*%
D14*
%TO.C,J9*%
X152400000Y-73660000D03*
D18*
X149860000Y-73660000D03*
%TD*%
D19*
%TO.C,H2*%
X190500000Y-83820000D03*
%TD*%
D14*
%TO.C,J2*%
X140980000Y-97790000D03*
D18*
X140980000Y-95250000D03*
X140980000Y-92710000D03*
X140980000Y-90170000D03*
X140980000Y-87630000D03*
X140980000Y-85090000D03*
X140980000Y-82550000D03*
X140980000Y-80010000D03*
X140980000Y-77470000D03*
X140980000Y-74930000D03*
X140980000Y-72390000D03*
X140980000Y-69850000D03*
X140980000Y-67310000D03*
X140980000Y-64770000D03*
X140980000Y-62230000D03*
%TD*%
D19*
%TO.C,H1*%
X191770000Y-147320000D03*
%TD*%
D14*
%TO.C,TP16*%
X165100000Y-133985000D03*
%TD*%
D20*
%TO.C,J4*%
X136860000Y-32950000D03*
X136860000Y-43110000D03*
X147620000Y-32950000D03*
X147620000Y-43110000D03*
%TD*%
D15*
%TO.C,J7*%
X184150000Y-33440000D03*
D21*
X184150000Y-40740000D03*
D22*
X184150000Y-46240000D03*
%TD*%
D10*
%TO.C,J13*%
X57777500Y-116347500D03*
D11*
X57777500Y-119847500D03*
X57777500Y-123347500D03*
X57777500Y-126847500D03*
X57777500Y-130347500D03*
X57777500Y-133847500D03*
X57777500Y-137347500D03*
X57777500Y-140847500D03*
X57777500Y-144347500D03*
X57777500Y-147847500D03*
%TD*%
D23*
%TO.C,IC1*%
X111215000Y-151285000D03*
X113715000Y-151285000D03*
X116215000Y-151285000D03*
D24*
X114515000Y-134085000D03*
X143515000Y-146085000D03*
%TD*%
D12*
%TO.C,D6*%
X110490000Y-39272500D03*
X115570000Y-39272500D03*
D13*
X111760000Y-41812500D03*
X114300000Y-41812500D03*
%TD*%
D19*
%TO.C,H4*%
X88900000Y-147320000D03*
%TD*%
D14*
%TO.C,TP15*%
X170180000Y-133985000D03*
%TD*%
D15*
%TO.C,J12*%
X188810000Y-108585000D03*
D16*
X181510000Y-108585000D03*
D17*
X176010000Y-108585000D03*
%TD*%
D10*
%TO.C,J14*%
X57777500Y-76977500D03*
D11*
X57777500Y-80477500D03*
X57777500Y-83977500D03*
X57777500Y-87477500D03*
X57777500Y-90977500D03*
X57777500Y-94477500D03*
X57777500Y-97977500D03*
X57777500Y-101477500D03*
X57777500Y-104977500D03*
X57777500Y-108477500D03*
%TD*%
D15*
%TO.C,J6*%
X193040000Y-33440000D03*
D21*
X193040000Y-40740000D03*
D22*
X193040000Y-46240000D03*
%TD*%
D20*
%TO.C,J3*%
X160990000Y-32950000D03*
X160990000Y-43110000D03*
X171750000Y-43110000D03*
X171750000Y-32950000D03*
%TD*%
D14*
%TO.C,J8*%
X176530000Y-76200000D03*
D18*
X173990000Y-76200000D03*
%TD*%
D25*
%TO.C,A1*%
X120660000Y-62230000D03*
D26*
X120660000Y-64770000D03*
X120660000Y-67310000D03*
X120660000Y-69850000D03*
X120660000Y-72390000D03*
X120660000Y-74930000D03*
X120660000Y-77470000D03*
X120660000Y-80010000D03*
X120660000Y-82550000D03*
X120660000Y-85090000D03*
X120660000Y-87630000D03*
X120660000Y-90170000D03*
X120660000Y-92710000D03*
X120660000Y-95250000D03*
X120660000Y-97790000D03*
X135900000Y-97790000D03*
X135900000Y-95250000D03*
X135900000Y-92710000D03*
X135900000Y-90170000D03*
X135900000Y-87630000D03*
X135900000Y-85090000D03*
X135900000Y-82550000D03*
X135900000Y-80010000D03*
X135900000Y-77470000D03*
X135900000Y-74930000D03*
X135900000Y-72390000D03*
X135900000Y-69850000D03*
X135900000Y-67310000D03*
X135900000Y-64770000D03*
X135900000Y-62230000D03*
%TD*%
D15*
%TO.C,J11*%
X188810000Y-117475000D03*
D16*
X181510000Y-117475000D03*
D17*
X176010000Y-117475000D03*
%TD*%
D19*
%TO.C,H3*%
X58420000Y-29210000D03*
%TD*%
D27*
%TO.C,U9*%
X85025000Y-59690000D03*
X85025000Y-60960000D03*
X85025000Y-62230000D03*
X85025000Y-63500000D03*
X85025000Y-64770000D03*
X85025000Y-66040000D03*
X85025000Y-67310000D03*
X80075000Y-67310000D03*
X80075000Y-66040000D03*
X80075000Y-64770000D03*
X80075000Y-63500000D03*
X80075000Y-62230000D03*
X80075000Y-60960000D03*
X80075000Y-59690000D03*
%TD*%
D28*
%TO.C,R75*%
X65367500Y-57150000D03*
X64172500Y-57150000D03*
%TD*%
D29*
%TO.C,C7*%
X121920000Y-53572500D03*
X121920000Y-55647500D03*
%TD*%
D28*
%TO.C,R81*%
X65367500Y-72390000D03*
X64172500Y-72390000D03*
%TD*%
%TO.C,R12*%
X65367500Y-128270000D03*
X64172500Y-128270000D03*
%TD*%
D30*
%TO.C,C8*%
X125730000Y-49297500D03*
X125730000Y-47222500D03*
%TD*%
D28*
%TO.C,R77*%
X65367500Y-62230000D03*
X64172500Y-62230000D03*
%TD*%
D31*
%TO.C,R67*%
X76200000Y-87630000D03*
X76200000Y-88825000D03*
%TD*%
D32*
%TO.C,R58*%
X74332500Y-82550000D03*
X75527500Y-82550000D03*
%TD*%
D31*
%TO.C,R68*%
X88900000Y-87679601D03*
X88900000Y-88874601D03*
%TD*%
D33*
%TO.C,R37*%
X87630000Y-128254322D03*
X87630000Y-127059322D03*
%TD*%
D29*
%TO.C,C10*%
X109220000Y-53340000D03*
X109220000Y-55415000D03*
%TD*%
D34*
%TO.C,C21*%
X82782500Y-85090000D03*
X84857500Y-85090000D03*
%TD*%
D28*
%TO.C,R80*%
X65367500Y-69850000D03*
X64172500Y-69850000D03*
%TD*%
%TO.C,R13*%
X65367500Y-130810000D03*
X64172500Y-130810000D03*
%TD*%
%TO.C,R42*%
X65367500Y-82550000D03*
X64172500Y-82550000D03*
%TD*%
%TO.C,R44*%
X65367500Y-87630000D03*
X64172500Y-87630000D03*
%TD*%
D35*
%TO.C,C4*%
X130577500Y-69850000D03*
X128502500Y-69850000D03*
%TD*%
D34*
%TO.C,C15*%
X87630000Y-63500000D03*
X89705000Y-63500000D03*
%TD*%
D28*
%TO.C,R45*%
X65367500Y-90170000D03*
X64172500Y-90170000D03*
%TD*%
%TO.C,R16*%
X65367500Y-138430000D03*
X64172500Y-138430000D03*
%TD*%
%TO.C,R10*%
X65367500Y-123190000D03*
X64172500Y-123190000D03*
%TD*%
D31*
%TO.C,R98*%
X88900000Y-59741582D03*
X88900000Y-60936582D03*
%TD*%
D36*
%TO.C,R5*%
X116840000Y-55610000D03*
X116840000Y-53610000D03*
%TD*%
D33*
%TO.C,R125*%
X88900000Y-41857787D03*
X88900000Y-40662787D03*
%TD*%
D32*
%TO.C,R118*%
X72465000Y-33020000D03*
X73660000Y-33020000D03*
%TD*%
D31*
%TO.C,R63*%
X74930000Y-108622500D03*
X74930000Y-109817500D03*
%TD*%
D37*
%TO.C,U11*%
X80075000Y-41910000D03*
X80075000Y-40640000D03*
X80075000Y-39370000D03*
X80075000Y-38100000D03*
X80075000Y-36830000D03*
X80075000Y-35560000D03*
X80075000Y-34290000D03*
X85025000Y-34290000D03*
X85025000Y-35560000D03*
X85025000Y-36830000D03*
X85025000Y-38100000D03*
X85025000Y-39370000D03*
X85025000Y-40640000D03*
X85025000Y-41910000D03*
%TD*%
D29*
%TO.C,C12*%
X113030000Y-53340000D03*
X113030000Y-55415000D03*
%TD*%
D28*
%TO.C,R17*%
X65367500Y-140970000D03*
X64172500Y-140970000D03*
%TD*%
D37*
%TO.C,U7*%
X80075000Y-95250000D03*
X80075000Y-93980000D03*
X80075000Y-92710000D03*
X80075000Y-91440000D03*
X80075000Y-90170000D03*
X80075000Y-88900000D03*
X80075000Y-87630000D03*
X85025000Y-87630000D03*
X85025000Y-88900000D03*
X85025000Y-90170000D03*
X85025000Y-91440000D03*
X85025000Y-92710000D03*
X85025000Y-93980000D03*
X85025000Y-95250000D03*
%TD*%
D31*
%TO.C,R119*%
X92766330Y-39364622D03*
X92766330Y-40559622D03*
%TD*%
D28*
%TO.C,R106*%
X65367500Y-34290000D03*
X64172500Y-34290000D03*
%TD*%
D33*
%TO.C,R66*%
X76200000Y-95230339D03*
X76200000Y-94035339D03*
%TD*%
D28*
%TO.C,R79*%
X65367500Y-67310000D03*
X64172500Y-67310000D03*
%TD*%
D32*
%TO.C,R91*%
X92112500Y-64770000D03*
X93307500Y-64770000D03*
%TD*%
D33*
%TO.C,R100*%
X76200000Y-67310000D03*
X76200000Y-66115000D03*
%TD*%
D31*
%TO.C,R36*%
X87642654Y-120671789D03*
X87642654Y-121866789D03*
%TD*%
D28*
%TO.C,R48*%
X65367500Y-97790000D03*
X64172500Y-97790000D03*
%TD*%
D31*
%TO.C,R64*%
X74930000Y-112432500D03*
X74930000Y-113627500D03*
%TD*%
D36*
%TO.C,R4*%
X121920000Y-49260000D03*
X121920000Y-47260000D03*
%TD*%
D31*
%TO.C,R60*%
X88900000Y-90207815D03*
X88900000Y-91402815D03*
%TD*%
D28*
%TO.C,R109*%
X65367500Y-41910000D03*
X64172500Y-41910000D03*
%TD*%
D38*
%TO.C,R2*%
X160020000Y-62500000D03*
X160020000Y-64500000D03*
%TD*%
D33*
%TO.C,R61*%
X91440000Y-93307500D03*
X91440000Y-92112500D03*
%TD*%
D28*
%TO.C,R43*%
X65367500Y-85090000D03*
X64172500Y-85090000D03*
%TD*%
D37*
%TO.C,U5*%
X80075000Y-128270000D03*
X80075000Y-127000000D03*
X80075000Y-125730000D03*
X80075000Y-124460000D03*
X80075000Y-123190000D03*
X80075000Y-121920000D03*
X80075000Y-120650000D03*
X85025000Y-120650000D03*
X85025000Y-121920000D03*
X85025000Y-123190000D03*
X85025000Y-124460000D03*
X85025000Y-125730000D03*
X85025000Y-127000000D03*
X85025000Y-128270000D03*
%TD*%
D39*
%TO.C,D2*%
X97830000Y-37780000D03*
X95210000Y-36830000D03*
X97830000Y-35880000D03*
%TD*%
D32*
%TO.C,R96*%
X79412500Y-77470000D03*
X80607500Y-77470000D03*
%TD*%
D28*
%TO.C,R15*%
X65367500Y-135890000D03*
X64172500Y-135890000D03*
%TD*%
D33*
%TO.C,R99*%
X88900000Y-67283035D03*
X88900000Y-66088035D03*
%TD*%
D28*
%TO.C,R49*%
X65367500Y-100330000D03*
X64172500Y-100330000D03*
%TD*%
D30*
%TO.C,C11*%
X113030000Y-49297500D03*
X113030000Y-47222500D03*
%TD*%
D32*
%TO.C,R26*%
X66712500Y-121920000D03*
X67907500Y-121920000D03*
%TD*%
D31*
%TO.C,R124*%
X88900000Y-34319940D03*
X88900000Y-35514940D03*
%TD*%
D32*
%TO.C,R90*%
X92112500Y-60960000D03*
X93307500Y-60960000D03*
%TD*%
D28*
%TO.C,R78*%
X65367500Y-64770000D03*
X64172500Y-64770000D03*
%TD*%
%TO.C,R101*%
X78067500Y-57150000D03*
X76872500Y-57150000D03*
%TD*%
%TO.C,R14*%
X65367500Y-133350000D03*
X64172500Y-133350000D03*
%TD*%
D36*
%TO.C,R6*%
X109220000Y-49260000D03*
X109220000Y-47260000D03*
%TD*%
D28*
%TO.C,R59*%
X71717500Y-91440000D03*
X70522500Y-91440000D03*
%TD*%
D34*
%TO.C,C13*%
X85090000Y-118110000D03*
X87165000Y-118110000D03*
%TD*%
D28*
%TO.C,R46*%
X65367500Y-92710000D03*
X64172500Y-92710000D03*
%TD*%
D33*
%TO.C,R29*%
X87642510Y-125714466D03*
X87642510Y-124519466D03*
%TD*%
D31*
%TO.C,R35*%
X77970435Y-120688614D03*
X77970435Y-121883614D03*
%TD*%
D28*
%TO.C,R11*%
X65367500Y-125730000D03*
X64172500Y-125730000D03*
%TD*%
%TO.C,R47*%
X65367500Y-95250000D03*
X64172500Y-95250000D03*
%TD*%
D29*
%TO.C,C9*%
X125730000Y-53572500D03*
X125730000Y-55647500D03*
%TD*%
D33*
%TO.C,R34*%
X77470000Y-128867500D03*
X77470000Y-127672500D03*
%TD*%
D28*
%TO.C,R107*%
X65367500Y-36830000D03*
X64172500Y-36830000D03*
%TD*%
%TO.C,R76*%
X65367500Y-59690000D03*
X64172500Y-59690000D03*
%TD*%
D36*
%TO.C,R3*%
X129540000Y-55610000D03*
X129540000Y-53610000D03*
%TD*%
D39*
%TO.C,D1*%
X97830000Y-138745000D03*
X95210000Y-137795000D03*
X97830000Y-136845000D03*
%TD*%
D33*
%TO.C,R69*%
X88900000Y-95218327D03*
X88900000Y-94023327D03*
%TD*%
D28*
%TO.C,R108*%
X65367500Y-39370000D03*
X64172500Y-39370000D03*
%TD*%
%TO.C,R74*%
X65367500Y-54610000D03*
X64172500Y-54610000D03*
%TD*%
M02*
