%TF.GenerationSoftware,KiCad,Pcbnew,(6.0.4)*%
%TF.CreationDate,2023-01-14T20:05:49-08:00*%
%TF.ProjectId,fcp-control-pcb,6663702d-636f-46e7-9472-6f6c2d706362,rev?*%
%TF.SameCoordinates,Original*%
%TF.FileFunction,Legend,Bot*%
%TF.FilePolarity,Positive*%
%FSLAX46Y46*%
G04 Gerber Fmt 4.6, Leading zero omitted, Abs format (unit mm)*
G04 Created by KiCad (PCBNEW (6.0.4)) date 2023-01-14 20:05:49*
%MOMM*%
%LPD*%
G01*
G04 APERTURE LIST*
%ADD10C,1.000000*%
%ADD11C,0.150000*%
%ADD12C,0.120000*%
G04 APERTURE END LIST*
D10*
X104472940Y-129082556D02*
X104136223Y-130092709D01*
X104136223Y-131439579D01*
X104136223Y-133459884D01*
X103799505Y-134470036D01*
X103126070Y-135143471D01*
X101779200Y-133123166D02*
X101442483Y-134133319D01*
X101442483Y-135480189D01*
X102452635Y-137163776D01*
X104809658Y-139520799D01*
X106493245Y-140530952D01*
X107840115Y-140530952D01*
X108850268Y-140194234D01*
X110197138Y-138847364D01*
X110533855Y-137837211D01*
X110533855Y-136490341D01*
X109523703Y-134806754D01*
X107166680Y-132449731D01*
X105483093Y-131439579D01*
X104136223Y-131439579D01*
X103126070Y-131776296D01*
X101779200Y-133123166D01*
X115584618Y-128745838D02*
X110870573Y-124031793D01*
X112554161Y-131776296D02*
X108850268Y-128072403D01*
X108513550Y-127062251D01*
X108850268Y-126052098D01*
X109860420Y-125041946D01*
X110870573Y-124705228D01*
X111544008Y-124705228D01*
X117268206Y-118307596D02*
X116258053Y-118644313D01*
X114911183Y-119991183D01*
X114574466Y-121001336D01*
X114911183Y-122011488D01*
X117604923Y-124705228D01*
X118615076Y-125041946D01*
X119625228Y-124705228D01*
X120972098Y-123358358D01*
X121308816Y-122348206D01*
X120972098Y-121338053D01*
X120298663Y-120664618D01*
X116258053Y-123358358D01*
X123329121Y-112246680D02*
X122318968Y-112583398D01*
X120972098Y-113930268D01*
X120635381Y-114940420D01*
X120972098Y-115950573D01*
X123665838Y-118644313D01*
X124675991Y-118981031D01*
X125686144Y-118644313D01*
X127033014Y-117297443D01*
X127369731Y-116287290D01*
X127033014Y-115277138D01*
X126359579Y-114603703D01*
X122318968Y-117297443D01*
X131073624Y-113256833D02*
X126359579Y-108542788D01*
X130400189Y-112583398D02*
X131073624Y-112583398D01*
X132083776Y-112246680D01*
X133093929Y-111236528D01*
X133430646Y-110226375D01*
X133093929Y-109216223D01*
X129390036Y-105512330D01*
D11*
%TO.C,U9*%
X83311904Y-57672380D02*
X83311904Y-58481904D01*
X83264285Y-58577142D01*
X83216666Y-58624761D01*
X83121428Y-58672380D01*
X82930952Y-58672380D01*
X82835714Y-58624761D01*
X82788095Y-58577142D01*
X82740476Y-58481904D01*
X82740476Y-57672380D01*
X82216666Y-58672380D02*
X82026190Y-58672380D01*
X81930952Y-58624761D01*
X81883333Y-58577142D01*
X81788095Y-58434285D01*
X81740476Y-58243809D01*
X81740476Y-57862857D01*
X81788095Y-57767619D01*
X81835714Y-57720000D01*
X81930952Y-57672380D01*
X82121428Y-57672380D01*
X82216666Y-57720000D01*
X82264285Y-57767619D01*
X82311904Y-57862857D01*
X82311904Y-58100952D01*
X82264285Y-58196190D01*
X82216666Y-58243809D01*
X82121428Y-58291428D01*
X81930952Y-58291428D01*
X81835714Y-58243809D01*
X81788095Y-58196190D01*
X81740476Y-58100952D01*
%TO.C,R75*%
X67952857Y-57602380D02*
X68286190Y-57126190D01*
X68524285Y-57602380D02*
X68524285Y-56602380D01*
X68143333Y-56602380D01*
X68048095Y-56650000D01*
X68000476Y-56697619D01*
X67952857Y-56792857D01*
X67952857Y-56935714D01*
X68000476Y-57030952D01*
X68048095Y-57078571D01*
X68143333Y-57126190D01*
X68524285Y-57126190D01*
X67619523Y-56602380D02*
X66952857Y-56602380D01*
X67381428Y-57602380D01*
X66095714Y-56602380D02*
X66571904Y-56602380D01*
X66619523Y-57078571D01*
X66571904Y-57030952D01*
X66476666Y-56983333D01*
X66238571Y-56983333D01*
X66143333Y-57030952D01*
X66095714Y-57078571D01*
X66048095Y-57173809D01*
X66048095Y-57411904D01*
X66095714Y-57507142D01*
X66143333Y-57554761D01*
X66238571Y-57602380D01*
X66476666Y-57602380D01*
X66571904Y-57554761D01*
X66619523Y-57507142D01*
%TO.C,C7*%
X122086666Y-52427142D02*
X122134285Y-52474761D01*
X122277142Y-52522380D01*
X122372380Y-52522380D01*
X122515238Y-52474761D01*
X122610476Y-52379523D01*
X122658095Y-52284285D01*
X122705714Y-52093809D01*
X122705714Y-51950952D01*
X122658095Y-51760476D01*
X122610476Y-51665238D01*
X122515238Y-51570000D01*
X122372380Y-51522380D01*
X122277142Y-51522380D01*
X122134285Y-51570000D01*
X122086666Y-51617619D01*
X121753333Y-51522380D02*
X121086666Y-51522380D01*
X121515238Y-52522380D01*
%TO.C,R81*%
X67952857Y-72842380D02*
X68286190Y-72366190D01*
X68524285Y-72842380D02*
X68524285Y-71842380D01*
X68143333Y-71842380D01*
X68048095Y-71890000D01*
X68000476Y-71937619D01*
X67952857Y-72032857D01*
X67952857Y-72175714D01*
X68000476Y-72270952D01*
X68048095Y-72318571D01*
X68143333Y-72366190D01*
X68524285Y-72366190D01*
X67381428Y-72270952D02*
X67476666Y-72223333D01*
X67524285Y-72175714D01*
X67571904Y-72080476D01*
X67571904Y-72032857D01*
X67524285Y-71937619D01*
X67476666Y-71890000D01*
X67381428Y-71842380D01*
X67190952Y-71842380D01*
X67095714Y-71890000D01*
X67048095Y-71937619D01*
X67000476Y-72032857D01*
X67000476Y-72080476D01*
X67048095Y-72175714D01*
X67095714Y-72223333D01*
X67190952Y-72270952D01*
X67381428Y-72270952D01*
X67476666Y-72318571D01*
X67524285Y-72366190D01*
X67571904Y-72461428D01*
X67571904Y-72651904D01*
X67524285Y-72747142D01*
X67476666Y-72794761D01*
X67381428Y-72842380D01*
X67190952Y-72842380D01*
X67095714Y-72794761D01*
X67048095Y-72747142D01*
X67000476Y-72651904D01*
X67000476Y-72461428D01*
X67048095Y-72366190D01*
X67095714Y-72318571D01*
X67190952Y-72270952D01*
X66048095Y-72842380D02*
X66619523Y-72842380D01*
X66333809Y-72842380D02*
X66333809Y-71842380D01*
X66429047Y-71985238D01*
X66524285Y-72080476D01*
X66619523Y-72128095D01*
%TO.C,R12*%
X67952857Y-128722380D02*
X68286190Y-128246190D01*
X68524285Y-128722380D02*
X68524285Y-127722380D01*
X68143333Y-127722380D01*
X68048095Y-127770000D01*
X68000476Y-127817619D01*
X67952857Y-127912857D01*
X67952857Y-128055714D01*
X68000476Y-128150952D01*
X68048095Y-128198571D01*
X68143333Y-128246190D01*
X68524285Y-128246190D01*
X67000476Y-128722380D02*
X67571904Y-128722380D01*
X67286190Y-128722380D02*
X67286190Y-127722380D01*
X67381428Y-127865238D01*
X67476666Y-127960476D01*
X67571904Y-128008095D01*
X66619523Y-127817619D02*
X66571904Y-127770000D01*
X66476666Y-127722380D01*
X66238571Y-127722380D01*
X66143333Y-127770000D01*
X66095714Y-127817619D01*
X66048095Y-127912857D01*
X66048095Y-128008095D01*
X66095714Y-128150952D01*
X66667142Y-128722380D01*
X66048095Y-128722380D01*
%TO.C,C8*%
X127767142Y-48093333D02*
X127814761Y-48045714D01*
X127862380Y-47902857D01*
X127862380Y-47807619D01*
X127814761Y-47664761D01*
X127719523Y-47569523D01*
X127624285Y-47521904D01*
X127433809Y-47474285D01*
X127290952Y-47474285D01*
X127100476Y-47521904D01*
X127005238Y-47569523D01*
X126910000Y-47664761D01*
X126862380Y-47807619D01*
X126862380Y-47902857D01*
X126910000Y-48045714D01*
X126957619Y-48093333D01*
X127290952Y-48664761D02*
X127243333Y-48569523D01*
X127195714Y-48521904D01*
X127100476Y-48474285D01*
X127052857Y-48474285D01*
X126957619Y-48521904D01*
X126910000Y-48569523D01*
X126862380Y-48664761D01*
X126862380Y-48855238D01*
X126910000Y-48950476D01*
X126957619Y-48998095D01*
X127052857Y-49045714D01*
X127100476Y-49045714D01*
X127195714Y-48998095D01*
X127243333Y-48950476D01*
X127290952Y-48855238D01*
X127290952Y-48664761D01*
X127338571Y-48569523D01*
X127386190Y-48521904D01*
X127481428Y-48474285D01*
X127671904Y-48474285D01*
X127767142Y-48521904D01*
X127814761Y-48569523D01*
X127862380Y-48664761D01*
X127862380Y-48855238D01*
X127814761Y-48950476D01*
X127767142Y-48998095D01*
X127671904Y-49045714D01*
X127481428Y-49045714D01*
X127386190Y-48998095D01*
X127338571Y-48950476D01*
X127290952Y-48855238D01*
%TO.C,R77*%
X67952857Y-62682380D02*
X68286190Y-62206190D01*
X68524285Y-62682380D02*
X68524285Y-61682380D01*
X68143333Y-61682380D01*
X68048095Y-61730000D01*
X68000476Y-61777619D01*
X67952857Y-61872857D01*
X67952857Y-62015714D01*
X68000476Y-62110952D01*
X68048095Y-62158571D01*
X68143333Y-62206190D01*
X68524285Y-62206190D01*
X67619523Y-61682380D02*
X66952857Y-61682380D01*
X67381428Y-62682380D01*
X66667142Y-61682380D02*
X66000476Y-61682380D01*
X66429047Y-62682380D01*
%TO.C,R67*%
X75482380Y-87584642D02*
X75006190Y-87251309D01*
X75482380Y-87013214D02*
X74482380Y-87013214D01*
X74482380Y-87394166D01*
X74530000Y-87489404D01*
X74577619Y-87537023D01*
X74672857Y-87584642D01*
X74815714Y-87584642D01*
X74910952Y-87537023D01*
X74958571Y-87489404D01*
X75006190Y-87394166D01*
X75006190Y-87013214D01*
X74482380Y-88441785D02*
X74482380Y-88251309D01*
X74530000Y-88156071D01*
X74577619Y-88108452D01*
X74720476Y-88013214D01*
X74910952Y-87965595D01*
X75291904Y-87965595D01*
X75387142Y-88013214D01*
X75434761Y-88060833D01*
X75482380Y-88156071D01*
X75482380Y-88346547D01*
X75434761Y-88441785D01*
X75387142Y-88489404D01*
X75291904Y-88537023D01*
X75053809Y-88537023D01*
X74958571Y-88489404D01*
X74910952Y-88441785D01*
X74863333Y-88346547D01*
X74863333Y-88156071D01*
X74910952Y-88060833D01*
X74958571Y-88013214D01*
X75053809Y-87965595D01*
X74482380Y-88870357D02*
X74482380Y-89537023D01*
X75482380Y-89108452D01*
%TO.C,R58*%
X75572857Y-84172380D02*
X75906190Y-83696190D01*
X76144285Y-84172380D02*
X76144285Y-83172380D01*
X75763333Y-83172380D01*
X75668095Y-83220000D01*
X75620476Y-83267619D01*
X75572857Y-83362857D01*
X75572857Y-83505714D01*
X75620476Y-83600952D01*
X75668095Y-83648571D01*
X75763333Y-83696190D01*
X76144285Y-83696190D01*
X74668095Y-83172380D02*
X75144285Y-83172380D01*
X75191904Y-83648571D01*
X75144285Y-83600952D01*
X75049047Y-83553333D01*
X74810952Y-83553333D01*
X74715714Y-83600952D01*
X74668095Y-83648571D01*
X74620476Y-83743809D01*
X74620476Y-83981904D01*
X74668095Y-84077142D01*
X74715714Y-84124761D01*
X74810952Y-84172380D01*
X75049047Y-84172380D01*
X75144285Y-84124761D01*
X75191904Y-84077142D01*
X74049047Y-83600952D02*
X74144285Y-83553333D01*
X74191904Y-83505714D01*
X74239523Y-83410476D01*
X74239523Y-83362857D01*
X74191904Y-83267619D01*
X74144285Y-83220000D01*
X74049047Y-83172380D01*
X73858571Y-83172380D01*
X73763333Y-83220000D01*
X73715714Y-83267619D01*
X73668095Y-83362857D01*
X73668095Y-83410476D01*
X73715714Y-83505714D01*
X73763333Y-83553333D01*
X73858571Y-83600952D01*
X74049047Y-83600952D01*
X74144285Y-83648571D01*
X74191904Y-83696190D01*
X74239523Y-83791428D01*
X74239523Y-83981904D01*
X74191904Y-84077142D01*
X74144285Y-84124761D01*
X74049047Y-84172380D01*
X73858571Y-84172380D01*
X73763333Y-84124761D01*
X73715714Y-84077142D01*
X73668095Y-83981904D01*
X73668095Y-83791428D01*
X73715714Y-83696190D01*
X73763333Y-83648571D01*
X73858571Y-83600952D01*
%TO.C,R68*%
X90622380Y-87634243D02*
X90146190Y-87300910D01*
X90622380Y-87062815D02*
X89622380Y-87062815D01*
X89622380Y-87443767D01*
X89670000Y-87539005D01*
X89717619Y-87586624D01*
X89812857Y-87634243D01*
X89955714Y-87634243D01*
X90050952Y-87586624D01*
X90098571Y-87539005D01*
X90146190Y-87443767D01*
X90146190Y-87062815D01*
X89622380Y-88491386D02*
X89622380Y-88300910D01*
X89670000Y-88205672D01*
X89717619Y-88158053D01*
X89860476Y-88062815D01*
X90050952Y-88015196D01*
X90431904Y-88015196D01*
X90527142Y-88062815D01*
X90574761Y-88110434D01*
X90622380Y-88205672D01*
X90622380Y-88396148D01*
X90574761Y-88491386D01*
X90527142Y-88539005D01*
X90431904Y-88586624D01*
X90193809Y-88586624D01*
X90098571Y-88539005D01*
X90050952Y-88491386D01*
X90003333Y-88396148D01*
X90003333Y-88205672D01*
X90050952Y-88110434D01*
X90098571Y-88062815D01*
X90193809Y-88015196D01*
X90050952Y-89158053D02*
X90003333Y-89062815D01*
X89955714Y-89015196D01*
X89860476Y-88967577D01*
X89812857Y-88967577D01*
X89717619Y-89015196D01*
X89670000Y-89062815D01*
X89622380Y-89158053D01*
X89622380Y-89348529D01*
X89670000Y-89443767D01*
X89717619Y-89491386D01*
X89812857Y-89539005D01*
X89860476Y-89539005D01*
X89955714Y-89491386D01*
X90003333Y-89443767D01*
X90050952Y-89348529D01*
X90050952Y-89158053D01*
X90098571Y-89062815D01*
X90146190Y-89015196D01*
X90241428Y-88967577D01*
X90431904Y-88967577D01*
X90527142Y-89015196D01*
X90574761Y-89062815D01*
X90622380Y-89158053D01*
X90622380Y-89348529D01*
X90574761Y-89443767D01*
X90527142Y-89491386D01*
X90431904Y-89539005D01*
X90241428Y-89539005D01*
X90146190Y-89491386D01*
X90098571Y-89443767D01*
X90050952Y-89348529D01*
%TO.C,R37*%
X90812857Y-127452380D02*
X91146190Y-126976190D01*
X91384285Y-127452380D02*
X91384285Y-126452380D01*
X91003333Y-126452380D01*
X90908095Y-126500000D01*
X90860476Y-126547619D01*
X90812857Y-126642857D01*
X90812857Y-126785714D01*
X90860476Y-126880952D01*
X90908095Y-126928571D01*
X91003333Y-126976190D01*
X91384285Y-126976190D01*
X90479523Y-126452380D02*
X89860476Y-126452380D01*
X90193809Y-126833333D01*
X90050952Y-126833333D01*
X89955714Y-126880952D01*
X89908095Y-126928571D01*
X89860476Y-127023809D01*
X89860476Y-127261904D01*
X89908095Y-127357142D01*
X89955714Y-127404761D01*
X90050952Y-127452380D01*
X90336666Y-127452380D01*
X90431904Y-127404761D01*
X90479523Y-127357142D01*
X89527142Y-126452380D02*
X88860476Y-126452380D01*
X89289047Y-127452380D01*
%TO.C,C10*%
X109862857Y-52427142D02*
X109910476Y-52474761D01*
X110053333Y-52522380D01*
X110148571Y-52522380D01*
X110291428Y-52474761D01*
X110386666Y-52379523D01*
X110434285Y-52284285D01*
X110481904Y-52093809D01*
X110481904Y-51950952D01*
X110434285Y-51760476D01*
X110386666Y-51665238D01*
X110291428Y-51570000D01*
X110148571Y-51522380D01*
X110053333Y-51522380D01*
X109910476Y-51570000D01*
X109862857Y-51617619D01*
X108910476Y-52522380D02*
X109481904Y-52522380D01*
X109196190Y-52522380D02*
X109196190Y-51522380D01*
X109291428Y-51665238D01*
X109386666Y-51760476D01*
X109481904Y-51808095D01*
X108291428Y-51522380D02*
X108196190Y-51522380D01*
X108100952Y-51570000D01*
X108053333Y-51617619D01*
X108005714Y-51712857D01*
X107958095Y-51903333D01*
X107958095Y-52141428D01*
X108005714Y-52331904D01*
X108053333Y-52427142D01*
X108100952Y-52474761D01*
X108196190Y-52522380D01*
X108291428Y-52522380D01*
X108386666Y-52474761D01*
X108434285Y-52427142D01*
X108481904Y-52331904D01*
X108529523Y-52141428D01*
X108529523Y-51903333D01*
X108481904Y-51712857D01*
X108434285Y-51617619D01*
X108386666Y-51570000D01*
X108291428Y-51522380D01*
%TO.C,C21*%
X84357234Y-82469548D02*
X84404853Y-82517167D01*
X84547710Y-82564786D01*
X84642948Y-82564786D01*
X84785805Y-82517167D01*
X84881043Y-82421929D01*
X84928662Y-82326691D01*
X84976281Y-82136215D01*
X84976281Y-81993358D01*
X84928662Y-81802882D01*
X84881043Y-81707644D01*
X84785805Y-81612406D01*
X84642948Y-81564786D01*
X84547710Y-81564786D01*
X84404853Y-81612406D01*
X84357234Y-81660025D01*
X83976281Y-81660025D02*
X83928662Y-81612406D01*
X83833424Y-81564786D01*
X83595329Y-81564786D01*
X83500091Y-81612406D01*
X83452472Y-81660025D01*
X83404853Y-81755263D01*
X83404853Y-81850501D01*
X83452472Y-81993358D01*
X84023900Y-82564786D01*
X83404853Y-82564786D01*
X82452472Y-82564786D02*
X83023900Y-82564786D01*
X82738186Y-82564786D02*
X82738186Y-81564786D01*
X82833424Y-81707644D01*
X82928662Y-81802882D01*
X83023900Y-81850501D01*
%TO.C,R80*%
X67952857Y-70302380D02*
X68286190Y-69826190D01*
X68524285Y-70302380D02*
X68524285Y-69302380D01*
X68143333Y-69302380D01*
X68048095Y-69350000D01*
X68000476Y-69397619D01*
X67952857Y-69492857D01*
X67952857Y-69635714D01*
X68000476Y-69730952D01*
X68048095Y-69778571D01*
X68143333Y-69826190D01*
X68524285Y-69826190D01*
X67381428Y-69730952D02*
X67476666Y-69683333D01*
X67524285Y-69635714D01*
X67571904Y-69540476D01*
X67571904Y-69492857D01*
X67524285Y-69397619D01*
X67476666Y-69350000D01*
X67381428Y-69302380D01*
X67190952Y-69302380D01*
X67095714Y-69350000D01*
X67048095Y-69397619D01*
X67000476Y-69492857D01*
X67000476Y-69540476D01*
X67048095Y-69635714D01*
X67095714Y-69683333D01*
X67190952Y-69730952D01*
X67381428Y-69730952D01*
X67476666Y-69778571D01*
X67524285Y-69826190D01*
X67571904Y-69921428D01*
X67571904Y-70111904D01*
X67524285Y-70207142D01*
X67476666Y-70254761D01*
X67381428Y-70302380D01*
X67190952Y-70302380D01*
X67095714Y-70254761D01*
X67048095Y-70207142D01*
X67000476Y-70111904D01*
X67000476Y-69921428D01*
X67048095Y-69826190D01*
X67095714Y-69778571D01*
X67190952Y-69730952D01*
X66381428Y-69302380D02*
X66286190Y-69302380D01*
X66190952Y-69350000D01*
X66143333Y-69397619D01*
X66095714Y-69492857D01*
X66048095Y-69683333D01*
X66048095Y-69921428D01*
X66095714Y-70111904D01*
X66143333Y-70207142D01*
X66190952Y-70254761D01*
X66286190Y-70302380D01*
X66381428Y-70302380D01*
X66476666Y-70254761D01*
X66524285Y-70207142D01*
X66571904Y-70111904D01*
X66619523Y-69921428D01*
X66619523Y-69683333D01*
X66571904Y-69492857D01*
X66524285Y-69397619D01*
X66476666Y-69350000D01*
X66381428Y-69302380D01*
%TO.C,R13*%
X67952857Y-131262380D02*
X68286190Y-130786190D01*
X68524285Y-131262380D02*
X68524285Y-130262380D01*
X68143333Y-130262380D01*
X68048095Y-130310000D01*
X68000476Y-130357619D01*
X67952857Y-130452857D01*
X67952857Y-130595714D01*
X68000476Y-130690952D01*
X68048095Y-130738571D01*
X68143333Y-130786190D01*
X68524285Y-130786190D01*
X67000476Y-131262380D02*
X67571904Y-131262380D01*
X67286190Y-131262380D02*
X67286190Y-130262380D01*
X67381428Y-130405238D01*
X67476666Y-130500476D01*
X67571904Y-130548095D01*
X66667142Y-130262380D02*
X66048095Y-130262380D01*
X66381428Y-130643333D01*
X66238571Y-130643333D01*
X66143333Y-130690952D01*
X66095714Y-130738571D01*
X66048095Y-130833809D01*
X66048095Y-131071904D01*
X66095714Y-131167142D01*
X66143333Y-131214761D01*
X66238571Y-131262380D01*
X66524285Y-131262380D01*
X66619523Y-131214761D01*
X66667142Y-131167142D01*
%TO.C,R42*%
X67952857Y-83002380D02*
X68286190Y-82526190D01*
X68524285Y-83002380D02*
X68524285Y-82002380D01*
X68143333Y-82002380D01*
X68048095Y-82050000D01*
X68000476Y-82097619D01*
X67952857Y-82192857D01*
X67952857Y-82335714D01*
X68000476Y-82430952D01*
X68048095Y-82478571D01*
X68143333Y-82526190D01*
X68524285Y-82526190D01*
X67095714Y-82335714D02*
X67095714Y-83002380D01*
X67333809Y-81954761D02*
X67571904Y-82669047D01*
X66952857Y-82669047D01*
X66619523Y-82097619D02*
X66571904Y-82050000D01*
X66476666Y-82002380D01*
X66238571Y-82002380D01*
X66143333Y-82050000D01*
X66095714Y-82097619D01*
X66048095Y-82192857D01*
X66048095Y-82288095D01*
X66095714Y-82430952D01*
X66667142Y-83002380D01*
X66048095Y-83002380D01*
%TO.C,R44*%
X67952857Y-88082380D02*
X68286190Y-87606190D01*
X68524285Y-88082380D02*
X68524285Y-87082380D01*
X68143333Y-87082380D01*
X68048095Y-87130000D01*
X68000476Y-87177619D01*
X67952857Y-87272857D01*
X67952857Y-87415714D01*
X68000476Y-87510952D01*
X68048095Y-87558571D01*
X68143333Y-87606190D01*
X68524285Y-87606190D01*
X67095714Y-87415714D02*
X67095714Y-88082380D01*
X67333809Y-87034761D02*
X67571904Y-87749047D01*
X66952857Y-87749047D01*
X66143333Y-87415714D02*
X66143333Y-88082380D01*
X66381428Y-87034761D02*
X66619523Y-87749047D01*
X66000476Y-87749047D01*
%TO.C,C4*%
X129706666Y-68527142D02*
X129754285Y-68574761D01*
X129897142Y-68622380D01*
X129992380Y-68622380D01*
X130135238Y-68574761D01*
X130230476Y-68479523D01*
X130278095Y-68384285D01*
X130325714Y-68193809D01*
X130325714Y-68050952D01*
X130278095Y-67860476D01*
X130230476Y-67765238D01*
X130135238Y-67670000D01*
X129992380Y-67622380D01*
X129897142Y-67622380D01*
X129754285Y-67670000D01*
X129706666Y-67717619D01*
X128849523Y-67955714D02*
X128849523Y-68622380D01*
X129087619Y-67574761D02*
X129325714Y-68289047D01*
X128706666Y-68289047D01*
%TO.C,C15*%
X89077857Y-65127142D02*
X89125476Y-65174761D01*
X89268333Y-65222380D01*
X89363571Y-65222380D01*
X89506428Y-65174761D01*
X89601666Y-65079523D01*
X89649285Y-64984285D01*
X89696904Y-64793809D01*
X89696904Y-64650952D01*
X89649285Y-64460476D01*
X89601666Y-64365238D01*
X89506428Y-64270000D01*
X89363571Y-64222380D01*
X89268333Y-64222380D01*
X89125476Y-64270000D01*
X89077857Y-64317619D01*
X88125476Y-65222380D02*
X88696904Y-65222380D01*
X88411190Y-65222380D02*
X88411190Y-64222380D01*
X88506428Y-64365238D01*
X88601666Y-64460476D01*
X88696904Y-64508095D01*
X87220714Y-64222380D02*
X87696904Y-64222380D01*
X87744523Y-64698571D01*
X87696904Y-64650952D01*
X87601666Y-64603333D01*
X87363571Y-64603333D01*
X87268333Y-64650952D01*
X87220714Y-64698571D01*
X87173095Y-64793809D01*
X87173095Y-65031904D01*
X87220714Y-65127142D01*
X87268333Y-65174761D01*
X87363571Y-65222380D01*
X87601666Y-65222380D01*
X87696904Y-65174761D01*
X87744523Y-65127142D01*
%TO.C,R45*%
X67952857Y-90622380D02*
X68286190Y-90146190D01*
X68524285Y-90622380D02*
X68524285Y-89622380D01*
X68143333Y-89622380D01*
X68048095Y-89670000D01*
X68000476Y-89717619D01*
X67952857Y-89812857D01*
X67952857Y-89955714D01*
X68000476Y-90050952D01*
X68048095Y-90098571D01*
X68143333Y-90146190D01*
X68524285Y-90146190D01*
X67095714Y-89955714D02*
X67095714Y-90622380D01*
X67333809Y-89574761D02*
X67571904Y-90289047D01*
X66952857Y-90289047D01*
X66095714Y-89622380D02*
X66571904Y-89622380D01*
X66619523Y-90098571D01*
X66571904Y-90050952D01*
X66476666Y-90003333D01*
X66238571Y-90003333D01*
X66143333Y-90050952D01*
X66095714Y-90098571D01*
X66048095Y-90193809D01*
X66048095Y-90431904D01*
X66095714Y-90527142D01*
X66143333Y-90574761D01*
X66238571Y-90622380D01*
X66476666Y-90622380D01*
X66571904Y-90574761D01*
X66619523Y-90527142D01*
%TO.C,R16*%
X67952857Y-138882380D02*
X68286190Y-138406190D01*
X68524285Y-138882380D02*
X68524285Y-137882380D01*
X68143333Y-137882380D01*
X68048095Y-137930000D01*
X68000476Y-137977619D01*
X67952857Y-138072857D01*
X67952857Y-138215714D01*
X68000476Y-138310952D01*
X68048095Y-138358571D01*
X68143333Y-138406190D01*
X68524285Y-138406190D01*
X67000476Y-138882380D02*
X67571904Y-138882380D01*
X67286190Y-138882380D02*
X67286190Y-137882380D01*
X67381428Y-138025238D01*
X67476666Y-138120476D01*
X67571904Y-138168095D01*
X66143333Y-137882380D02*
X66333809Y-137882380D01*
X66429047Y-137930000D01*
X66476666Y-137977619D01*
X66571904Y-138120476D01*
X66619523Y-138310952D01*
X66619523Y-138691904D01*
X66571904Y-138787142D01*
X66524285Y-138834761D01*
X66429047Y-138882380D01*
X66238571Y-138882380D01*
X66143333Y-138834761D01*
X66095714Y-138787142D01*
X66048095Y-138691904D01*
X66048095Y-138453809D01*
X66095714Y-138358571D01*
X66143333Y-138310952D01*
X66238571Y-138263333D01*
X66429047Y-138263333D01*
X66524285Y-138310952D01*
X66571904Y-138358571D01*
X66619523Y-138453809D01*
%TO.C,R10*%
X67952857Y-123642380D02*
X68286190Y-123166190D01*
X68524285Y-123642380D02*
X68524285Y-122642380D01*
X68143333Y-122642380D01*
X68048095Y-122690000D01*
X68000476Y-122737619D01*
X67952857Y-122832857D01*
X67952857Y-122975714D01*
X68000476Y-123070952D01*
X68048095Y-123118571D01*
X68143333Y-123166190D01*
X68524285Y-123166190D01*
X67000476Y-123642380D02*
X67571904Y-123642380D01*
X67286190Y-123642380D02*
X67286190Y-122642380D01*
X67381428Y-122785238D01*
X67476666Y-122880476D01*
X67571904Y-122928095D01*
X66381428Y-122642380D02*
X66286190Y-122642380D01*
X66190952Y-122690000D01*
X66143333Y-122737619D01*
X66095714Y-122832857D01*
X66048095Y-123023333D01*
X66048095Y-123261428D01*
X66095714Y-123451904D01*
X66143333Y-123547142D01*
X66190952Y-123594761D01*
X66286190Y-123642380D01*
X66381428Y-123642380D01*
X66476666Y-123594761D01*
X66524285Y-123547142D01*
X66571904Y-123451904D01*
X66619523Y-123261428D01*
X66619523Y-123023333D01*
X66571904Y-122832857D01*
X66524285Y-122737619D01*
X66476666Y-122690000D01*
X66381428Y-122642380D01*
%TO.C,R98*%
X88182380Y-59696224D02*
X87706190Y-59362891D01*
X88182380Y-59124796D02*
X87182380Y-59124796D01*
X87182380Y-59505748D01*
X87230000Y-59600986D01*
X87277619Y-59648605D01*
X87372857Y-59696224D01*
X87515714Y-59696224D01*
X87610952Y-59648605D01*
X87658571Y-59600986D01*
X87706190Y-59505748D01*
X87706190Y-59124796D01*
X88182380Y-60172415D02*
X88182380Y-60362891D01*
X88134761Y-60458129D01*
X88087142Y-60505748D01*
X87944285Y-60600986D01*
X87753809Y-60648605D01*
X87372857Y-60648605D01*
X87277619Y-60600986D01*
X87230000Y-60553367D01*
X87182380Y-60458129D01*
X87182380Y-60267653D01*
X87230000Y-60172415D01*
X87277619Y-60124796D01*
X87372857Y-60077177D01*
X87610952Y-60077177D01*
X87706190Y-60124796D01*
X87753809Y-60172415D01*
X87801428Y-60267653D01*
X87801428Y-60458129D01*
X87753809Y-60553367D01*
X87706190Y-60600986D01*
X87610952Y-60648605D01*
X87610952Y-61220034D02*
X87563333Y-61124796D01*
X87515714Y-61077177D01*
X87420476Y-61029558D01*
X87372857Y-61029558D01*
X87277619Y-61077177D01*
X87230000Y-61124796D01*
X87182380Y-61220034D01*
X87182380Y-61410510D01*
X87230000Y-61505748D01*
X87277619Y-61553367D01*
X87372857Y-61600986D01*
X87420476Y-61600986D01*
X87515714Y-61553367D01*
X87563333Y-61505748D01*
X87610952Y-61410510D01*
X87610952Y-61220034D01*
X87658571Y-61124796D01*
X87706190Y-61077177D01*
X87801428Y-61029558D01*
X87991904Y-61029558D01*
X88087142Y-61077177D01*
X88134761Y-61124796D01*
X88182380Y-61220034D01*
X88182380Y-61410510D01*
X88134761Y-61505748D01*
X88087142Y-61553367D01*
X87991904Y-61600986D01*
X87801428Y-61600986D01*
X87706190Y-61553367D01*
X87658571Y-61505748D01*
X87610952Y-61410510D01*
%TO.C,R5*%
X117006666Y-52522380D02*
X117340000Y-52046190D01*
X117578095Y-52522380D02*
X117578095Y-51522380D01*
X117197142Y-51522380D01*
X117101904Y-51570000D01*
X117054285Y-51617619D01*
X117006666Y-51712857D01*
X117006666Y-51855714D01*
X117054285Y-51950952D01*
X117101904Y-51998571D01*
X117197142Y-52046190D01*
X117578095Y-52046190D01*
X116101904Y-51522380D02*
X116578095Y-51522380D01*
X116625714Y-51998571D01*
X116578095Y-51950952D01*
X116482857Y-51903333D01*
X116244761Y-51903333D01*
X116149523Y-51950952D01*
X116101904Y-51998571D01*
X116054285Y-52093809D01*
X116054285Y-52331904D01*
X116101904Y-52427142D01*
X116149523Y-52474761D01*
X116244761Y-52522380D01*
X116482857Y-52522380D01*
X116578095Y-52474761D01*
X116625714Y-52427142D01*
%TO.C,R125*%
X90622380Y-40790952D02*
X90146190Y-40457619D01*
X90622380Y-40219523D02*
X89622380Y-40219523D01*
X89622380Y-40600476D01*
X89670000Y-40695714D01*
X89717619Y-40743333D01*
X89812857Y-40790952D01*
X89955714Y-40790952D01*
X90050952Y-40743333D01*
X90098571Y-40695714D01*
X90146190Y-40600476D01*
X90146190Y-40219523D01*
X90622380Y-41743333D02*
X90622380Y-41171904D01*
X90622380Y-41457619D02*
X89622380Y-41457619D01*
X89765238Y-41362380D01*
X89860476Y-41267142D01*
X89908095Y-41171904D01*
X89717619Y-42124285D02*
X89670000Y-42171904D01*
X89622380Y-42267142D01*
X89622380Y-42505238D01*
X89670000Y-42600476D01*
X89717619Y-42648095D01*
X89812857Y-42695714D01*
X89908095Y-42695714D01*
X90050952Y-42648095D01*
X90622380Y-42076666D01*
X90622380Y-42695714D01*
X89622380Y-43600476D02*
X89622380Y-43124285D01*
X90098571Y-43076666D01*
X90050952Y-43124285D01*
X90003333Y-43219523D01*
X90003333Y-43457619D01*
X90050952Y-43552857D01*
X90098571Y-43600476D01*
X90193809Y-43648095D01*
X90431904Y-43648095D01*
X90527142Y-43600476D01*
X90574761Y-43552857D01*
X90622380Y-43457619D01*
X90622380Y-43219523D01*
X90574761Y-43124285D01*
X90527142Y-43076666D01*
%TO.C,R118*%
X74181547Y-34642380D02*
X74514880Y-34166190D01*
X74752976Y-34642380D02*
X74752976Y-33642380D01*
X74372023Y-33642380D01*
X74276785Y-33690000D01*
X74229166Y-33737619D01*
X74181547Y-33832857D01*
X74181547Y-33975714D01*
X74229166Y-34070952D01*
X74276785Y-34118571D01*
X74372023Y-34166190D01*
X74752976Y-34166190D01*
X73229166Y-34642380D02*
X73800595Y-34642380D01*
X73514880Y-34642380D02*
X73514880Y-33642380D01*
X73610119Y-33785238D01*
X73705357Y-33880476D01*
X73800595Y-33928095D01*
X72276785Y-34642380D02*
X72848214Y-34642380D01*
X72562500Y-34642380D02*
X72562500Y-33642380D01*
X72657738Y-33785238D01*
X72752976Y-33880476D01*
X72848214Y-33928095D01*
X71705357Y-34070952D02*
X71800595Y-34023333D01*
X71848214Y-33975714D01*
X71895833Y-33880476D01*
X71895833Y-33832857D01*
X71848214Y-33737619D01*
X71800595Y-33690000D01*
X71705357Y-33642380D01*
X71514880Y-33642380D01*
X71419642Y-33690000D01*
X71372023Y-33737619D01*
X71324404Y-33832857D01*
X71324404Y-33880476D01*
X71372023Y-33975714D01*
X71419642Y-34023333D01*
X71514880Y-34070952D01*
X71705357Y-34070952D01*
X71800595Y-34118571D01*
X71848214Y-34166190D01*
X71895833Y-34261428D01*
X71895833Y-34451904D01*
X71848214Y-34547142D01*
X71800595Y-34594761D01*
X71705357Y-34642380D01*
X71514880Y-34642380D01*
X71419642Y-34594761D01*
X71372023Y-34547142D01*
X71324404Y-34451904D01*
X71324404Y-34261428D01*
X71372023Y-34166190D01*
X71419642Y-34118571D01*
X71514880Y-34070952D01*
%TO.C,R63*%
X74212380Y-108577142D02*
X73736190Y-108243809D01*
X74212380Y-108005714D02*
X73212380Y-108005714D01*
X73212380Y-108386666D01*
X73260000Y-108481904D01*
X73307619Y-108529523D01*
X73402857Y-108577142D01*
X73545714Y-108577142D01*
X73640952Y-108529523D01*
X73688571Y-108481904D01*
X73736190Y-108386666D01*
X73736190Y-108005714D01*
X73212380Y-109434285D02*
X73212380Y-109243809D01*
X73260000Y-109148571D01*
X73307619Y-109100952D01*
X73450476Y-109005714D01*
X73640952Y-108958095D01*
X74021904Y-108958095D01*
X74117142Y-109005714D01*
X74164761Y-109053333D01*
X74212380Y-109148571D01*
X74212380Y-109339047D01*
X74164761Y-109434285D01*
X74117142Y-109481904D01*
X74021904Y-109529523D01*
X73783809Y-109529523D01*
X73688571Y-109481904D01*
X73640952Y-109434285D01*
X73593333Y-109339047D01*
X73593333Y-109148571D01*
X73640952Y-109053333D01*
X73688571Y-109005714D01*
X73783809Y-108958095D01*
X73212380Y-109862857D02*
X73212380Y-110481904D01*
X73593333Y-110148571D01*
X73593333Y-110291428D01*
X73640952Y-110386666D01*
X73688571Y-110434285D01*
X73783809Y-110481904D01*
X74021904Y-110481904D01*
X74117142Y-110434285D01*
X74164761Y-110386666D01*
X74212380Y-110291428D01*
X74212380Y-110005714D01*
X74164761Y-109910476D01*
X74117142Y-109862857D01*
%TO.C,U11*%
X83788095Y-42832380D02*
X83788095Y-43641904D01*
X83740476Y-43737142D01*
X83692857Y-43784761D01*
X83597619Y-43832380D01*
X83407142Y-43832380D01*
X83311904Y-43784761D01*
X83264285Y-43737142D01*
X83216666Y-43641904D01*
X83216666Y-42832380D01*
X82216666Y-43832380D02*
X82788095Y-43832380D01*
X82502380Y-43832380D02*
X82502380Y-42832380D01*
X82597619Y-42975238D01*
X82692857Y-43070476D01*
X82788095Y-43118095D01*
X81264285Y-43832380D02*
X81835714Y-43832380D01*
X81550000Y-43832380D02*
X81550000Y-42832380D01*
X81645238Y-42975238D01*
X81740476Y-43070476D01*
X81835714Y-43118095D01*
%TO.C,C12*%
X113672857Y-52427142D02*
X113720476Y-52474761D01*
X113863333Y-52522380D01*
X113958571Y-52522380D01*
X114101428Y-52474761D01*
X114196666Y-52379523D01*
X114244285Y-52284285D01*
X114291904Y-52093809D01*
X114291904Y-51950952D01*
X114244285Y-51760476D01*
X114196666Y-51665238D01*
X114101428Y-51570000D01*
X113958571Y-51522380D01*
X113863333Y-51522380D01*
X113720476Y-51570000D01*
X113672857Y-51617619D01*
X112720476Y-52522380D02*
X113291904Y-52522380D01*
X113006190Y-52522380D02*
X113006190Y-51522380D01*
X113101428Y-51665238D01*
X113196666Y-51760476D01*
X113291904Y-51808095D01*
X112339523Y-51617619D02*
X112291904Y-51570000D01*
X112196666Y-51522380D01*
X111958571Y-51522380D01*
X111863333Y-51570000D01*
X111815714Y-51617619D01*
X111768095Y-51712857D01*
X111768095Y-51808095D01*
X111815714Y-51950952D01*
X112387142Y-52522380D01*
X111768095Y-52522380D01*
%TO.C,R17*%
X67952857Y-141422380D02*
X68286190Y-140946190D01*
X68524285Y-141422380D02*
X68524285Y-140422380D01*
X68143333Y-140422380D01*
X68048095Y-140470000D01*
X68000476Y-140517619D01*
X67952857Y-140612857D01*
X67952857Y-140755714D01*
X68000476Y-140850952D01*
X68048095Y-140898571D01*
X68143333Y-140946190D01*
X68524285Y-140946190D01*
X67000476Y-141422380D02*
X67571904Y-141422380D01*
X67286190Y-141422380D02*
X67286190Y-140422380D01*
X67381428Y-140565238D01*
X67476666Y-140660476D01*
X67571904Y-140708095D01*
X66667142Y-140422380D02*
X66000476Y-140422380D01*
X66429047Y-141422380D01*
%TO.C,U7*%
X83311904Y-96172380D02*
X83311904Y-96981904D01*
X83264285Y-97077142D01*
X83216666Y-97124761D01*
X83121428Y-97172380D01*
X82930952Y-97172380D01*
X82835714Y-97124761D01*
X82788095Y-97077142D01*
X82740476Y-96981904D01*
X82740476Y-96172380D01*
X82359523Y-96172380D02*
X81692857Y-96172380D01*
X82121428Y-97172380D01*
%TO.C,R119*%
X92048710Y-38843074D02*
X91572520Y-38509741D01*
X92048710Y-38271645D02*
X91048710Y-38271645D01*
X91048710Y-38652598D01*
X91096330Y-38747836D01*
X91143949Y-38795455D01*
X91239187Y-38843074D01*
X91382044Y-38843074D01*
X91477282Y-38795455D01*
X91524901Y-38747836D01*
X91572520Y-38652598D01*
X91572520Y-38271645D01*
X92048710Y-39795455D02*
X92048710Y-39224026D01*
X92048710Y-39509741D02*
X91048710Y-39509741D01*
X91191568Y-39414502D01*
X91286806Y-39319264D01*
X91334425Y-39224026D01*
X92048710Y-40747836D02*
X92048710Y-40176407D01*
X92048710Y-40462122D02*
X91048710Y-40462122D01*
X91191568Y-40366883D01*
X91286806Y-40271645D01*
X91334425Y-40176407D01*
X92048710Y-41224026D02*
X92048710Y-41414502D01*
X92001091Y-41509741D01*
X91953472Y-41557360D01*
X91810615Y-41652598D01*
X91620139Y-41700217D01*
X91239187Y-41700217D01*
X91143949Y-41652598D01*
X91096330Y-41604979D01*
X91048710Y-41509741D01*
X91048710Y-41319264D01*
X91096330Y-41224026D01*
X91143949Y-41176407D01*
X91239187Y-41128788D01*
X91477282Y-41128788D01*
X91572520Y-41176407D01*
X91620139Y-41224026D01*
X91667758Y-41319264D01*
X91667758Y-41509741D01*
X91620139Y-41604979D01*
X91572520Y-41652598D01*
X91477282Y-41700217D01*
%TO.C,R106*%
X69185119Y-34742380D02*
X69518452Y-34266190D01*
X69756547Y-34742380D02*
X69756547Y-33742380D01*
X69375595Y-33742380D01*
X69280357Y-33790000D01*
X69232738Y-33837619D01*
X69185119Y-33932857D01*
X69185119Y-34075714D01*
X69232738Y-34170952D01*
X69280357Y-34218571D01*
X69375595Y-34266190D01*
X69756547Y-34266190D01*
X68232738Y-34742380D02*
X68804166Y-34742380D01*
X68518452Y-34742380D02*
X68518452Y-33742380D01*
X68613690Y-33885238D01*
X68708928Y-33980476D01*
X68804166Y-34028095D01*
X67613690Y-33742380D02*
X67518452Y-33742380D01*
X67423214Y-33790000D01*
X67375595Y-33837619D01*
X67327976Y-33932857D01*
X67280357Y-34123333D01*
X67280357Y-34361428D01*
X67327976Y-34551904D01*
X67375595Y-34647142D01*
X67423214Y-34694761D01*
X67518452Y-34742380D01*
X67613690Y-34742380D01*
X67708928Y-34694761D01*
X67756547Y-34647142D01*
X67804166Y-34551904D01*
X67851785Y-34361428D01*
X67851785Y-34123333D01*
X67804166Y-33932857D01*
X67756547Y-33837619D01*
X67708928Y-33790000D01*
X67613690Y-33742380D01*
X66423214Y-33742380D02*
X66613690Y-33742380D01*
X66708928Y-33790000D01*
X66756547Y-33837619D01*
X66851785Y-33980476D01*
X66899404Y-34170952D01*
X66899404Y-34551904D01*
X66851785Y-34647142D01*
X66804166Y-34694761D01*
X66708928Y-34742380D01*
X66518452Y-34742380D01*
X66423214Y-34694761D01*
X66375595Y-34647142D01*
X66327976Y-34551904D01*
X66327976Y-34313809D01*
X66375595Y-34218571D01*
X66423214Y-34170952D01*
X66518452Y-34123333D01*
X66708928Y-34123333D01*
X66804166Y-34170952D01*
X66851785Y-34218571D01*
X66899404Y-34313809D01*
%TO.C,R66*%
X77822380Y-93989981D02*
X77346190Y-93656648D01*
X77822380Y-93418553D02*
X76822380Y-93418553D01*
X76822380Y-93799505D01*
X76870000Y-93894743D01*
X76917619Y-93942362D01*
X77012857Y-93989981D01*
X77155714Y-93989981D01*
X77250952Y-93942362D01*
X77298571Y-93894743D01*
X77346190Y-93799505D01*
X77346190Y-93418553D01*
X76822380Y-94847124D02*
X76822380Y-94656648D01*
X76870000Y-94561410D01*
X76917619Y-94513791D01*
X77060476Y-94418553D01*
X77250952Y-94370934D01*
X77631904Y-94370934D01*
X77727142Y-94418553D01*
X77774761Y-94466172D01*
X77822380Y-94561410D01*
X77822380Y-94751886D01*
X77774761Y-94847124D01*
X77727142Y-94894743D01*
X77631904Y-94942362D01*
X77393809Y-94942362D01*
X77298571Y-94894743D01*
X77250952Y-94847124D01*
X77203333Y-94751886D01*
X77203333Y-94561410D01*
X77250952Y-94466172D01*
X77298571Y-94418553D01*
X77393809Y-94370934D01*
X76822380Y-95799505D02*
X76822380Y-95609029D01*
X76870000Y-95513791D01*
X76917619Y-95466172D01*
X77060476Y-95370934D01*
X77250952Y-95323315D01*
X77631904Y-95323315D01*
X77727142Y-95370934D01*
X77774761Y-95418553D01*
X77822380Y-95513791D01*
X77822380Y-95704267D01*
X77774761Y-95799505D01*
X77727142Y-95847124D01*
X77631904Y-95894743D01*
X77393809Y-95894743D01*
X77298571Y-95847124D01*
X77250952Y-95799505D01*
X77203333Y-95704267D01*
X77203333Y-95513791D01*
X77250952Y-95418553D01*
X77298571Y-95370934D01*
X77393809Y-95323315D01*
%TO.C,R79*%
X67952857Y-67762380D02*
X68286190Y-67286190D01*
X68524285Y-67762380D02*
X68524285Y-66762380D01*
X68143333Y-66762380D01*
X68048095Y-66810000D01*
X68000476Y-66857619D01*
X67952857Y-66952857D01*
X67952857Y-67095714D01*
X68000476Y-67190952D01*
X68048095Y-67238571D01*
X68143333Y-67286190D01*
X68524285Y-67286190D01*
X67619523Y-66762380D02*
X66952857Y-66762380D01*
X67381428Y-67762380D01*
X66524285Y-67762380D02*
X66333809Y-67762380D01*
X66238571Y-67714761D01*
X66190952Y-67667142D01*
X66095714Y-67524285D01*
X66048095Y-67333809D01*
X66048095Y-66952857D01*
X66095714Y-66857619D01*
X66143333Y-66810000D01*
X66238571Y-66762380D01*
X66429047Y-66762380D01*
X66524285Y-66810000D01*
X66571904Y-66857619D01*
X66619523Y-66952857D01*
X66619523Y-67190952D01*
X66571904Y-67286190D01*
X66524285Y-67333809D01*
X66429047Y-67381428D01*
X66238571Y-67381428D01*
X66143333Y-67333809D01*
X66095714Y-67286190D01*
X66048095Y-67190952D01*
%TO.C,R91*%
X93352857Y-66392380D02*
X93686190Y-65916190D01*
X93924285Y-66392380D02*
X93924285Y-65392380D01*
X93543333Y-65392380D01*
X93448095Y-65440000D01*
X93400476Y-65487619D01*
X93352857Y-65582857D01*
X93352857Y-65725714D01*
X93400476Y-65820952D01*
X93448095Y-65868571D01*
X93543333Y-65916190D01*
X93924285Y-65916190D01*
X92876666Y-66392380D02*
X92686190Y-66392380D01*
X92590952Y-66344761D01*
X92543333Y-66297142D01*
X92448095Y-66154285D01*
X92400476Y-65963809D01*
X92400476Y-65582857D01*
X92448095Y-65487619D01*
X92495714Y-65440000D01*
X92590952Y-65392380D01*
X92781428Y-65392380D01*
X92876666Y-65440000D01*
X92924285Y-65487619D01*
X92971904Y-65582857D01*
X92971904Y-65820952D01*
X92924285Y-65916190D01*
X92876666Y-65963809D01*
X92781428Y-66011428D01*
X92590952Y-66011428D01*
X92495714Y-65963809D01*
X92448095Y-65916190D01*
X92400476Y-65820952D01*
X91448095Y-66392380D02*
X92019523Y-66392380D01*
X91733809Y-66392380D02*
X91733809Y-65392380D01*
X91829047Y-65535238D01*
X91924285Y-65630476D01*
X92019523Y-65678095D01*
%TO.C,R100*%
X77822380Y-65593452D02*
X77346190Y-65260119D01*
X77822380Y-65022023D02*
X76822380Y-65022023D01*
X76822380Y-65402976D01*
X76870000Y-65498214D01*
X76917619Y-65545833D01*
X77012857Y-65593452D01*
X77155714Y-65593452D01*
X77250952Y-65545833D01*
X77298571Y-65498214D01*
X77346190Y-65402976D01*
X77346190Y-65022023D01*
X77822380Y-66545833D02*
X77822380Y-65974404D01*
X77822380Y-66260119D02*
X76822380Y-66260119D01*
X76965238Y-66164880D01*
X77060476Y-66069642D01*
X77108095Y-65974404D01*
X76822380Y-67164880D02*
X76822380Y-67260119D01*
X76870000Y-67355357D01*
X76917619Y-67402976D01*
X77012857Y-67450595D01*
X77203333Y-67498214D01*
X77441428Y-67498214D01*
X77631904Y-67450595D01*
X77727142Y-67402976D01*
X77774761Y-67355357D01*
X77822380Y-67260119D01*
X77822380Y-67164880D01*
X77774761Y-67069642D01*
X77727142Y-67022023D01*
X77631904Y-66974404D01*
X77441428Y-66926785D01*
X77203333Y-66926785D01*
X77012857Y-66974404D01*
X76917619Y-67022023D01*
X76870000Y-67069642D01*
X76822380Y-67164880D01*
X76822380Y-68117261D02*
X76822380Y-68212500D01*
X76870000Y-68307738D01*
X76917619Y-68355357D01*
X77012857Y-68402976D01*
X77203333Y-68450595D01*
X77441428Y-68450595D01*
X77631904Y-68402976D01*
X77727142Y-68355357D01*
X77774761Y-68307738D01*
X77822380Y-68212500D01*
X77822380Y-68117261D01*
X77774761Y-68022023D01*
X77727142Y-67974404D01*
X77631904Y-67926785D01*
X77441428Y-67879166D01*
X77203333Y-67879166D01*
X77012857Y-67926785D01*
X76917619Y-67974404D01*
X76870000Y-68022023D01*
X76822380Y-68117261D01*
%TO.C,R36*%
X90812857Y-121102380D02*
X91146190Y-120626190D01*
X91384285Y-121102380D02*
X91384285Y-120102380D01*
X91003333Y-120102380D01*
X90908095Y-120150000D01*
X90860476Y-120197619D01*
X90812857Y-120292857D01*
X90812857Y-120435714D01*
X90860476Y-120530952D01*
X90908095Y-120578571D01*
X91003333Y-120626190D01*
X91384285Y-120626190D01*
X90479523Y-120102380D02*
X89860476Y-120102380D01*
X90193809Y-120483333D01*
X90050952Y-120483333D01*
X89955714Y-120530952D01*
X89908095Y-120578571D01*
X89860476Y-120673809D01*
X89860476Y-120911904D01*
X89908095Y-121007142D01*
X89955714Y-121054761D01*
X90050952Y-121102380D01*
X90336666Y-121102380D01*
X90431904Y-121054761D01*
X90479523Y-121007142D01*
X89003333Y-120102380D02*
X89193809Y-120102380D01*
X89289047Y-120150000D01*
X89336666Y-120197619D01*
X89431904Y-120340476D01*
X89479523Y-120530952D01*
X89479523Y-120911904D01*
X89431904Y-121007142D01*
X89384285Y-121054761D01*
X89289047Y-121102380D01*
X89098571Y-121102380D01*
X89003333Y-121054761D01*
X88955714Y-121007142D01*
X88908095Y-120911904D01*
X88908095Y-120673809D01*
X88955714Y-120578571D01*
X89003333Y-120530952D01*
X89098571Y-120483333D01*
X89289047Y-120483333D01*
X89384285Y-120530952D01*
X89431904Y-120578571D01*
X89479523Y-120673809D01*
%TO.C,R48*%
X67952857Y-98242380D02*
X68286190Y-97766190D01*
X68524285Y-98242380D02*
X68524285Y-97242380D01*
X68143333Y-97242380D01*
X68048095Y-97290000D01*
X68000476Y-97337619D01*
X67952857Y-97432857D01*
X67952857Y-97575714D01*
X68000476Y-97670952D01*
X68048095Y-97718571D01*
X68143333Y-97766190D01*
X68524285Y-97766190D01*
X67095714Y-97575714D02*
X67095714Y-98242380D01*
X67333809Y-97194761D02*
X67571904Y-97909047D01*
X66952857Y-97909047D01*
X66429047Y-97670952D02*
X66524285Y-97623333D01*
X66571904Y-97575714D01*
X66619523Y-97480476D01*
X66619523Y-97432857D01*
X66571904Y-97337619D01*
X66524285Y-97290000D01*
X66429047Y-97242380D01*
X66238571Y-97242380D01*
X66143333Y-97290000D01*
X66095714Y-97337619D01*
X66048095Y-97432857D01*
X66048095Y-97480476D01*
X66095714Y-97575714D01*
X66143333Y-97623333D01*
X66238571Y-97670952D01*
X66429047Y-97670952D01*
X66524285Y-97718571D01*
X66571904Y-97766190D01*
X66619523Y-97861428D01*
X66619523Y-98051904D01*
X66571904Y-98147142D01*
X66524285Y-98194761D01*
X66429047Y-98242380D01*
X66238571Y-98242380D01*
X66143333Y-98194761D01*
X66095714Y-98147142D01*
X66048095Y-98051904D01*
X66048095Y-97861428D01*
X66095714Y-97766190D01*
X66143333Y-97718571D01*
X66238571Y-97670952D01*
%TO.C,R64*%
X74212380Y-112387142D02*
X73736190Y-112053809D01*
X74212380Y-111815714D02*
X73212380Y-111815714D01*
X73212380Y-112196666D01*
X73260000Y-112291904D01*
X73307619Y-112339523D01*
X73402857Y-112387142D01*
X73545714Y-112387142D01*
X73640952Y-112339523D01*
X73688571Y-112291904D01*
X73736190Y-112196666D01*
X73736190Y-111815714D01*
X73212380Y-113244285D02*
X73212380Y-113053809D01*
X73260000Y-112958571D01*
X73307619Y-112910952D01*
X73450476Y-112815714D01*
X73640952Y-112768095D01*
X74021904Y-112768095D01*
X74117142Y-112815714D01*
X74164761Y-112863333D01*
X74212380Y-112958571D01*
X74212380Y-113149047D01*
X74164761Y-113244285D01*
X74117142Y-113291904D01*
X74021904Y-113339523D01*
X73783809Y-113339523D01*
X73688571Y-113291904D01*
X73640952Y-113244285D01*
X73593333Y-113149047D01*
X73593333Y-112958571D01*
X73640952Y-112863333D01*
X73688571Y-112815714D01*
X73783809Y-112768095D01*
X73545714Y-114196666D02*
X74212380Y-114196666D01*
X73164761Y-113958571D02*
X73879047Y-113720476D01*
X73879047Y-114339523D01*
%TO.C,R4*%
X124022380Y-48093333D02*
X123546190Y-47760000D01*
X124022380Y-47521904D02*
X123022380Y-47521904D01*
X123022380Y-47902857D01*
X123070000Y-47998095D01*
X123117619Y-48045714D01*
X123212857Y-48093333D01*
X123355714Y-48093333D01*
X123450952Y-48045714D01*
X123498571Y-47998095D01*
X123546190Y-47902857D01*
X123546190Y-47521904D01*
X123355714Y-48950476D02*
X124022380Y-48950476D01*
X122974761Y-48712380D02*
X123689047Y-48474285D01*
X123689047Y-49093333D01*
%TO.C,R60*%
X90622380Y-90330078D02*
X90146190Y-89996745D01*
X90622380Y-89758650D02*
X89622380Y-89758650D01*
X89622380Y-90139602D01*
X89670000Y-90234840D01*
X89717619Y-90282459D01*
X89812857Y-90330078D01*
X89955714Y-90330078D01*
X90050952Y-90282459D01*
X90098571Y-90234840D01*
X90146190Y-90139602D01*
X90146190Y-89758650D01*
X89622380Y-91187221D02*
X89622380Y-90996745D01*
X89670000Y-90901507D01*
X89717619Y-90853888D01*
X89860476Y-90758650D01*
X90050952Y-90711031D01*
X90431904Y-90711031D01*
X90527142Y-90758650D01*
X90574761Y-90806269D01*
X90622380Y-90901507D01*
X90622380Y-91091983D01*
X90574761Y-91187221D01*
X90527142Y-91234840D01*
X90431904Y-91282459D01*
X90193809Y-91282459D01*
X90098571Y-91234840D01*
X90050952Y-91187221D01*
X90003333Y-91091983D01*
X90003333Y-90901507D01*
X90050952Y-90806269D01*
X90098571Y-90758650D01*
X90193809Y-90711031D01*
X89622380Y-91901507D02*
X89622380Y-91996745D01*
X89670000Y-92091983D01*
X89717619Y-92139602D01*
X89812857Y-92187221D01*
X90003333Y-92234840D01*
X90241428Y-92234840D01*
X90431904Y-92187221D01*
X90527142Y-92139602D01*
X90574761Y-92091983D01*
X90622380Y-91996745D01*
X90622380Y-91901507D01*
X90574761Y-91806269D01*
X90527142Y-91758650D01*
X90431904Y-91711031D01*
X90241428Y-91663412D01*
X90003333Y-91663412D01*
X89812857Y-91711031D01*
X89717619Y-91758650D01*
X89670000Y-91806269D01*
X89622380Y-91901507D01*
%TO.C,R109*%
X69185119Y-42362380D02*
X69518452Y-41886190D01*
X69756547Y-42362380D02*
X69756547Y-41362380D01*
X69375595Y-41362380D01*
X69280357Y-41410000D01*
X69232738Y-41457619D01*
X69185119Y-41552857D01*
X69185119Y-41695714D01*
X69232738Y-41790952D01*
X69280357Y-41838571D01*
X69375595Y-41886190D01*
X69756547Y-41886190D01*
X68232738Y-42362380D02*
X68804166Y-42362380D01*
X68518452Y-42362380D02*
X68518452Y-41362380D01*
X68613690Y-41505238D01*
X68708928Y-41600476D01*
X68804166Y-41648095D01*
X67613690Y-41362380D02*
X67518452Y-41362380D01*
X67423214Y-41410000D01*
X67375595Y-41457619D01*
X67327976Y-41552857D01*
X67280357Y-41743333D01*
X67280357Y-41981428D01*
X67327976Y-42171904D01*
X67375595Y-42267142D01*
X67423214Y-42314761D01*
X67518452Y-42362380D01*
X67613690Y-42362380D01*
X67708928Y-42314761D01*
X67756547Y-42267142D01*
X67804166Y-42171904D01*
X67851785Y-41981428D01*
X67851785Y-41743333D01*
X67804166Y-41552857D01*
X67756547Y-41457619D01*
X67708928Y-41410000D01*
X67613690Y-41362380D01*
X66804166Y-42362380D02*
X66613690Y-42362380D01*
X66518452Y-42314761D01*
X66470833Y-42267142D01*
X66375595Y-42124285D01*
X66327976Y-41933809D01*
X66327976Y-41552857D01*
X66375595Y-41457619D01*
X66423214Y-41410000D01*
X66518452Y-41362380D01*
X66708928Y-41362380D01*
X66804166Y-41410000D01*
X66851785Y-41457619D01*
X66899404Y-41552857D01*
X66899404Y-41790952D01*
X66851785Y-41886190D01*
X66804166Y-41933809D01*
X66708928Y-41981428D01*
X66518452Y-41981428D01*
X66423214Y-41933809D01*
X66375595Y-41886190D01*
X66327976Y-41790952D01*
%TO.C,R2*%
X158822380Y-63333333D02*
X158346190Y-63000000D01*
X158822380Y-62761904D02*
X157822380Y-62761904D01*
X157822380Y-63142857D01*
X157870000Y-63238095D01*
X157917619Y-63285714D01*
X158012857Y-63333333D01*
X158155714Y-63333333D01*
X158250952Y-63285714D01*
X158298571Y-63238095D01*
X158346190Y-63142857D01*
X158346190Y-62761904D01*
X157917619Y-63714285D02*
X157870000Y-63761904D01*
X157822380Y-63857142D01*
X157822380Y-64095238D01*
X157870000Y-64190476D01*
X157917619Y-64238095D01*
X158012857Y-64285714D01*
X158108095Y-64285714D01*
X158250952Y-64238095D01*
X158822380Y-63666666D01*
X158822380Y-64285714D01*
%TO.C,R61*%
X93062380Y-92067142D02*
X92586190Y-91733809D01*
X93062380Y-91495714D02*
X92062380Y-91495714D01*
X92062380Y-91876666D01*
X92110000Y-91971904D01*
X92157619Y-92019523D01*
X92252857Y-92067142D01*
X92395714Y-92067142D01*
X92490952Y-92019523D01*
X92538571Y-91971904D01*
X92586190Y-91876666D01*
X92586190Y-91495714D01*
X92062380Y-92924285D02*
X92062380Y-92733809D01*
X92110000Y-92638571D01*
X92157619Y-92590952D01*
X92300476Y-92495714D01*
X92490952Y-92448095D01*
X92871904Y-92448095D01*
X92967142Y-92495714D01*
X93014761Y-92543333D01*
X93062380Y-92638571D01*
X93062380Y-92829047D01*
X93014761Y-92924285D01*
X92967142Y-92971904D01*
X92871904Y-93019523D01*
X92633809Y-93019523D01*
X92538571Y-92971904D01*
X92490952Y-92924285D01*
X92443333Y-92829047D01*
X92443333Y-92638571D01*
X92490952Y-92543333D01*
X92538571Y-92495714D01*
X92633809Y-92448095D01*
X93062380Y-93971904D02*
X93062380Y-93400476D01*
X93062380Y-93686190D02*
X92062380Y-93686190D01*
X92205238Y-93590952D01*
X92300476Y-93495714D01*
X92348095Y-93400476D01*
%TO.C,R43*%
X67952857Y-85542380D02*
X68286190Y-85066190D01*
X68524285Y-85542380D02*
X68524285Y-84542380D01*
X68143333Y-84542380D01*
X68048095Y-84590000D01*
X68000476Y-84637619D01*
X67952857Y-84732857D01*
X67952857Y-84875714D01*
X68000476Y-84970952D01*
X68048095Y-85018571D01*
X68143333Y-85066190D01*
X68524285Y-85066190D01*
X67095714Y-84875714D02*
X67095714Y-85542380D01*
X67333809Y-84494761D02*
X67571904Y-85209047D01*
X66952857Y-85209047D01*
X66667142Y-84542380D02*
X66048095Y-84542380D01*
X66381428Y-84923333D01*
X66238571Y-84923333D01*
X66143333Y-84970952D01*
X66095714Y-85018571D01*
X66048095Y-85113809D01*
X66048095Y-85351904D01*
X66095714Y-85447142D01*
X66143333Y-85494761D01*
X66238571Y-85542380D01*
X66524285Y-85542380D01*
X66619523Y-85494761D01*
X66667142Y-85447142D01*
%TO.C,U5*%
X83311904Y-129192380D02*
X83311904Y-130001904D01*
X83264285Y-130097142D01*
X83216666Y-130144761D01*
X83121428Y-130192380D01*
X82930952Y-130192380D01*
X82835714Y-130144761D01*
X82788095Y-130097142D01*
X82740476Y-130001904D01*
X82740476Y-129192380D01*
X81788095Y-129192380D02*
X82264285Y-129192380D01*
X82311904Y-129668571D01*
X82264285Y-129620952D01*
X82169047Y-129573333D01*
X81930952Y-129573333D01*
X81835714Y-129620952D01*
X81788095Y-129668571D01*
X81740476Y-129763809D01*
X81740476Y-130001904D01*
X81788095Y-130097142D01*
X81835714Y-130144761D01*
X81930952Y-130192380D01*
X82169047Y-130192380D01*
X82264285Y-130144761D01*
X82311904Y-130097142D01*
%TO.C,D2*%
X97258095Y-34832380D02*
X97258095Y-33832380D01*
X97020000Y-33832380D01*
X96877142Y-33880000D01*
X96781904Y-33975238D01*
X96734285Y-34070476D01*
X96686666Y-34260952D01*
X96686666Y-34403809D01*
X96734285Y-34594285D01*
X96781904Y-34689523D01*
X96877142Y-34784761D01*
X97020000Y-34832380D01*
X97258095Y-34832380D01*
X96305714Y-33927619D02*
X96258095Y-33880000D01*
X96162857Y-33832380D01*
X95924761Y-33832380D01*
X95829523Y-33880000D01*
X95781904Y-33927619D01*
X95734285Y-34022857D01*
X95734285Y-34118095D01*
X95781904Y-34260952D01*
X96353333Y-34832380D01*
X95734285Y-34832380D01*
%TO.C,R96*%
X80652857Y-79092380D02*
X80986190Y-78616190D01*
X81224285Y-79092380D02*
X81224285Y-78092380D01*
X80843333Y-78092380D01*
X80748095Y-78140000D01*
X80700476Y-78187619D01*
X80652857Y-78282857D01*
X80652857Y-78425714D01*
X80700476Y-78520952D01*
X80748095Y-78568571D01*
X80843333Y-78616190D01*
X81224285Y-78616190D01*
X80176666Y-79092380D02*
X79986190Y-79092380D01*
X79890952Y-79044761D01*
X79843333Y-78997142D01*
X79748095Y-78854285D01*
X79700476Y-78663809D01*
X79700476Y-78282857D01*
X79748095Y-78187619D01*
X79795714Y-78140000D01*
X79890952Y-78092380D01*
X80081428Y-78092380D01*
X80176666Y-78140000D01*
X80224285Y-78187619D01*
X80271904Y-78282857D01*
X80271904Y-78520952D01*
X80224285Y-78616190D01*
X80176666Y-78663809D01*
X80081428Y-78711428D01*
X79890952Y-78711428D01*
X79795714Y-78663809D01*
X79748095Y-78616190D01*
X79700476Y-78520952D01*
X78843333Y-78092380D02*
X79033809Y-78092380D01*
X79129047Y-78140000D01*
X79176666Y-78187619D01*
X79271904Y-78330476D01*
X79319523Y-78520952D01*
X79319523Y-78901904D01*
X79271904Y-78997142D01*
X79224285Y-79044761D01*
X79129047Y-79092380D01*
X78938571Y-79092380D01*
X78843333Y-79044761D01*
X78795714Y-78997142D01*
X78748095Y-78901904D01*
X78748095Y-78663809D01*
X78795714Y-78568571D01*
X78843333Y-78520952D01*
X78938571Y-78473333D01*
X79129047Y-78473333D01*
X79224285Y-78520952D01*
X79271904Y-78568571D01*
X79319523Y-78663809D01*
%TO.C,R15*%
X67952857Y-136342380D02*
X68286190Y-135866190D01*
X68524285Y-136342380D02*
X68524285Y-135342380D01*
X68143333Y-135342380D01*
X68048095Y-135390000D01*
X68000476Y-135437619D01*
X67952857Y-135532857D01*
X67952857Y-135675714D01*
X68000476Y-135770952D01*
X68048095Y-135818571D01*
X68143333Y-135866190D01*
X68524285Y-135866190D01*
X67000476Y-136342380D02*
X67571904Y-136342380D01*
X67286190Y-136342380D02*
X67286190Y-135342380D01*
X67381428Y-135485238D01*
X67476666Y-135580476D01*
X67571904Y-135628095D01*
X66095714Y-135342380D02*
X66571904Y-135342380D01*
X66619523Y-135818571D01*
X66571904Y-135770952D01*
X66476666Y-135723333D01*
X66238571Y-135723333D01*
X66143333Y-135770952D01*
X66095714Y-135818571D01*
X66048095Y-135913809D01*
X66048095Y-136151904D01*
X66095714Y-136247142D01*
X66143333Y-136294761D01*
X66238571Y-136342380D01*
X66476666Y-136342380D01*
X66571904Y-136294761D01*
X66619523Y-136247142D01*
%TO.C,R99*%
X90522380Y-66042677D02*
X90046190Y-65709344D01*
X90522380Y-65471249D02*
X89522380Y-65471249D01*
X89522380Y-65852201D01*
X89570000Y-65947439D01*
X89617619Y-65995058D01*
X89712857Y-66042677D01*
X89855714Y-66042677D01*
X89950952Y-65995058D01*
X89998571Y-65947439D01*
X90046190Y-65852201D01*
X90046190Y-65471249D01*
X90522380Y-66518868D02*
X90522380Y-66709344D01*
X90474761Y-66804582D01*
X90427142Y-66852201D01*
X90284285Y-66947439D01*
X90093809Y-66995058D01*
X89712857Y-66995058D01*
X89617619Y-66947439D01*
X89570000Y-66899820D01*
X89522380Y-66804582D01*
X89522380Y-66614106D01*
X89570000Y-66518868D01*
X89617619Y-66471249D01*
X89712857Y-66423630D01*
X89950952Y-66423630D01*
X90046190Y-66471249D01*
X90093809Y-66518868D01*
X90141428Y-66614106D01*
X90141428Y-66804582D01*
X90093809Y-66899820D01*
X90046190Y-66947439D01*
X89950952Y-66995058D01*
X90522380Y-67471249D02*
X90522380Y-67661725D01*
X90474761Y-67756963D01*
X90427142Y-67804582D01*
X90284285Y-67899820D01*
X90093809Y-67947439D01*
X89712857Y-67947439D01*
X89617619Y-67899820D01*
X89570000Y-67852201D01*
X89522380Y-67756963D01*
X89522380Y-67566487D01*
X89570000Y-67471249D01*
X89617619Y-67423630D01*
X89712857Y-67376011D01*
X89950952Y-67376011D01*
X90046190Y-67423630D01*
X90093809Y-67471249D01*
X90141428Y-67566487D01*
X90141428Y-67756963D01*
X90093809Y-67852201D01*
X90046190Y-67899820D01*
X89950952Y-67947439D01*
%TO.C,R49*%
X67952857Y-100782380D02*
X68286190Y-100306190D01*
X68524285Y-100782380D02*
X68524285Y-99782380D01*
X68143333Y-99782380D01*
X68048095Y-99830000D01*
X68000476Y-99877619D01*
X67952857Y-99972857D01*
X67952857Y-100115714D01*
X68000476Y-100210952D01*
X68048095Y-100258571D01*
X68143333Y-100306190D01*
X68524285Y-100306190D01*
X67095714Y-100115714D02*
X67095714Y-100782380D01*
X67333809Y-99734761D02*
X67571904Y-100449047D01*
X66952857Y-100449047D01*
X66524285Y-100782380D02*
X66333809Y-100782380D01*
X66238571Y-100734761D01*
X66190952Y-100687142D01*
X66095714Y-100544285D01*
X66048095Y-100353809D01*
X66048095Y-99972857D01*
X66095714Y-99877619D01*
X66143333Y-99830000D01*
X66238571Y-99782380D01*
X66429047Y-99782380D01*
X66524285Y-99830000D01*
X66571904Y-99877619D01*
X66619523Y-99972857D01*
X66619523Y-100210952D01*
X66571904Y-100306190D01*
X66524285Y-100353809D01*
X66429047Y-100401428D01*
X66238571Y-100401428D01*
X66143333Y-100353809D01*
X66095714Y-100306190D01*
X66048095Y-100210952D01*
%TO.C,C11*%
X115067142Y-47617142D02*
X115114761Y-47569523D01*
X115162380Y-47426666D01*
X115162380Y-47331428D01*
X115114761Y-47188571D01*
X115019523Y-47093333D01*
X114924285Y-47045714D01*
X114733809Y-46998095D01*
X114590952Y-46998095D01*
X114400476Y-47045714D01*
X114305238Y-47093333D01*
X114210000Y-47188571D01*
X114162380Y-47331428D01*
X114162380Y-47426666D01*
X114210000Y-47569523D01*
X114257619Y-47617142D01*
X115162380Y-48569523D02*
X115162380Y-47998095D01*
X115162380Y-48283809D02*
X114162380Y-48283809D01*
X114305238Y-48188571D01*
X114400476Y-48093333D01*
X114448095Y-47998095D01*
X115162380Y-49521904D02*
X115162380Y-48950476D01*
X115162380Y-49236190D02*
X114162380Y-49236190D01*
X114305238Y-49140952D01*
X114400476Y-49045714D01*
X114448095Y-48950476D01*
%TO.C,R26*%
X70492857Y-122372380D02*
X70826190Y-121896190D01*
X71064285Y-122372380D02*
X71064285Y-121372380D01*
X70683333Y-121372380D01*
X70588095Y-121420000D01*
X70540476Y-121467619D01*
X70492857Y-121562857D01*
X70492857Y-121705714D01*
X70540476Y-121800952D01*
X70588095Y-121848571D01*
X70683333Y-121896190D01*
X71064285Y-121896190D01*
X70111904Y-121467619D02*
X70064285Y-121420000D01*
X69969047Y-121372380D01*
X69730952Y-121372380D01*
X69635714Y-121420000D01*
X69588095Y-121467619D01*
X69540476Y-121562857D01*
X69540476Y-121658095D01*
X69588095Y-121800952D01*
X70159523Y-122372380D01*
X69540476Y-122372380D01*
X68683333Y-121372380D02*
X68873809Y-121372380D01*
X68969047Y-121420000D01*
X69016666Y-121467619D01*
X69111904Y-121610476D01*
X69159523Y-121800952D01*
X69159523Y-122181904D01*
X69111904Y-122277142D01*
X69064285Y-122324761D01*
X68969047Y-122372380D01*
X68778571Y-122372380D01*
X68683333Y-122324761D01*
X68635714Y-122277142D01*
X68588095Y-122181904D01*
X68588095Y-121943809D01*
X68635714Y-121848571D01*
X68683333Y-121800952D01*
X68778571Y-121753333D01*
X68969047Y-121753333D01*
X69064285Y-121800952D01*
X69111904Y-121848571D01*
X69159523Y-121943809D01*
%TO.C,R124*%
X88182380Y-33798392D02*
X87706190Y-33465059D01*
X88182380Y-33226963D02*
X87182380Y-33226963D01*
X87182380Y-33607916D01*
X87230000Y-33703154D01*
X87277619Y-33750773D01*
X87372857Y-33798392D01*
X87515714Y-33798392D01*
X87610952Y-33750773D01*
X87658571Y-33703154D01*
X87706190Y-33607916D01*
X87706190Y-33226963D01*
X88182380Y-34750773D02*
X88182380Y-34179344D01*
X88182380Y-34465059D02*
X87182380Y-34465059D01*
X87325238Y-34369820D01*
X87420476Y-34274582D01*
X87468095Y-34179344D01*
X87277619Y-35131725D02*
X87230000Y-35179344D01*
X87182380Y-35274582D01*
X87182380Y-35512678D01*
X87230000Y-35607916D01*
X87277619Y-35655535D01*
X87372857Y-35703154D01*
X87468095Y-35703154D01*
X87610952Y-35655535D01*
X88182380Y-35084106D01*
X88182380Y-35703154D01*
X87515714Y-36560297D02*
X88182380Y-36560297D01*
X87134761Y-36322201D02*
X87849047Y-36084106D01*
X87849047Y-36703154D01*
%TO.C,R90*%
X93352857Y-62582380D02*
X93686190Y-62106190D01*
X93924285Y-62582380D02*
X93924285Y-61582380D01*
X93543333Y-61582380D01*
X93448095Y-61630000D01*
X93400476Y-61677619D01*
X93352857Y-61772857D01*
X93352857Y-61915714D01*
X93400476Y-62010952D01*
X93448095Y-62058571D01*
X93543333Y-62106190D01*
X93924285Y-62106190D01*
X92876666Y-62582380D02*
X92686190Y-62582380D01*
X92590952Y-62534761D01*
X92543333Y-62487142D01*
X92448095Y-62344285D01*
X92400476Y-62153809D01*
X92400476Y-61772857D01*
X92448095Y-61677619D01*
X92495714Y-61630000D01*
X92590952Y-61582380D01*
X92781428Y-61582380D01*
X92876666Y-61630000D01*
X92924285Y-61677619D01*
X92971904Y-61772857D01*
X92971904Y-62010952D01*
X92924285Y-62106190D01*
X92876666Y-62153809D01*
X92781428Y-62201428D01*
X92590952Y-62201428D01*
X92495714Y-62153809D01*
X92448095Y-62106190D01*
X92400476Y-62010952D01*
X91781428Y-61582380D02*
X91686190Y-61582380D01*
X91590952Y-61630000D01*
X91543333Y-61677619D01*
X91495714Y-61772857D01*
X91448095Y-61963333D01*
X91448095Y-62201428D01*
X91495714Y-62391904D01*
X91543333Y-62487142D01*
X91590952Y-62534761D01*
X91686190Y-62582380D01*
X91781428Y-62582380D01*
X91876666Y-62534761D01*
X91924285Y-62487142D01*
X91971904Y-62391904D01*
X92019523Y-62201428D01*
X92019523Y-61963333D01*
X91971904Y-61772857D01*
X91924285Y-61677619D01*
X91876666Y-61630000D01*
X91781428Y-61582380D01*
%TO.C,R78*%
X67952857Y-65222380D02*
X68286190Y-64746190D01*
X68524285Y-65222380D02*
X68524285Y-64222380D01*
X68143333Y-64222380D01*
X68048095Y-64270000D01*
X68000476Y-64317619D01*
X67952857Y-64412857D01*
X67952857Y-64555714D01*
X68000476Y-64650952D01*
X68048095Y-64698571D01*
X68143333Y-64746190D01*
X68524285Y-64746190D01*
X67619523Y-64222380D02*
X66952857Y-64222380D01*
X67381428Y-65222380D01*
X66429047Y-64650952D02*
X66524285Y-64603333D01*
X66571904Y-64555714D01*
X66619523Y-64460476D01*
X66619523Y-64412857D01*
X66571904Y-64317619D01*
X66524285Y-64270000D01*
X66429047Y-64222380D01*
X66238571Y-64222380D01*
X66143333Y-64270000D01*
X66095714Y-64317619D01*
X66048095Y-64412857D01*
X66048095Y-64460476D01*
X66095714Y-64555714D01*
X66143333Y-64603333D01*
X66238571Y-64650952D01*
X66429047Y-64650952D01*
X66524285Y-64698571D01*
X66571904Y-64746190D01*
X66619523Y-64841428D01*
X66619523Y-65031904D01*
X66571904Y-65127142D01*
X66524285Y-65174761D01*
X66429047Y-65222380D01*
X66238571Y-65222380D01*
X66143333Y-65174761D01*
X66095714Y-65127142D01*
X66048095Y-65031904D01*
X66048095Y-64841428D01*
X66095714Y-64746190D01*
X66143333Y-64698571D01*
X66238571Y-64650952D01*
%TO.C,R101*%
X78589047Y-56432380D02*
X78922380Y-55956190D01*
X79160476Y-56432380D02*
X79160476Y-55432380D01*
X78779523Y-55432380D01*
X78684285Y-55480000D01*
X78636666Y-55527619D01*
X78589047Y-55622857D01*
X78589047Y-55765714D01*
X78636666Y-55860952D01*
X78684285Y-55908571D01*
X78779523Y-55956190D01*
X79160476Y-55956190D01*
X77636666Y-56432380D02*
X78208095Y-56432380D01*
X77922380Y-56432380D02*
X77922380Y-55432380D01*
X78017619Y-55575238D01*
X78112857Y-55670476D01*
X78208095Y-55718095D01*
X77017619Y-55432380D02*
X76922380Y-55432380D01*
X76827142Y-55480000D01*
X76779523Y-55527619D01*
X76731904Y-55622857D01*
X76684285Y-55813333D01*
X76684285Y-56051428D01*
X76731904Y-56241904D01*
X76779523Y-56337142D01*
X76827142Y-56384761D01*
X76922380Y-56432380D01*
X77017619Y-56432380D01*
X77112857Y-56384761D01*
X77160476Y-56337142D01*
X77208095Y-56241904D01*
X77255714Y-56051428D01*
X77255714Y-55813333D01*
X77208095Y-55622857D01*
X77160476Y-55527619D01*
X77112857Y-55480000D01*
X77017619Y-55432380D01*
X75731904Y-56432380D02*
X76303333Y-56432380D01*
X76017619Y-56432380D02*
X76017619Y-55432380D01*
X76112857Y-55575238D01*
X76208095Y-55670476D01*
X76303333Y-55718095D01*
%TO.C,R14*%
X67952857Y-133802380D02*
X68286190Y-133326190D01*
X68524285Y-133802380D02*
X68524285Y-132802380D01*
X68143333Y-132802380D01*
X68048095Y-132850000D01*
X68000476Y-132897619D01*
X67952857Y-132992857D01*
X67952857Y-133135714D01*
X68000476Y-133230952D01*
X68048095Y-133278571D01*
X68143333Y-133326190D01*
X68524285Y-133326190D01*
X67000476Y-133802380D02*
X67571904Y-133802380D01*
X67286190Y-133802380D02*
X67286190Y-132802380D01*
X67381428Y-132945238D01*
X67476666Y-133040476D01*
X67571904Y-133088095D01*
X66143333Y-133135714D02*
X66143333Y-133802380D01*
X66381428Y-132754761D02*
X66619523Y-133469047D01*
X66000476Y-133469047D01*
%TO.C,R6*%
X111322380Y-48093333D02*
X110846190Y-47760000D01*
X111322380Y-47521904D02*
X110322380Y-47521904D01*
X110322380Y-47902857D01*
X110370000Y-47998095D01*
X110417619Y-48045714D01*
X110512857Y-48093333D01*
X110655714Y-48093333D01*
X110750952Y-48045714D01*
X110798571Y-47998095D01*
X110846190Y-47902857D01*
X110846190Y-47521904D01*
X110322380Y-48950476D02*
X110322380Y-48760000D01*
X110370000Y-48664761D01*
X110417619Y-48617142D01*
X110560476Y-48521904D01*
X110750952Y-48474285D01*
X111131904Y-48474285D01*
X111227142Y-48521904D01*
X111274761Y-48569523D01*
X111322380Y-48664761D01*
X111322380Y-48855238D01*
X111274761Y-48950476D01*
X111227142Y-48998095D01*
X111131904Y-49045714D01*
X110893809Y-49045714D01*
X110798571Y-48998095D01*
X110750952Y-48950476D01*
X110703333Y-48855238D01*
X110703333Y-48664761D01*
X110750952Y-48569523D01*
X110798571Y-48521904D01*
X110893809Y-48474285D01*
%TO.C,R59*%
X71762857Y-90722380D02*
X72096190Y-90246190D01*
X72334285Y-90722380D02*
X72334285Y-89722380D01*
X71953333Y-89722380D01*
X71858095Y-89770000D01*
X71810476Y-89817619D01*
X71762857Y-89912857D01*
X71762857Y-90055714D01*
X71810476Y-90150952D01*
X71858095Y-90198571D01*
X71953333Y-90246190D01*
X72334285Y-90246190D01*
X70858095Y-89722380D02*
X71334285Y-89722380D01*
X71381904Y-90198571D01*
X71334285Y-90150952D01*
X71239047Y-90103333D01*
X71000952Y-90103333D01*
X70905714Y-90150952D01*
X70858095Y-90198571D01*
X70810476Y-90293809D01*
X70810476Y-90531904D01*
X70858095Y-90627142D01*
X70905714Y-90674761D01*
X71000952Y-90722380D01*
X71239047Y-90722380D01*
X71334285Y-90674761D01*
X71381904Y-90627142D01*
X70334285Y-90722380D02*
X70143809Y-90722380D01*
X70048571Y-90674761D01*
X70000952Y-90627142D01*
X69905714Y-90484285D01*
X69858095Y-90293809D01*
X69858095Y-89912857D01*
X69905714Y-89817619D01*
X69953333Y-89770000D01*
X70048571Y-89722380D01*
X70239047Y-89722380D01*
X70334285Y-89770000D01*
X70381904Y-89817619D01*
X70429523Y-89912857D01*
X70429523Y-90150952D01*
X70381904Y-90246190D01*
X70334285Y-90293809D01*
X70239047Y-90341428D01*
X70048571Y-90341428D01*
X69953333Y-90293809D01*
X69905714Y-90246190D01*
X69858095Y-90150952D01*
%TO.C,C13*%
X86770357Y-115414483D02*
X86817976Y-115462102D01*
X86960833Y-115509721D01*
X87056071Y-115509721D01*
X87198928Y-115462102D01*
X87294166Y-115366864D01*
X87341785Y-115271626D01*
X87389404Y-115081150D01*
X87389404Y-114938293D01*
X87341785Y-114747817D01*
X87294166Y-114652579D01*
X87198928Y-114557341D01*
X87056071Y-114509721D01*
X86960833Y-114509721D01*
X86817976Y-114557341D01*
X86770357Y-114604960D01*
X85817976Y-115509721D02*
X86389404Y-115509721D01*
X86103690Y-115509721D02*
X86103690Y-114509721D01*
X86198928Y-114652579D01*
X86294166Y-114747817D01*
X86389404Y-114795436D01*
X85484642Y-114509721D02*
X84865595Y-114509721D01*
X85198928Y-114890674D01*
X85056071Y-114890674D01*
X84960833Y-114938293D01*
X84913214Y-114985912D01*
X84865595Y-115081150D01*
X84865595Y-115319245D01*
X84913214Y-115414483D01*
X84960833Y-115462102D01*
X85056071Y-115509721D01*
X85341785Y-115509721D01*
X85437023Y-115462102D01*
X85484642Y-115414483D01*
%TO.C,R46*%
X67952857Y-93162380D02*
X68286190Y-92686190D01*
X68524285Y-93162380D02*
X68524285Y-92162380D01*
X68143333Y-92162380D01*
X68048095Y-92210000D01*
X68000476Y-92257619D01*
X67952857Y-92352857D01*
X67952857Y-92495714D01*
X68000476Y-92590952D01*
X68048095Y-92638571D01*
X68143333Y-92686190D01*
X68524285Y-92686190D01*
X67095714Y-92495714D02*
X67095714Y-93162380D01*
X67333809Y-92114761D02*
X67571904Y-92829047D01*
X66952857Y-92829047D01*
X66143333Y-92162380D02*
X66333809Y-92162380D01*
X66429047Y-92210000D01*
X66476666Y-92257619D01*
X66571904Y-92400476D01*
X66619523Y-92590952D01*
X66619523Y-92971904D01*
X66571904Y-93067142D01*
X66524285Y-93114761D01*
X66429047Y-93162380D01*
X66238571Y-93162380D01*
X66143333Y-93114761D01*
X66095714Y-93067142D01*
X66048095Y-92971904D01*
X66048095Y-92733809D01*
X66095714Y-92638571D01*
X66143333Y-92590952D01*
X66238571Y-92543333D01*
X66429047Y-92543333D01*
X66524285Y-92590952D01*
X66571904Y-92638571D01*
X66619523Y-92733809D01*
%TO.C,R29*%
X90812857Y-124912380D02*
X91146190Y-124436190D01*
X91384285Y-124912380D02*
X91384285Y-123912380D01*
X91003333Y-123912380D01*
X90908095Y-123960000D01*
X90860476Y-124007619D01*
X90812857Y-124102857D01*
X90812857Y-124245714D01*
X90860476Y-124340952D01*
X90908095Y-124388571D01*
X91003333Y-124436190D01*
X91384285Y-124436190D01*
X90431904Y-124007619D02*
X90384285Y-123960000D01*
X90289047Y-123912380D01*
X90050952Y-123912380D01*
X89955714Y-123960000D01*
X89908095Y-124007619D01*
X89860476Y-124102857D01*
X89860476Y-124198095D01*
X89908095Y-124340952D01*
X90479523Y-124912380D01*
X89860476Y-124912380D01*
X89384285Y-124912380D02*
X89193809Y-124912380D01*
X89098571Y-124864761D01*
X89050952Y-124817142D01*
X88955714Y-124674285D01*
X88908095Y-124483809D01*
X88908095Y-124102857D01*
X88955714Y-124007619D01*
X89003333Y-123960000D01*
X89098571Y-123912380D01*
X89289047Y-123912380D01*
X89384285Y-123960000D01*
X89431904Y-124007619D01*
X89479523Y-124102857D01*
X89479523Y-124340952D01*
X89431904Y-124436190D01*
X89384285Y-124483809D01*
X89289047Y-124531428D01*
X89098571Y-124531428D01*
X89003333Y-124483809D01*
X88955714Y-124436190D01*
X88908095Y-124340952D01*
%TO.C,R35*%
X76842857Y-121102380D02*
X77176190Y-120626190D01*
X77414285Y-121102380D02*
X77414285Y-120102380D01*
X77033333Y-120102380D01*
X76938095Y-120150000D01*
X76890476Y-120197619D01*
X76842857Y-120292857D01*
X76842857Y-120435714D01*
X76890476Y-120530952D01*
X76938095Y-120578571D01*
X77033333Y-120626190D01*
X77414285Y-120626190D01*
X76509523Y-120102380D02*
X75890476Y-120102380D01*
X76223809Y-120483333D01*
X76080952Y-120483333D01*
X75985714Y-120530952D01*
X75938095Y-120578571D01*
X75890476Y-120673809D01*
X75890476Y-120911904D01*
X75938095Y-121007142D01*
X75985714Y-121054761D01*
X76080952Y-121102380D01*
X76366666Y-121102380D01*
X76461904Y-121054761D01*
X76509523Y-121007142D01*
X74985714Y-120102380D02*
X75461904Y-120102380D01*
X75509523Y-120578571D01*
X75461904Y-120530952D01*
X75366666Y-120483333D01*
X75128571Y-120483333D01*
X75033333Y-120530952D01*
X74985714Y-120578571D01*
X74938095Y-120673809D01*
X74938095Y-120911904D01*
X74985714Y-121007142D01*
X75033333Y-121054761D01*
X75128571Y-121102380D01*
X75366666Y-121102380D01*
X75461904Y-121054761D01*
X75509523Y-121007142D01*
%TO.C,R11*%
X67952857Y-126182380D02*
X68286190Y-125706190D01*
X68524285Y-126182380D02*
X68524285Y-125182380D01*
X68143333Y-125182380D01*
X68048095Y-125230000D01*
X68000476Y-125277619D01*
X67952857Y-125372857D01*
X67952857Y-125515714D01*
X68000476Y-125610952D01*
X68048095Y-125658571D01*
X68143333Y-125706190D01*
X68524285Y-125706190D01*
X67000476Y-126182380D02*
X67571904Y-126182380D01*
X67286190Y-126182380D02*
X67286190Y-125182380D01*
X67381428Y-125325238D01*
X67476666Y-125420476D01*
X67571904Y-125468095D01*
X66048095Y-126182380D02*
X66619523Y-126182380D01*
X66333809Y-126182380D02*
X66333809Y-125182380D01*
X66429047Y-125325238D01*
X66524285Y-125420476D01*
X66619523Y-125468095D01*
%TO.C,R47*%
X67952857Y-95702380D02*
X68286190Y-95226190D01*
X68524285Y-95702380D02*
X68524285Y-94702380D01*
X68143333Y-94702380D01*
X68048095Y-94750000D01*
X68000476Y-94797619D01*
X67952857Y-94892857D01*
X67952857Y-95035714D01*
X68000476Y-95130952D01*
X68048095Y-95178571D01*
X68143333Y-95226190D01*
X68524285Y-95226190D01*
X67095714Y-95035714D02*
X67095714Y-95702380D01*
X67333809Y-94654761D02*
X67571904Y-95369047D01*
X66952857Y-95369047D01*
X66667142Y-94702380D02*
X66000476Y-94702380D01*
X66429047Y-95702380D01*
%TO.C,C9*%
X125896666Y-52427142D02*
X125944285Y-52474761D01*
X126087142Y-52522380D01*
X126182380Y-52522380D01*
X126325238Y-52474761D01*
X126420476Y-52379523D01*
X126468095Y-52284285D01*
X126515714Y-52093809D01*
X126515714Y-51950952D01*
X126468095Y-51760476D01*
X126420476Y-51665238D01*
X126325238Y-51570000D01*
X126182380Y-51522380D01*
X126087142Y-51522380D01*
X125944285Y-51570000D01*
X125896666Y-51617619D01*
X125420476Y-52522380D02*
X125230000Y-52522380D01*
X125134761Y-52474761D01*
X125087142Y-52427142D01*
X124991904Y-52284285D01*
X124944285Y-52093809D01*
X124944285Y-51712857D01*
X124991904Y-51617619D01*
X125039523Y-51570000D01*
X125134761Y-51522380D01*
X125325238Y-51522380D01*
X125420476Y-51570000D01*
X125468095Y-51617619D01*
X125515714Y-51712857D01*
X125515714Y-51950952D01*
X125468095Y-52046190D01*
X125420476Y-52093809D01*
X125325238Y-52141428D01*
X125134761Y-52141428D01*
X125039523Y-52093809D01*
X124991904Y-52046190D01*
X124944285Y-51950952D01*
%TO.C,R34*%
X76330054Y-128046791D02*
X76663387Y-127570601D01*
X76901482Y-128046791D02*
X76901482Y-127046791D01*
X76520530Y-127046791D01*
X76425292Y-127094411D01*
X76377673Y-127142030D01*
X76330054Y-127237268D01*
X76330054Y-127380125D01*
X76377673Y-127475363D01*
X76425292Y-127522982D01*
X76520530Y-127570601D01*
X76901482Y-127570601D01*
X75996720Y-127046791D02*
X75377673Y-127046791D01*
X75711006Y-127427744D01*
X75568149Y-127427744D01*
X75472911Y-127475363D01*
X75425292Y-127522982D01*
X75377673Y-127618220D01*
X75377673Y-127856315D01*
X75425292Y-127951553D01*
X75472911Y-127999172D01*
X75568149Y-128046791D01*
X75853863Y-128046791D01*
X75949101Y-127999172D01*
X75996720Y-127951553D01*
X74520530Y-127380125D02*
X74520530Y-128046791D01*
X74758625Y-126999172D02*
X74996720Y-127713458D01*
X74377673Y-127713458D01*
%TO.C,R107*%
X69185119Y-37282380D02*
X69518452Y-36806190D01*
X69756547Y-37282380D02*
X69756547Y-36282380D01*
X69375595Y-36282380D01*
X69280357Y-36330000D01*
X69232738Y-36377619D01*
X69185119Y-36472857D01*
X69185119Y-36615714D01*
X69232738Y-36710952D01*
X69280357Y-36758571D01*
X69375595Y-36806190D01*
X69756547Y-36806190D01*
X68232738Y-37282380D02*
X68804166Y-37282380D01*
X68518452Y-37282380D02*
X68518452Y-36282380D01*
X68613690Y-36425238D01*
X68708928Y-36520476D01*
X68804166Y-36568095D01*
X67613690Y-36282380D02*
X67518452Y-36282380D01*
X67423214Y-36330000D01*
X67375595Y-36377619D01*
X67327976Y-36472857D01*
X67280357Y-36663333D01*
X67280357Y-36901428D01*
X67327976Y-37091904D01*
X67375595Y-37187142D01*
X67423214Y-37234761D01*
X67518452Y-37282380D01*
X67613690Y-37282380D01*
X67708928Y-37234761D01*
X67756547Y-37187142D01*
X67804166Y-37091904D01*
X67851785Y-36901428D01*
X67851785Y-36663333D01*
X67804166Y-36472857D01*
X67756547Y-36377619D01*
X67708928Y-36330000D01*
X67613690Y-36282380D01*
X66947023Y-36282380D02*
X66280357Y-36282380D01*
X66708928Y-37282380D01*
%TO.C,R76*%
X67952857Y-60142380D02*
X68286190Y-59666190D01*
X68524285Y-60142380D02*
X68524285Y-59142380D01*
X68143333Y-59142380D01*
X68048095Y-59190000D01*
X68000476Y-59237619D01*
X67952857Y-59332857D01*
X67952857Y-59475714D01*
X68000476Y-59570952D01*
X68048095Y-59618571D01*
X68143333Y-59666190D01*
X68524285Y-59666190D01*
X67619523Y-59142380D02*
X66952857Y-59142380D01*
X67381428Y-60142380D01*
X66143333Y-59142380D02*
X66333809Y-59142380D01*
X66429047Y-59190000D01*
X66476666Y-59237619D01*
X66571904Y-59380476D01*
X66619523Y-59570952D01*
X66619523Y-59951904D01*
X66571904Y-60047142D01*
X66524285Y-60094761D01*
X66429047Y-60142380D01*
X66238571Y-60142380D01*
X66143333Y-60094761D01*
X66095714Y-60047142D01*
X66048095Y-59951904D01*
X66048095Y-59713809D01*
X66095714Y-59618571D01*
X66143333Y-59570952D01*
X66238571Y-59523333D01*
X66429047Y-59523333D01*
X66524285Y-59570952D01*
X66571904Y-59618571D01*
X66619523Y-59713809D01*
%TO.C,R3*%
X129706666Y-52522380D02*
X130040000Y-52046190D01*
X130278095Y-52522380D02*
X130278095Y-51522380D01*
X129897142Y-51522380D01*
X129801904Y-51570000D01*
X129754285Y-51617619D01*
X129706666Y-51712857D01*
X129706666Y-51855714D01*
X129754285Y-51950952D01*
X129801904Y-51998571D01*
X129897142Y-52046190D01*
X130278095Y-52046190D01*
X129373333Y-51522380D02*
X128754285Y-51522380D01*
X129087619Y-51903333D01*
X128944761Y-51903333D01*
X128849523Y-51950952D01*
X128801904Y-51998571D01*
X128754285Y-52093809D01*
X128754285Y-52331904D01*
X128801904Y-52427142D01*
X128849523Y-52474761D01*
X128944761Y-52522380D01*
X129230476Y-52522380D01*
X129325714Y-52474761D01*
X129373333Y-52427142D01*
%TO.C,D1*%
X97258095Y-135797380D02*
X97258095Y-134797380D01*
X97020000Y-134797380D01*
X96877142Y-134845000D01*
X96781904Y-134940238D01*
X96734285Y-135035476D01*
X96686666Y-135225952D01*
X96686666Y-135368809D01*
X96734285Y-135559285D01*
X96781904Y-135654523D01*
X96877142Y-135749761D01*
X97020000Y-135797380D01*
X97258095Y-135797380D01*
X95734285Y-135797380D02*
X96305714Y-135797380D01*
X96020000Y-135797380D02*
X96020000Y-134797380D01*
X96115238Y-134940238D01*
X96210476Y-135035476D01*
X96305714Y-135083095D01*
%TO.C,R69*%
X90522380Y-93977969D02*
X90046190Y-93644636D01*
X90522380Y-93406541D02*
X89522380Y-93406541D01*
X89522380Y-93787493D01*
X89570000Y-93882731D01*
X89617619Y-93930350D01*
X89712857Y-93977969D01*
X89855714Y-93977969D01*
X89950952Y-93930350D01*
X89998571Y-93882731D01*
X90046190Y-93787493D01*
X90046190Y-93406541D01*
X89522380Y-94835112D02*
X89522380Y-94644636D01*
X89570000Y-94549398D01*
X89617619Y-94501779D01*
X89760476Y-94406541D01*
X89950952Y-94358922D01*
X90331904Y-94358922D01*
X90427142Y-94406541D01*
X90474761Y-94454160D01*
X90522380Y-94549398D01*
X90522380Y-94739874D01*
X90474761Y-94835112D01*
X90427142Y-94882731D01*
X90331904Y-94930350D01*
X90093809Y-94930350D01*
X89998571Y-94882731D01*
X89950952Y-94835112D01*
X89903333Y-94739874D01*
X89903333Y-94549398D01*
X89950952Y-94454160D01*
X89998571Y-94406541D01*
X90093809Y-94358922D01*
X90522380Y-95406541D02*
X90522380Y-95597017D01*
X90474761Y-95692255D01*
X90427142Y-95739874D01*
X90284285Y-95835112D01*
X90093809Y-95882731D01*
X89712857Y-95882731D01*
X89617619Y-95835112D01*
X89570000Y-95787493D01*
X89522380Y-95692255D01*
X89522380Y-95501779D01*
X89570000Y-95406541D01*
X89617619Y-95358922D01*
X89712857Y-95311303D01*
X89950952Y-95311303D01*
X90046190Y-95358922D01*
X90093809Y-95406541D01*
X90141428Y-95501779D01*
X90141428Y-95692255D01*
X90093809Y-95787493D01*
X90046190Y-95835112D01*
X89950952Y-95882731D01*
%TO.C,R108*%
X69185119Y-39822380D02*
X69518452Y-39346190D01*
X69756547Y-39822380D02*
X69756547Y-38822380D01*
X69375595Y-38822380D01*
X69280357Y-38870000D01*
X69232738Y-38917619D01*
X69185119Y-39012857D01*
X69185119Y-39155714D01*
X69232738Y-39250952D01*
X69280357Y-39298571D01*
X69375595Y-39346190D01*
X69756547Y-39346190D01*
X68232738Y-39822380D02*
X68804166Y-39822380D01*
X68518452Y-39822380D02*
X68518452Y-38822380D01*
X68613690Y-38965238D01*
X68708928Y-39060476D01*
X68804166Y-39108095D01*
X67613690Y-38822380D02*
X67518452Y-38822380D01*
X67423214Y-38870000D01*
X67375595Y-38917619D01*
X67327976Y-39012857D01*
X67280357Y-39203333D01*
X67280357Y-39441428D01*
X67327976Y-39631904D01*
X67375595Y-39727142D01*
X67423214Y-39774761D01*
X67518452Y-39822380D01*
X67613690Y-39822380D01*
X67708928Y-39774761D01*
X67756547Y-39727142D01*
X67804166Y-39631904D01*
X67851785Y-39441428D01*
X67851785Y-39203333D01*
X67804166Y-39012857D01*
X67756547Y-38917619D01*
X67708928Y-38870000D01*
X67613690Y-38822380D01*
X66708928Y-39250952D02*
X66804166Y-39203333D01*
X66851785Y-39155714D01*
X66899404Y-39060476D01*
X66899404Y-39012857D01*
X66851785Y-38917619D01*
X66804166Y-38870000D01*
X66708928Y-38822380D01*
X66518452Y-38822380D01*
X66423214Y-38870000D01*
X66375595Y-38917619D01*
X66327976Y-39012857D01*
X66327976Y-39060476D01*
X66375595Y-39155714D01*
X66423214Y-39203333D01*
X66518452Y-39250952D01*
X66708928Y-39250952D01*
X66804166Y-39298571D01*
X66851785Y-39346190D01*
X66899404Y-39441428D01*
X66899404Y-39631904D01*
X66851785Y-39727142D01*
X66804166Y-39774761D01*
X66708928Y-39822380D01*
X66518452Y-39822380D01*
X66423214Y-39774761D01*
X66375595Y-39727142D01*
X66327976Y-39631904D01*
X66327976Y-39441428D01*
X66375595Y-39346190D01*
X66423214Y-39298571D01*
X66518452Y-39250952D01*
%TO.C,R74*%
X67952857Y-55062380D02*
X68286190Y-54586190D01*
X68524285Y-55062380D02*
X68524285Y-54062380D01*
X68143333Y-54062380D01*
X68048095Y-54110000D01*
X68000476Y-54157619D01*
X67952857Y-54252857D01*
X67952857Y-54395714D01*
X68000476Y-54490952D01*
X68048095Y-54538571D01*
X68143333Y-54586190D01*
X68524285Y-54586190D01*
X67619523Y-54062380D02*
X66952857Y-54062380D01*
X67381428Y-55062380D01*
X66143333Y-54395714D02*
X66143333Y-55062380D01*
X66381428Y-54014761D02*
X66619523Y-54729047D01*
X66000476Y-54729047D01*
D12*
%TO.C,U9*%
X82550000Y-59065000D02*
X80600000Y-59065000D01*
X82550000Y-67935000D02*
X80600000Y-67935000D01*
X82550000Y-67935000D02*
X84500000Y-67935000D01*
X82550000Y-59065000D02*
X86000000Y-59065000D01*
%TO.C,R75*%
X64937621Y-56770000D02*
X64602379Y-56770000D01*
X64937621Y-57530000D02*
X64602379Y-57530000D01*
%TO.C,C7*%
X121185000Y-54348748D02*
X121185000Y-54871252D01*
X122655000Y-54348748D02*
X122655000Y-54871252D01*
%TO.C,R81*%
X64937621Y-72010000D02*
X64602379Y-72010000D01*
X64937621Y-72770000D02*
X64602379Y-72770000D01*
%TO.C,R12*%
X64937621Y-127890000D02*
X64602379Y-127890000D01*
X64937621Y-128650000D02*
X64602379Y-128650000D01*
%TO.C,C8*%
X124995000Y-48521252D02*
X124995000Y-47998748D01*
X126465000Y-48521252D02*
X126465000Y-47998748D01*
%TO.C,R77*%
X64937621Y-61850000D02*
X64602379Y-61850000D01*
X64937621Y-62610000D02*
X64602379Y-62610000D01*
%TO.C,R67*%
X75820000Y-88059879D02*
X75820000Y-88395121D01*
X76580000Y-88059879D02*
X76580000Y-88395121D01*
%TO.C,R58*%
X74762379Y-82930000D02*
X75097621Y-82930000D01*
X74762379Y-82170000D02*
X75097621Y-82170000D01*
%TO.C,R68*%
X88520000Y-88109480D02*
X88520000Y-88444722D01*
X89280000Y-88109480D02*
X89280000Y-88444722D01*
%TO.C,R37*%
X87250000Y-127824443D02*
X87250000Y-127489201D01*
X88010000Y-127824443D02*
X88010000Y-127489201D01*
%TO.C,C10*%
X108485000Y-54116248D02*
X108485000Y-54638752D01*
X109955000Y-54116248D02*
X109955000Y-54638752D01*
%TO.C,C21*%
X83558748Y-84355000D02*
X84081252Y-84355000D01*
X83558748Y-85825000D02*
X84081252Y-85825000D01*
%TO.C,R80*%
X64937621Y-69470000D02*
X64602379Y-69470000D01*
X64937621Y-70230000D02*
X64602379Y-70230000D01*
%TO.C,R13*%
X64937621Y-130430000D02*
X64602379Y-130430000D01*
X64937621Y-131190000D02*
X64602379Y-131190000D01*
%TO.C,R42*%
X64937621Y-82170000D02*
X64602379Y-82170000D01*
X64937621Y-82930000D02*
X64602379Y-82930000D01*
%TO.C,R44*%
X64937621Y-88010000D02*
X64602379Y-88010000D01*
X64937621Y-87250000D02*
X64602379Y-87250000D01*
%TO.C,C4*%
X129801252Y-69115000D02*
X129278748Y-69115000D01*
X129801252Y-70585000D02*
X129278748Y-70585000D01*
%TO.C,C15*%
X88406248Y-62765000D02*
X88928752Y-62765000D01*
X88406248Y-64235000D02*
X88928752Y-64235000D01*
%TO.C,R45*%
X64937621Y-90550000D02*
X64602379Y-90550000D01*
X64937621Y-89790000D02*
X64602379Y-89790000D01*
%TO.C,R16*%
X64937621Y-138810000D02*
X64602379Y-138810000D01*
X64937621Y-138050000D02*
X64602379Y-138050000D01*
%TO.C,R10*%
X64937621Y-122810000D02*
X64602379Y-122810000D01*
X64937621Y-123570000D02*
X64602379Y-123570000D01*
%TO.C,R98*%
X88520000Y-60171461D02*
X88520000Y-60506703D01*
X89280000Y-60171461D02*
X89280000Y-60506703D01*
%TO.C,R5*%
X116105000Y-54837064D02*
X116105000Y-54382936D01*
X117575000Y-54837064D02*
X117575000Y-54382936D01*
%TO.C,R125*%
X89280000Y-41427908D02*
X89280000Y-41092666D01*
X88520000Y-41427908D02*
X88520000Y-41092666D01*
%TO.C,R118*%
X72894879Y-32640000D02*
X73230121Y-32640000D01*
X72894879Y-33400000D02*
X73230121Y-33400000D01*
%TO.C,R63*%
X75310000Y-109052379D02*
X75310000Y-109387621D01*
X74550000Y-109052379D02*
X74550000Y-109387621D01*
%TO.C,U11*%
X82550000Y-33665000D02*
X84500000Y-33665000D01*
X82550000Y-42535000D02*
X79100000Y-42535000D01*
X82550000Y-42535000D02*
X84500000Y-42535000D01*
X82550000Y-33665000D02*
X80600000Y-33665000D01*
%TO.C,C12*%
X112295000Y-54116248D02*
X112295000Y-54638752D01*
X113765000Y-54116248D02*
X113765000Y-54638752D01*
%TO.C,R17*%
X64937621Y-140590000D02*
X64602379Y-140590000D01*
X64937621Y-141350000D02*
X64602379Y-141350000D01*
%TO.C,U7*%
X82550000Y-87005000D02*
X84500000Y-87005000D01*
X82550000Y-87005000D02*
X80600000Y-87005000D01*
X82550000Y-95875000D02*
X79100000Y-95875000D01*
X82550000Y-95875000D02*
X84500000Y-95875000D01*
%TO.C,R119*%
X93146330Y-39794501D02*
X93146330Y-40129743D01*
X92386330Y-39794501D02*
X92386330Y-40129743D01*
%TO.C,R106*%
X64937621Y-34670000D02*
X64602379Y-34670000D01*
X64937621Y-33910000D02*
X64602379Y-33910000D01*
%TO.C,G\u002A\u002A\u002A*%
G36*
X128164078Y-140788503D02*
G01*
X128877837Y-141001740D01*
X129568549Y-141346133D01*
X129689402Y-141423921D01*
X129916513Y-141575927D01*
X130222959Y-141784232D01*
X130590258Y-142035990D01*
X130999932Y-142318357D01*
X131433499Y-142618487D01*
X131872478Y-142923535D01*
X132298387Y-143220658D01*
X132692748Y-143497008D01*
X133037078Y-143739742D01*
X133312897Y-143936015D01*
X133501724Y-144072981D01*
X133585078Y-144137797D01*
X133576008Y-144169861D01*
X133486242Y-144290423D01*
X133322578Y-144475214D01*
X133105936Y-144699702D01*
X132585412Y-145220226D01*
X130600490Y-143830909D01*
X130370054Y-143670325D01*
X129872595Y-143328357D01*
X129403161Y-143011741D01*
X128980627Y-142732845D01*
X128623867Y-142504046D01*
X128351758Y-142337719D01*
X128183175Y-142246234D01*
X127949676Y-142155326D01*
X127426434Y-142053269D01*
X126918070Y-142090373D01*
X126446137Y-142266388D01*
X126090962Y-142504631D01*
X125757432Y-142837162D01*
X125524326Y-143205537D01*
X125406639Y-143585145D01*
X125419371Y-143951375D01*
X125434915Y-144012285D01*
X125492473Y-144176617D01*
X125579592Y-144338065D01*
X125708231Y-144507377D01*
X125890350Y-144695302D01*
X126137905Y-144912589D01*
X126462859Y-145169983D01*
X126877167Y-145478235D01*
X127392788Y-145848092D01*
X128021682Y-146290304D01*
X128300664Y-146485412D01*
X128761050Y-146807844D01*
X129172629Y-147096667D01*
X129520512Y-147341401D01*
X129789811Y-147531566D01*
X129965637Y-147656679D01*
X130033102Y-147706260D01*
X130020434Y-147737895D01*
X129925382Y-147857340D01*
X129757729Y-148041707D01*
X129538632Y-148267006D01*
X129011022Y-148794615D01*
X128676663Y-148571030D01*
X128556905Y-148489637D01*
X128317399Y-148324743D01*
X127992823Y-148100008D01*
X127603910Y-147829816D01*
X127171391Y-147528551D01*
X126715995Y-147210596D01*
X126362261Y-146961783D01*
X125774347Y-146538294D01*
X125293685Y-146175153D01*
X124906584Y-145860339D01*
X124599349Y-145581835D01*
X124358292Y-145327622D01*
X124169718Y-145085680D01*
X124019937Y-144843992D01*
X123881911Y-144528784D01*
X123780398Y-144005367D01*
X123812430Y-143456864D01*
X123975792Y-142905302D01*
X124268273Y-142372707D01*
X124353080Y-142259708D01*
X124644612Y-141942382D01*
X125006756Y-141615613D01*
X125392927Y-141319430D01*
X125756541Y-141093862D01*
X126073951Y-140948273D01*
X126743191Y-140760516D01*
X127446214Y-140707678D01*
X128164078Y-140788503D01*
G37*
G36*
X145301917Y-107024237D02*
G01*
X145392495Y-107084904D01*
X145593159Y-107223028D01*
X145885375Y-107425926D01*
X146254828Y-107683536D01*
X146687205Y-107985797D01*
X147168193Y-108322645D01*
X147683479Y-108684021D01*
X148218748Y-109059860D01*
X148759688Y-109440102D01*
X149291983Y-109814685D01*
X149801323Y-110173547D01*
X150273392Y-110506625D01*
X150693876Y-110803858D01*
X151048465Y-111055185D01*
X151322842Y-111250542D01*
X151502695Y-111379868D01*
X151573711Y-111433103D01*
X151586594Y-111465386D01*
X151528257Y-111589807D01*
X151347853Y-111791804D01*
X151226511Y-111910782D01*
X151097663Y-112029979D01*
X151042300Y-112070789D01*
X151033602Y-112064423D01*
X150930150Y-111991257D01*
X150719189Y-111842887D01*
X150412236Y-111627390D01*
X150020810Y-111352842D01*
X149556432Y-111027323D01*
X149030620Y-110658910D01*
X148454893Y-110255681D01*
X147840770Y-109825712D01*
X147623016Y-109673254D01*
X147019518Y-109250422D01*
X146457631Y-108856315D01*
X145949009Y-108499133D01*
X145505302Y-108187074D01*
X145138164Y-107928339D01*
X144859245Y-107731126D01*
X144680198Y-107603636D01*
X144612673Y-107554068D01*
X144622045Y-107512051D01*
X144710871Y-107389314D01*
X144864052Y-107222982D01*
X144970325Y-107119235D01*
X145107181Y-107008412D01*
X145204729Y-106982638D01*
X145301917Y-107024237D01*
G37*
G36*
X132625214Y-119731431D02*
G01*
X132711546Y-119775068D01*
X132807387Y-119844770D01*
X132925467Y-119932062D01*
X133160049Y-120096013D01*
X131613144Y-121642917D01*
X131504326Y-121751802D01*
X131120576Y-122136880D01*
X130778019Y-122482302D01*
X130489714Y-122774784D01*
X130268716Y-123001044D01*
X130128082Y-123147797D01*
X130080869Y-123201761D01*
X130081061Y-123201911D01*
X130147555Y-123248870D01*
X130317385Y-123367898D01*
X130571194Y-123545453D01*
X130889623Y-123767993D01*
X131253316Y-124021975D01*
X132411133Y-124830250D01*
X133626971Y-123642955D01*
X134842809Y-122455662D01*
X135165072Y-122689369D01*
X135487334Y-122923076D01*
X134318776Y-124120198D01*
X134152760Y-124291072D01*
X133834828Y-124623188D01*
X133565014Y-124911590D01*
X133357731Y-125140512D01*
X133227389Y-125294187D01*
X133188402Y-125356848D01*
X133219842Y-125381708D01*
X133357017Y-125482208D01*
X133582054Y-125643767D01*
X133873252Y-125850841D01*
X134208911Y-126087884D01*
X135191235Y-126779394D01*
X136717197Y-125253432D01*
X136804238Y-125166520D01*
X137191327Y-124783213D01*
X137542215Y-124440827D01*
X137843012Y-124152558D01*
X138079827Y-123931600D01*
X138238769Y-123791145D01*
X138305947Y-123744388D01*
X138340369Y-123760678D01*
X138475038Y-123846500D01*
X138657734Y-123977116D01*
X138946733Y-124192924D01*
X137110230Y-126029428D01*
X136750782Y-126388361D01*
X136348860Y-126788399D01*
X135992098Y-127142062D01*
X135692685Y-127437332D01*
X135462810Y-127662197D01*
X135314662Y-127804644D01*
X135260429Y-127852659D01*
X135251731Y-127846293D01*
X135148280Y-127773128D01*
X134937318Y-127624758D01*
X134630365Y-127409260D01*
X134238940Y-127134713D01*
X133774562Y-126809193D01*
X133248749Y-126440780D01*
X132673023Y-126037551D01*
X132058900Y-125607583D01*
X131841146Y-125455124D01*
X131237647Y-125032293D01*
X130675760Y-124638185D01*
X130167139Y-124281003D01*
X129723432Y-123968944D01*
X129356294Y-123710209D01*
X129077375Y-123512997D01*
X128898327Y-123385506D01*
X128830803Y-123335938D01*
X128857553Y-123293801D01*
X128977855Y-123156046D01*
X129183385Y-122935053D01*
X129462285Y-122643207D01*
X129802694Y-122292895D01*
X130192753Y-121896508D01*
X130620604Y-121466430D01*
X130749409Y-121337525D01*
X131217912Y-120867585D01*
X131594091Y-120491502D01*
X131890677Y-120200800D01*
X132120398Y-119987007D01*
X132295983Y-119841646D01*
X132430161Y-119756246D01*
X132535661Y-119722332D01*
X132625214Y-119731431D01*
G37*
G36*
X154677321Y-97679323D02*
G01*
X154763653Y-97722960D01*
X154859495Y-97792661D01*
X154977575Y-97879954D01*
X155212157Y-98043904D01*
X153665253Y-99590808D01*
X153556433Y-99699694D01*
X153172684Y-100084772D01*
X152830127Y-100430194D01*
X152541822Y-100722675D01*
X152320824Y-100948935D01*
X152180191Y-101095688D01*
X152132978Y-101149652D01*
X152133170Y-101149803D01*
X152199663Y-101196762D01*
X152369494Y-101315790D01*
X152623302Y-101493345D01*
X152941732Y-101715884D01*
X153305425Y-101969866D01*
X154463241Y-102778142D01*
X155679079Y-101590847D01*
X156894917Y-100403553D01*
X157217180Y-100637261D01*
X157539443Y-100870967D01*
X156370884Y-102068091D01*
X156204868Y-102238964D01*
X155886936Y-102571079D01*
X155617123Y-102859481D01*
X155409839Y-103088404D01*
X155279498Y-103242078D01*
X155240511Y-103304739D01*
X155271949Y-103329600D01*
X155409125Y-103430100D01*
X155634162Y-103591660D01*
X155925361Y-103798732D01*
X156261019Y-104035775D01*
X157243343Y-104727287D01*
X158769305Y-103201324D01*
X158856346Y-103114411D01*
X159243435Y-102731104D01*
X159594323Y-102388719D01*
X159895120Y-102100450D01*
X160131935Y-101879491D01*
X160290877Y-101739037D01*
X160358055Y-101692280D01*
X160392477Y-101708570D01*
X160527146Y-101794391D01*
X160709842Y-101925008D01*
X160998841Y-102140817D01*
X159162338Y-103977320D01*
X158802891Y-104336252D01*
X158400968Y-104736292D01*
X158044206Y-105089953D01*
X157744793Y-105385224D01*
X157514918Y-105610090D01*
X157366770Y-105752536D01*
X157312538Y-105800551D01*
X157303840Y-105794185D01*
X157200388Y-105721020D01*
X156989427Y-105572649D01*
X156682474Y-105357152D01*
X156291049Y-105082604D01*
X155826670Y-104757085D01*
X155300858Y-104388672D01*
X154725132Y-103985442D01*
X154111009Y-103555474D01*
X153893254Y-103403016D01*
X153289756Y-102980184D01*
X152727869Y-102586077D01*
X152219246Y-102228895D01*
X151775540Y-101916836D01*
X151408402Y-101658101D01*
X151129483Y-101460888D01*
X150950435Y-101333398D01*
X150882911Y-101283830D01*
X150909661Y-101241693D01*
X151029963Y-101103938D01*
X151235493Y-100882945D01*
X151514392Y-100591099D01*
X151854801Y-100240787D01*
X152244862Y-99844400D01*
X152672713Y-99414322D01*
X152801518Y-99285416D01*
X153270020Y-98815477D01*
X153646200Y-98439393D01*
X153942786Y-98148692D01*
X154172507Y-97934898D01*
X154348091Y-97789538D01*
X154482269Y-97704137D01*
X154587769Y-97670224D01*
X154677321Y-97679323D01*
G37*
G36*
X131542636Y-141004486D02*
G01*
X131002501Y-140625566D01*
X130471386Y-140252649D01*
X130362207Y-140175918D01*
X133129053Y-140175918D01*
X133167172Y-140294029D01*
X133307656Y-140429036D01*
X133555386Y-140606752D01*
X133915241Y-140852988D01*
X134154802Y-141019278D01*
X134391310Y-141184461D01*
X134556010Y-141300694D01*
X134622958Y-141349768D01*
X134623101Y-141349888D01*
X134681242Y-141305896D01*
X134820783Y-141172639D01*
X135021009Y-140970558D01*
X135261203Y-140720088D01*
X135474092Y-140489133D01*
X135726821Y-140182357D01*
X135878126Y-139933901D01*
X135936984Y-139720822D01*
X135912373Y-139520177D01*
X135813267Y-139309020D01*
X135798601Y-139285779D01*
X135583187Y-139079091D01*
X135279330Y-138932945D01*
X134938062Y-138864993D01*
X134610412Y-138892892D01*
X134538780Y-138914950D01*
X134382542Y-138987019D01*
X134204525Y-139108122D01*
X133977445Y-139298201D01*
X133674016Y-139577193D01*
X133580086Y-139664852D01*
X133340391Y-139887141D01*
X133188419Y-140048892D01*
X133129053Y-140175918D01*
X130362207Y-140175918D01*
X129963561Y-139895748D01*
X129493299Y-139564874D01*
X129309975Y-139435700D01*
X129074869Y-139270038D01*
X128722542Y-139021256D01*
X128450592Y-138828537D01*
X128273287Y-138701895D01*
X128204899Y-138651342D01*
X128204378Y-138640643D01*
X128268592Y-138544942D01*
X128420117Y-138368682D01*
X128460304Y-138325230D01*
X130344864Y-138325230D01*
X130374821Y-138370854D01*
X130378202Y-138373929D01*
X130482871Y-138455450D01*
X130681972Y-138601016D01*
X130948255Y-138790961D01*
X131254473Y-139005624D01*
X132038094Y-139550443D01*
X132766473Y-138849869D01*
X132946245Y-138676117D01*
X133192863Y-138431060D01*
X133358719Y-138251070D01*
X133462909Y-138112531D01*
X133524533Y-137991827D01*
X133562690Y-137865344D01*
X133574951Y-137805954D01*
X133565994Y-137452804D01*
X133418937Y-137138582D01*
X133143895Y-136886925D01*
X132818573Y-136727979D01*
X132451142Y-136675567D01*
X132044530Y-136754282D01*
X131972649Y-136778726D01*
X131823822Y-136842666D01*
X131677024Y-136933808D01*
X131505863Y-137072588D01*
X131283949Y-137279442D01*
X130984889Y-137574804D01*
X130780748Y-137779930D01*
X130559936Y-138007842D01*
X130423180Y-138162307D01*
X130356237Y-138261909D01*
X130344864Y-138325230D01*
X128460304Y-138325230D01*
X128641949Y-138128827D01*
X128917081Y-137842338D01*
X129228509Y-137526179D01*
X129559228Y-137197313D01*
X129892230Y-136872702D01*
X130210512Y-136569308D01*
X130497068Y-136304096D01*
X130734892Y-136094026D01*
X130906978Y-135956062D01*
X131127441Y-135807117D01*
X131727933Y-135497380D01*
X132326743Y-135321665D01*
X132910585Y-135279961D01*
X133466168Y-135372257D01*
X133980205Y-135598545D01*
X134439406Y-135958814D01*
X134449685Y-135969139D01*
X134749492Y-136341537D01*
X134908007Y-136723670D01*
X134931072Y-137140720D01*
X134824536Y-137617871D01*
X134811409Y-137658217D01*
X134770562Y-137814010D01*
X134794093Y-137868586D01*
X134891417Y-137855379D01*
X135232937Y-137783106D01*
X135772013Y-137755488D01*
X136269962Y-137851209D01*
X136342633Y-137876026D01*
X136805406Y-138107833D01*
X137167824Y-138424715D01*
X137417528Y-138808490D01*
X137542160Y-139240978D01*
X137529363Y-139703999D01*
X137515606Y-139773216D01*
X137450512Y-139998777D01*
X137346771Y-140227238D01*
X137192197Y-140474861D01*
X136974600Y-140757906D01*
X136681790Y-141092636D01*
X136301579Y-141495313D01*
X135821778Y-141982199D01*
X134644519Y-143161119D01*
X134468001Y-143045380D01*
X134377338Y-142983967D01*
X134173661Y-142843373D01*
X133879105Y-142638695D01*
X133507942Y-142379946D01*
X133074442Y-142077138D01*
X132592878Y-141740285D01*
X132080038Y-141381162D01*
X132077518Y-141379397D01*
X131542636Y-141004486D01*
G37*
G36*
X123699251Y-130078658D02*
G01*
X124394372Y-130245906D01*
X125092914Y-130554341D01*
X125134053Y-130578133D01*
X125312621Y-130690575D01*
X125583994Y-130868272D01*
X125930039Y-131098806D01*
X126332625Y-131369759D01*
X126773616Y-131668713D01*
X127234882Y-131983249D01*
X127698288Y-132300949D01*
X128145702Y-132609395D01*
X128558991Y-132896169D01*
X128920023Y-133148850D01*
X129210663Y-133355024D01*
X129412780Y-133502269D01*
X129508240Y-133578170D01*
X129494163Y-133613801D01*
X129400730Y-133730066D01*
X129246189Y-133893469D01*
X129234708Y-133904916D01*
X129054526Y-134068556D01*
X128932959Y-134133122D01*
X128837136Y-134116539D01*
X128801401Y-134094081D01*
X128650317Y-133992493D01*
X128400745Y-133821353D01*
X128068356Y-133591510D01*
X127668819Y-133313815D01*
X127217805Y-132999116D01*
X126730984Y-132658265D01*
X126494188Y-132492881D01*
X125999638Y-132151816D01*
X125534881Y-131836884D01*
X125118434Y-131560308D01*
X124768815Y-131334308D01*
X124504543Y-131171108D01*
X124344134Y-131082929D01*
X124322065Y-131072973D01*
X123721285Y-130875961D01*
X123135401Y-130828399D01*
X122564976Y-130930263D01*
X122010573Y-131181528D01*
X121913819Y-131241762D01*
X121482329Y-131581615D01*
X121140536Y-131973482D01*
X120902202Y-132394244D01*
X120781091Y-132820784D01*
X120790965Y-133229988D01*
X120808979Y-133308517D01*
X120873976Y-133500010D01*
X120976035Y-133690986D01*
X121126303Y-133891704D01*
X121335926Y-134112426D01*
X121616052Y-134363413D01*
X121977825Y-134654926D01*
X122432394Y-134997225D01*
X122990904Y-135400573D01*
X123664502Y-135875229D01*
X123938301Y-136066818D01*
X124401772Y-136391988D01*
X124817891Y-136685014D01*
X125171467Y-136935138D01*
X125447310Y-137131602D01*
X125630231Y-137263645D01*
X125705039Y-137320509D01*
X125715370Y-137354398D01*
X125644559Y-137474845D01*
X125449026Y-137669366D01*
X125130654Y-137955866D01*
X123094270Y-136538305D01*
X122935871Y-136427966D01*
X122385518Y-136042773D01*
X121939607Y-135726556D01*
X121582228Y-135467058D01*
X121297465Y-135252025D01*
X121069408Y-135069202D01*
X120882144Y-134906335D01*
X120719761Y-134751169D01*
X120566347Y-134591449D01*
X120451224Y-134464307D01*
X120146326Y-134073969D01*
X119953581Y-133711168D01*
X119857961Y-133341314D01*
X119844438Y-132929815D01*
X119848948Y-132856980D01*
X119913852Y-132454660D01*
X120058554Y-132082819D01*
X120304630Y-131682996D01*
X120310150Y-131675170D01*
X120600064Y-131331588D01*
X120978430Y-130975617D01*
X121395495Y-130649988D01*
X121801507Y-130397428D01*
X122362549Y-130169785D01*
X123018370Y-130053112D01*
X123699251Y-130078658D01*
G37*
G36*
X135966895Y-120303045D02*
G01*
X135833258Y-120209312D01*
X137353114Y-120209312D01*
X137358830Y-120253975D01*
X137398839Y-120285094D01*
X137402880Y-120287428D01*
X137510932Y-120358187D01*
X137718467Y-120500046D01*
X138004320Y-120698328D01*
X138347328Y-120938363D01*
X138726326Y-121205474D01*
X139928753Y-122055812D01*
X140736358Y-121214671D01*
X141013356Y-120921427D01*
X141317499Y-120576580D01*
X141527486Y-120295271D01*
X141653819Y-120056036D01*
X141706997Y-119837413D01*
X141697524Y-119617936D01*
X141635901Y-119376144D01*
X141569850Y-119199299D01*
X141412334Y-118933337D01*
X141178555Y-118712543D01*
X140833221Y-118498319D01*
X140443169Y-118343626D01*
X139938663Y-118281481D01*
X139434124Y-118359902D01*
X139409069Y-118367705D01*
X139276102Y-118417947D01*
X139143321Y-118490470D01*
X138989384Y-118602017D01*
X138792945Y-118769339D01*
X138532660Y-119009181D01*
X138187186Y-119338293D01*
X137934325Y-119581566D01*
X137672296Y-119837231D01*
X137496790Y-120016622D01*
X137394748Y-120135421D01*
X137353114Y-120209312D01*
X135833258Y-120209312D01*
X135405008Y-119908938D01*
X134896386Y-119551755D01*
X134452679Y-119239697D01*
X134085541Y-118980962D01*
X133806622Y-118783749D01*
X133627574Y-118656259D01*
X133560050Y-118606691D01*
X133568780Y-118565684D01*
X133656539Y-118443757D01*
X133808861Y-118278173D01*
X133823545Y-118263543D01*
X134001984Y-118101863D01*
X134121958Y-118038871D01*
X134216287Y-118056730D01*
X134216868Y-118057060D01*
X134315315Y-118121306D01*
X134514647Y-118257376D01*
X134793428Y-118450425D01*
X135130216Y-118685608D01*
X135503577Y-118948081D01*
X136672117Y-119772201D01*
X137902209Y-118538452D01*
X137238703Y-117025146D01*
X136575195Y-115511839D01*
X136934075Y-115152959D01*
X136937958Y-115149080D01*
X137121281Y-114974449D01*
X137259840Y-114858097D01*
X137323907Y-114825032D01*
X137333754Y-114843009D01*
X137392983Y-114974462D01*
X137496675Y-115215508D01*
X137636213Y-115545807D01*
X137802975Y-115945019D01*
X137988341Y-116392804D01*
X138072577Y-116596620D01*
X138251898Y-117026739D01*
X138409611Y-117399988D01*
X138536913Y-117695798D01*
X138624992Y-117893606D01*
X138665042Y-117972845D01*
X138720869Y-117971977D01*
X138877765Y-117917353D01*
X139091365Y-117816600D01*
X139520324Y-117644619D01*
X140104075Y-117547621D01*
X140699732Y-117591217D01*
X140865347Y-117627931D01*
X141290176Y-117777053D01*
X141676050Y-118011748D01*
X142070830Y-118358808D01*
X142284741Y-118597349D01*
X142526725Y-119003235D01*
X142626960Y-119431738D01*
X142587921Y-119897802D01*
X142412090Y-120416363D01*
X142345562Y-120556940D01*
X142260988Y-120704924D01*
X142149482Y-120864018D01*
X141995340Y-121053418D01*
X141782855Y-121292317D01*
X141496321Y-121599911D01*
X141120031Y-121995393D01*
X141000107Y-122120541D01*
X140684518Y-122447467D01*
X140410979Y-122727366D01*
X140194843Y-122944741D01*
X140051463Y-123084093D01*
X139996191Y-123129926D01*
X139987134Y-123123174D01*
X139882649Y-123048916D01*
X139670663Y-122899487D01*
X139362729Y-122682993D01*
X138970399Y-122407543D01*
X138505224Y-122081245D01*
X137978756Y-121712206D01*
X137402547Y-121308533D01*
X136788148Y-120878335D01*
X136756575Y-120856230D01*
X136570393Y-120725877D01*
X135966895Y-120303045D01*
G37*
G36*
X171149981Y-81206664D02*
G01*
X171236313Y-81250301D01*
X171332155Y-81320002D01*
X171450234Y-81407295D01*
X171684816Y-81571245D01*
X170137912Y-83118149D01*
X170029093Y-83227035D01*
X169645343Y-83612113D01*
X169302786Y-83957535D01*
X169014481Y-84250016D01*
X168793484Y-84476276D01*
X168652850Y-84623029D01*
X168605637Y-84676993D01*
X168605829Y-84677144D01*
X168672322Y-84724103D01*
X168842153Y-84843131D01*
X169095961Y-85020686D01*
X169414391Y-85243225D01*
X169778084Y-85497207D01*
X170935900Y-86305483D01*
X172151738Y-85118188D01*
X173367576Y-83930894D01*
X173689839Y-84164602D01*
X174012102Y-84398308D01*
X172843543Y-85595431D01*
X172677527Y-85766305D01*
X172359596Y-86098420D01*
X172089781Y-86386823D01*
X171882498Y-86615745D01*
X171752157Y-86769419D01*
X171713170Y-86832080D01*
X171744609Y-86856941D01*
X171881784Y-86957441D01*
X172106821Y-87119000D01*
X172398020Y-87326073D01*
X172733678Y-87563116D01*
X173716002Y-88254627D01*
X175241964Y-86728665D01*
X175329006Y-86641752D01*
X175716094Y-86258445D01*
X176066982Y-85916060D01*
X176367779Y-85627791D01*
X176604594Y-85406832D01*
X176763537Y-85266378D01*
X176830714Y-85219621D01*
X176865136Y-85235911D01*
X176999806Y-85321732D01*
X177182502Y-85452348D01*
X177471500Y-85668157D01*
X175634997Y-87504661D01*
X175275550Y-87863593D01*
X174873627Y-88263632D01*
X174516865Y-88617294D01*
X174217452Y-88912565D01*
X173987577Y-89137430D01*
X173839429Y-89279876D01*
X173785197Y-89327892D01*
X173776499Y-89321526D01*
X173673047Y-89248361D01*
X173462086Y-89099990D01*
X173155133Y-88884493D01*
X172763708Y-88609945D01*
X172299330Y-88284426D01*
X171773517Y-87916012D01*
X171197791Y-87512783D01*
X170583668Y-87082815D01*
X170365914Y-86930356D01*
X169762415Y-86507525D01*
X169200528Y-86113418D01*
X168691906Y-85756236D01*
X168248200Y-85444176D01*
X167881061Y-85185442D01*
X167602142Y-84988229D01*
X167423094Y-84860739D01*
X167355570Y-84811171D01*
X167382320Y-84769034D01*
X167502622Y-84631279D01*
X167708152Y-84410286D01*
X167987052Y-84118440D01*
X168327461Y-83768128D01*
X168717521Y-83371740D01*
X169145372Y-82941663D01*
X169274177Y-82812757D01*
X169742679Y-82342818D01*
X170118859Y-81966734D01*
X170415445Y-81676033D01*
X170645166Y-81462239D01*
X170820750Y-81316879D01*
X170954929Y-81231478D01*
X171060428Y-81197565D01*
X171149981Y-81206664D01*
G37*
G36*
X150578398Y-102624526D02*
G01*
X147701550Y-105557902D01*
X147878097Y-105671917D01*
X147955863Y-105723954D01*
X148152457Y-105858888D01*
X148439165Y-106057579D01*
X148800749Y-106309325D01*
X149221971Y-106603425D01*
X149687594Y-106929176D01*
X150182379Y-107275880D01*
X150691088Y-107632833D01*
X151198484Y-107989336D01*
X151689328Y-108334686D01*
X152148383Y-108658183D01*
X152560411Y-108949125D01*
X152910173Y-109196812D01*
X153182432Y-109390541D01*
X153361951Y-109519612D01*
X153433490Y-109573323D01*
X153446390Y-109605635D01*
X153388050Y-109730027D01*
X153207669Y-109931988D01*
X153086327Y-110050966D01*
X152957479Y-110170163D01*
X152902116Y-110210972D01*
X152893418Y-110204606D01*
X152789966Y-110131441D01*
X152579005Y-109983071D01*
X152272052Y-109767573D01*
X151880627Y-109493026D01*
X151416248Y-109167507D01*
X150890436Y-108799093D01*
X150314709Y-108395865D01*
X149700587Y-107965896D01*
X149482832Y-107813438D01*
X148879334Y-107390606D01*
X148317447Y-106996499D01*
X147808825Y-106639317D01*
X147365118Y-106327258D01*
X146997981Y-106068522D01*
X146719062Y-105871310D01*
X146540014Y-105743820D01*
X146472489Y-105694252D01*
X146489063Y-105664789D01*
X146595083Y-105540706D01*
X146787719Y-105332024D01*
X147054855Y-105051425D01*
X147384377Y-104711588D01*
X147764167Y-104325193D01*
X148182112Y-103904922D01*
X149931600Y-102155434D01*
X150578398Y-102624526D01*
G37*
G36*
X139524864Y-129708067D02*
G01*
X139572072Y-129715527D01*
X139827415Y-129767063D01*
X140005883Y-129822030D01*
X140071304Y-129869730D01*
X140065262Y-129891919D01*
X140003403Y-130027115D01*
X139889498Y-130243588D01*
X139741719Y-130506244D01*
X139418197Y-131065058D01*
X138910200Y-131038063D01*
X138499448Y-131051845D01*
X137917809Y-131174558D01*
X137361408Y-131401085D01*
X136883498Y-131713674D01*
X136678569Y-131900397D01*
X136326249Y-132342998D01*
X136115925Y-132813805D01*
X136048345Y-133299842D01*
X136124264Y-133788128D01*
X136344428Y-134265685D01*
X136709591Y-134719533D01*
X136955567Y-134946106D01*
X137533334Y-135348871D01*
X138149261Y-135616352D01*
X138789474Y-135745047D01*
X139440097Y-135731453D01*
X140087258Y-135572069D01*
X140106702Y-135564944D01*
X140345637Y-135465515D01*
X140545265Y-135347884D01*
X140751415Y-135180188D01*
X141009917Y-134930564D01*
X141066622Y-134873343D01*
X141291088Y-134634923D01*
X141438247Y-134444787D01*
X141537320Y-134259992D01*
X141617527Y-134037595D01*
X141649165Y-133926699D01*
X141713623Y-133535316D01*
X141706609Y-133174634D01*
X141627676Y-132895165D01*
X141614503Y-132868186D01*
X141602861Y-132809186D01*
X141638187Y-132747583D01*
X141741261Y-132665214D01*
X141932870Y-132543918D01*
X142233798Y-132365537D01*
X142444392Y-132246381D01*
X142705512Y-132112591D01*
X142901512Y-132028966D01*
X143001081Y-132010015D01*
X143070707Y-132078868D01*
X143166886Y-132274167D01*
X143255803Y-132552602D01*
X143325848Y-132876045D01*
X143365410Y-133206373D01*
X143340642Y-133674425D01*
X143204855Y-134218385D01*
X142969939Y-134763031D01*
X142650276Y-135266917D01*
X142643777Y-135275441D01*
X142098542Y-135870707D01*
X141470591Y-136351114D01*
X140777035Y-136713990D01*
X140034981Y-136956670D01*
X139261540Y-137076482D01*
X138473822Y-137070758D01*
X137688937Y-136936830D01*
X136923994Y-136672029D01*
X136196103Y-136273685D01*
X135658075Y-135872114D01*
X135203347Y-135413328D01*
X134858699Y-134902959D01*
X134603269Y-134315360D01*
X134508333Y-133944582D01*
X134469972Y-133337534D01*
X134558642Y-132716995D01*
X134768878Y-132113593D01*
X135095217Y-131557958D01*
X135274092Y-131330963D01*
X135834466Y-130776941D01*
X136484462Y-130323644D01*
X137201291Y-129980591D01*
X137962161Y-129757299D01*
X138744282Y-129663285D01*
X139524864Y-129708067D01*
G37*
G36*
X126667813Y-129602127D02*
G01*
X126481689Y-129471580D01*
X127929214Y-129471580D01*
X128076244Y-129563671D01*
X128079749Y-129565889D01*
X128192812Y-129642098D01*
X128405332Y-129789009D01*
X128695582Y-129991472D01*
X129041840Y-130234337D01*
X129422380Y-130502452D01*
X130621486Y-131349143D01*
X131392811Y-130576780D01*
X131680524Y-130286359D01*
X131906263Y-130049062D01*
X132062504Y-129866725D01*
X132169275Y-129713608D01*
X132246604Y-129563965D01*
X132314516Y-129392054D01*
X132336863Y-129329296D01*
X132404605Y-129075183D01*
X132400792Y-128863966D01*
X132326579Y-128621941D01*
X132231192Y-128423949D01*
X131952145Y-128078223D01*
X131582751Y-127816647D01*
X131151448Y-127648414D01*
X130686680Y-127582717D01*
X130216885Y-127628748D01*
X129770503Y-127795702D01*
X129674468Y-127852427D01*
X129407732Y-128047651D01*
X129077509Y-128336569D01*
X128669257Y-128731538D01*
X127929214Y-129471580D01*
X126481689Y-129471580D01*
X126105926Y-129208020D01*
X125597304Y-128850838D01*
X125153597Y-128538779D01*
X124786460Y-128280043D01*
X124507540Y-128082831D01*
X124328493Y-127955341D01*
X124260968Y-127905772D01*
X124270341Y-127863755D01*
X124359166Y-127741019D01*
X124512348Y-127574687D01*
X124619108Y-127470472D01*
X124755646Y-127359984D01*
X124852868Y-127334530D01*
X124949671Y-127376482D01*
X124951880Y-127377895D01*
X125061345Y-127451643D01*
X125261378Y-127589474D01*
X125528204Y-127774737D01*
X125838048Y-127990780D01*
X126167132Y-128220951D01*
X126491683Y-128448599D01*
X126787925Y-128657071D01*
X127032083Y-128829716D01*
X127200381Y-128949883D01*
X127269044Y-129000917D01*
X127305122Y-128978833D01*
X127434222Y-128869942D01*
X127639232Y-128685458D01*
X127901896Y-128441884D01*
X128203958Y-128155723D01*
X128341699Y-128024835D01*
X128757853Y-127645255D01*
X129108920Y-127358819D01*
X129420753Y-127149761D01*
X129719203Y-127002319D01*
X130030125Y-126900728D01*
X130379372Y-126829223D01*
X130504037Y-126812541D01*
X131021309Y-126816362D01*
X131532933Y-126925177D01*
X132018247Y-127124119D01*
X132456588Y-127398316D01*
X132827291Y-127732899D01*
X133109693Y-128113000D01*
X133283129Y-128523747D01*
X133326936Y-128950272D01*
X133320195Y-129035884D01*
X133279670Y-129298846D01*
X133201509Y-129550189D01*
X133073563Y-129808822D01*
X132883683Y-130093657D01*
X132619719Y-130423604D01*
X132269524Y-130817573D01*
X131820949Y-131294475D01*
X131701026Y-131419622D01*
X131385435Y-131746549D01*
X131111897Y-132026448D01*
X130895761Y-132243823D01*
X130752381Y-132383175D01*
X130697109Y-132429007D01*
X130688052Y-132422256D01*
X130583566Y-132347998D01*
X130371581Y-132198569D01*
X130063647Y-131982075D01*
X129671317Y-131706625D01*
X129206142Y-131380327D01*
X128679674Y-131011288D01*
X128103465Y-130607615D01*
X127489066Y-130177417D01*
X127332791Y-130068003D01*
X127271311Y-130024959D01*
X126667813Y-129602127D01*
G37*
G36*
X174772054Y-78684221D02*
G01*
X175643255Y-78806884D01*
X176424359Y-78991631D01*
X177091031Y-79236284D01*
X177305839Y-79338442D01*
X178062709Y-79783082D01*
X178688966Y-80300899D01*
X179184955Y-80892645D01*
X179551018Y-81559069D01*
X179787501Y-82300924D01*
X179894745Y-83118960D01*
X179873096Y-84013928D01*
X179722896Y-84986580D01*
X179643826Y-85338317D01*
X179329136Y-86489183D01*
X178907271Y-87742720D01*
X178379027Y-89097708D01*
X177745200Y-90552930D01*
X177006585Y-92107165D01*
X176163975Y-93759194D01*
X175218169Y-95507799D01*
X174169958Y-97351759D01*
X173020140Y-99289857D01*
X171769509Y-101320871D01*
X170418860Y-103443584D01*
X168968989Y-105656776D01*
X167420690Y-107959228D01*
X165774758Y-110349720D01*
X164031989Y-112827035D01*
X162193178Y-115389951D01*
X160259120Y-118037250D01*
X158230609Y-120767713D01*
X156108442Y-123580121D01*
X153893412Y-126473255D01*
X151586317Y-129445895D01*
X149187950Y-132496821D01*
X146699105Y-135624815D01*
X145446044Y-137186231D01*
X141935495Y-141514776D01*
X138436571Y-145761758D01*
X134972653Y-149898714D01*
X134508625Y-150447316D01*
X133976857Y-151072804D01*
X133538352Y-151584247D01*
X133191943Y-151982874D01*
X132936463Y-152269919D01*
X132770742Y-152446611D01*
X132693614Y-152514183D01*
X132703912Y-152473866D01*
X132800466Y-152326892D01*
X132982109Y-152074491D01*
X133247675Y-151717897D01*
X133297712Y-151651380D01*
X133538055Y-151331824D01*
X133849897Y-150917148D01*
X134218381Y-150427108D01*
X134628652Y-149881463D01*
X135065854Y-149299970D01*
X135515131Y-148702387D01*
X135961627Y-148108472D01*
X136302979Y-147653947D01*
X137554801Y-145978853D01*
X138740628Y-144378765D01*
X139857531Y-142857804D01*
X140902581Y-141420095D01*
X141872849Y-140069759D01*
X142765409Y-138810921D01*
X143577330Y-137647701D01*
X144305682Y-136584224D01*
X144947540Y-135624612D01*
X145499972Y-134772988D01*
X145960051Y-134033474D01*
X146008654Y-133952819D01*
X146194388Y-133639102D01*
X146414328Y-133259834D01*
X146670927Y-132810552D01*
X146966636Y-132286796D01*
X147303907Y-131684103D01*
X147685191Y-130998012D01*
X148112940Y-130224060D01*
X148589606Y-129357788D01*
X149117643Y-128394731D01*
X149699498Y-127330429D01*
X150337627Y-126160421D01*
X151034480Y-124880244D01*
X151792508Y-123485436D01*
X152614165Y-121971536D01*
X153501900Y-120334083D01*
X154458167Y-118568614D01*
X154694820Y-118131912D01*
X155084698Y-117415597D01*
X155420044Y-116806194D01*
X155711331Y-116286984D01*
X155969034Y-115841249D01*
X156203625Y-115452269D01*
X156425581Y-115103325D01*
X156645373Y-114777696D01*
X156873478Y-114458665D01*
X157120366Y-114129512D01*
X157396514Y-113773516D01*
X157712395Y-113373961D01*
X157773205Y-113299346D01*
X158025601Y-113009827D01*
X158371521Y-112633734D01*
X158798811Y-112183218D01*
X159295323Y-111670432D01*
X159848903Y-111107527D01*
X160447401Y-110506656D01*
X161078667Y-109879971D01*
X161730549Y-109239623D01*
X162390895Y-108597766D01*
X163047555Y-107966550D01*
X163688378Y-107358128D01*
X164301213Y-106784652D01*
X164886217Y-106235721D01*
X166190327Y-104963161D01*
X167429115Y-103680211D01*
X168618407Y-102367891D01*
X169774030Y-101007219D01*
X170911809Y-99579215D01*
X172047571Y-98064899D01*
X173197142Y-96445289D01*
X174376349Y-94701405D01*
X175161291Y-93493828D01*
X175939363Y-92242161D01*
X176620113Y-91080041D01*
X177207824Y-89998223D01*
X177706779Y-88987460D01*
X178121261Y-88038507D01*
X178455553Y-87142118D01*
X178713936Y-86289045D01*
X178900695Y-85470044D01*
X179020112Y-84675866D01*
X179060628Y-83834690D01*
X178981175Y-82993988D01*
X178777021Y-82225440D01*
X178451036Y-81535024D01*
X178006093Y-80928716D01*
X177445060Y-80412494D01*
X176770809Y-79992335D01*
X176301128Y-79781929D01*
X175611840Y-79541520D01*
X174864502Y-79344298D01*
X174110173Y-79205363D01*
X173737643Y-79162063D01*
X173070673Y-79116119D01*
X172337524Y-79095902D01*
X171587970Y-79101590D01*
X170871787Y-79133364D01*
X170238753Y-79191401D01*
X170008535Y-79219443D01*
X169663995Y-79259680D01*
X169377676Y-79291096D01*
X169195012Y-79308592D01*
X169062512Y-79315291D01*
X168974562Y-79305116D01*
X169006688Y-79274023D01*
X169142234Y-79225939D01*
X169364539Y-79164800D01*
X169656949Y-79094535D01*
X170002804Y-79019075D01*
X170385449Y-78942353D01*
X170788223Y-78868298D01*
X171194472Y-78800844D01*
X171587536Y-78743922D01*
X171861222Y-78710502D01*
X172856703Y-78633853D01*
X173835091Y-78625817D01*
X174772054Y-78684221D01*
G37*
G36*
X157433311Y-97521153D02*
G01*
X156814871Y-97366982D01*
X156277955Y-97233051D01*
X155943553Y-97149563D01*
X159082204Y-97149563D01*
X159827819Y-97340063D01*
X160049122Y-97396770D01*
X160453851Y-97500909D01*
X160931568Y-97624180D01*
X161440029Y-97755680D01*
X161936989Y-97884502D01*
X161942815Y-97886014D01*
X162374193Y-97994117D01*
X162755553Y-98082524D01*
X163063141Y-98146307D01*
X163273203Y-98180534D01*
X163361983Y-98180275D01*
X163338362Y-98111361D01*
X163249807Y-97933820D01*
X163108153Y-97668986D01*
X162925528Y-97337978D01*
X162714059Y-96961913D01*
X162485873Y-96561907D01*
X162253094Y-96159077D01*
X162027851Y-95774541D01*
X161822269Y-95429415D01*
X161648475Y-95144816D01*
X161518597Y-94941861D01*
X161444760Y-94841668D01*
X161430755Y-94848400D01*
X161330014Y-94933976D01*
X161146018Y-95104941D01*
X160894299Y-95346471D01*
X160590388Y-95643748D01*
X160249817Y-95981950D01*
X159082204Y-97149563D01*
X155943553Y-97149563D01*
X155835428Y-97122568D01*
X155500155Y-97038744D01*
X155285002Y-96984787D01*
X155202834Y-96963907D01*
X155211108Y-96918548D01*
X155303295Y-96795567D01*
X155461753Y-96625281D01*
X155782587Y-96304448D01*
X156965133Y-96609754D01*
X158147680Y-96915061D01*
X160984364Y-94078377D01*
X159842495Y-92244539D01*
X160500995Y-91586039D01*
X162573274Y-95040071D01*
X164645554Y-98494104D01*
X163986927Y-99152731D01*
X159625837Y-98067215D01*
X158863302Y-97877376D01*
X158455866Y-97775902D01*
X158120410Y-97692353D01*
X157433311Y-97521153D01*
G37*
G36*
X146440455Y-110960340D02*
G01*
X146561435Y-111045042D01*
X147165776Y-111468110D01*
X147733526Y-111865473D01*
X148252326Y-112228487D01*
X148709816Y-112548508D01*
X149093636Y-112816891D01*
X149391427Y-113024992D01*
X149590829Y-113164165D01*
X149679484Y-113225767D01*
X149691707Y-113234188D01*
X149757523Y-113293142D01*
X149755005Y-113358410D01*
X149669359Y-113461023D01*
X149485785Y-113632016D01*
X149147263Y-113939257D01*
X146326921Y-113518204D01*
X146235613Y-113504616D01*
X145606848Y-113413427D01*
X145026495Y-113333292D01*
X144511238Y-113266225D01*
X144077757Y-113214242D01*
X143742737Y-113179355D01*
X143522855Y-113163582D01*
X143434797Y-113168934D01*
X143444081Y-113257543D01*
X143515410Y-113474540D01*
X143645961Y-113812626D01*
X143832832Y-114264577D01*
X144073123Y-114823174D01*
X144363931Y-115481195D01*
X145364847Y-117721673D01*
X145051069Y-118067089D01*
X144901247Y-118228069D01*
X144775666Y-118354296D01*
X144721459Y-118396699D01*
X144712621Y-118390183D01*
X144608768Y-118316593D01*
X144397408Y-118167810D01*
X144090073Y-117951926D01*
X143698295Y-117677027D01*
X143233607Y-117351205D01*
X142707540Y-116982548D01*
X142131625Y-116579146D01*
X141517395Y-116149088D01*
X141299640Y-115996630D01*
X140696142Y-115573798D01*
X140134255Y-115179691D01*
X139625633Y-114822509D01*
X139181926Y-114510450D01*
X138814789Y-114251714D01*
X138535870Y-114054502D01*
X138356822Y-113927012D01*
X138289297Y-113877443D01*
X138291958Y-113830398D01*
X138374743Y-113713948D01*
X138515622Y-113569180D01*
X138677164Y-113430333D01*
X138821939Y-113331648D01*
X138912515Y-113307363D01*
X138930087Y-113317966D01*
X139054308Y-113401404D01*
X139282335Y-113558584D01*
X139600705Y-113780099D01*
X139995956Y-114056541D01*
X140454626Y-114378504D01*
X140963255Y-114736579D01*
X141508378Y-115121360D01*
X141743771Y-115287370D01*
X142270430Y-115656113D01*
X142752761Y-115990153D01*
X143177765Y-116280719D01*
X143532444Y-116519041D01*
X143803797Y-116696345D01*
X143978830Y-116803861D01*
X144044540Y-116832817D01*
X144045555Y-116828694D01*
X144019471Y-116726479D01*
X143940874Y-116520030D01*
X143820929Y-116237051D01*
X143670799Y-115905248D01*
X143604987Y-115762968D01*
X143410326Y-115335601D01*
X143188227Y-114840952D01*
X142961273Y-114329491D01*
X142752043Y-113851688D01*
X142237267Y-112666060D01*
X142407790Y-112463946D01*
X142431863Y-112435899D01*
X142515726Y-112356504D01*
X142615603Y-112314204D01*
X142764527Y-112306039D01*
X142995538Y-112329047D01*
X143341670Y-112380269D01*
X143552414Y-112412971D01*
X144452130Y-112552626D01*
X145216368Y-112671102D01*
X145855903Y-112769766D01*
X146381506Y-112849985D01*
X146803952Y-112913124D01*
X147134013Y-112960549D01*
X147382462Y-112993627D01*
X147560072Y-113013724D01*
X147677618Y-113022206D01*
X147745868Y-113020439D01*
X147775601Y-113009790D01*
X147777586Y-112991623D01*
X147762598Y-112967307D01*
X147741409Y-112938206D01*
X147740339Y-112936690D01*
X147653789Y-112859575D01*
X147464155Y-112714076D01*
X147192056Y-112515269D01*
X146858112Y-112278228D01*
X146482941Y-112018033D01*
X146170888Y-111803380D01*
X145766288Y-111523761D01*
X145329004Y-111220457D01*
X144876396Y-110905608D01*
X144425821Y-110591355D01*
X143994640Y-110289840D01*
X143600212Y-110013204D01*
X143259896Y-109773587D01*
X142991050Y-109583130D01*
X142811036Y-109453974D01*
X142737210Y-109398262D01*
X142755927Y-109357203D01*
X142859734Y-109240758D01*
X143026969Y-109081331D01*
X143346251Y-108793921D01*
X146440455Y-110960340D01*
G37*
G36*
X166265025Y-85937779D02*
G01*
X166425040Y-86050763D01*
X166676981Y-86227954D01*
X167004462Y-86457844D01*
X167391101Y-86728922D01*
X167820512Y-87029678D01*
X168203899Y-87298647D01*
X168603041Y-87580007D01*
X168947469Y-87824228D01*
X169220039Y-88019108D01*
X169403611Y-88152439D01*
X169481038Y-88212014D01*
X169485945Y-88242461D01*
X169440346Y-88326580D01*
X169325052Y-88469599D01*
X169130220Y-88682646D01*
X168846005Y-88976847D01*
X168462567Y-89363329D01*
X167377649Y-90448247D01*
X167051805Y-90237485D01*
X166930543Y-90158457D01*
X166773542Y-90053840D01*
X166702007Y-90002769D01*
X166714954Y-89979932D01*
X166811825Y-89867988D01*
X166987843Y-89679917D01*
X167225521Y-89434244D01*
X167507372Y-89149497D01*
X167654753Y-89001595D01*
X167931825Y-88718356D01*
X168116795Y-88518401D01*
X168221547Y-88387525D01*
X168257962Y-88311524D01*
X168237924Y-88276193D01*
X168162674Y-88231323D01*
X167993990Y-88112753D01*
X167787613Y-87956009D01*
X167751568Y-87927866D01*
X167560965Y-87793435D01*
X167390951Y-87719597D01*
X167184664Y-87689306D01*
X166885241Y-87685518D01*
X166830602Y-87686619D01*
X166182849Y-87774100D01*
X165532739Y-87986591D01*
X164915747Y-88306034D01*
X164367343Y-88714373D01*
X163922999Y-89193546D01*
X163618443Y-89671981D01*
X163397707Y-90232637D01*
X163326482Y-90786937D01*
X163404687Y-91331921D01*
X163632243Y-91864632D01*
X164009070Y-92382111D01*
X164275335Y-92655207D01*
X164855880Y-93104657D01*
X165493931Y-93433151D01*
X166170425Y-93637662D01*
X166866297Y-93715164D01*
X167562481Y-93662630D01*
X168239914Y-93477032D01*
X168879530Y-93155346D01*
X169290297Y-92856541D01*
X169749319Y-92397483D01*
X170085923Y-91891528D01*
X170293224Y-91352910D01*
X170364337Y-90795862D01*
X170292373Y-90234618D01*
X170258436Y-90096259D01*
X170223126Y-89917984D01*
X170219792Y-89837884D01*
X170309695Y-89772048D01*
X170479471Y-89667782D01*
X170675228Y-89556904D01*
X170845888Y-89468274D01*
X170940370Y-89430752D01*
X170961813Y-89436435D01*
X171040043Y-89539382D01*
X171123910Y-89743046D01*
X171203438Y-90010433D01*
X171268654Y-90304541D01*
X171309583Y-90588375D01*
X171316250Y-90824935D01*
X171248160Y-91289822D01*
X171035755Y-91923216D01*
X170701929Y-92512853D01*
X170262485Y-93047312D01*
X169733221Y-93515177D01*
X169129936Y-93905026D01*
X168468429Y-94205442D01*
X167764501Y-94405003D01*
X167033951Y-94492291D01*
X166292578Y-94455887D01*
X165885848Y-94383502D01*
X165156692Y-94167685D01*
X164485143Y-93858438D01*
X163884432Y-93468384D01*
X163367787Y-93010145D01*
X162948436Y-92496345D01*
X162639610Y-91939606D01*
X162454535Y-91352551D01*
X162406441Y-90747802D01*
X162426669Y-90520726D01*
X162551049Y-89965145D01*
X162765127Y-89416989D01*
X163045727Y-88941722D01*
X163246212Y-88690136D01*
X163809859Y-88149251D01*
X164472838Y-87712000D01*
X165221505Y-87386406D01*
X166042211Y-87180489D01*
X166240193Y-87141812D01*
X166415643Y-87094146D01*
X166483216Y-87056240D01*
X166446233Y-87008886D01*
X166314132Y-86897711D01*
X166119206Y-86755777D01*
X165958622Y-86643982D01*
X165793096Y-86525191D01*
X165711817Y-86461974D01*
X165714111Y-86428446D01*
X165790351Y-86312293D01*
X165934127Y-86152907D01*
X166030587Y-86058235D01*
X166157696Y-85940746D01*
X166213124Y-85900479D01*
X166265025Y-85937779D01*
G37*
G36*
X118314722Y-135028889D02*
G01*
X118811009Y-135135137D01*
X119276498Y-135328440D01*
X119687691Y-135596281D01*
X120021088Y-135926142D01*
X120253192Y-136305508D01*
X120360503Y-136721859D01*
X120362894Y-136900706D01*
X120307130Y-137232266D01*
X120170186Y-137618202D01*
X119944919Y-138076997D01*
X119624186Y-138627131D01*
X119608614Y-138652447D01*
X119324715Y-139133324D01*
X119125107Y-139519384D01*
X119001049Y-139832497D01*
X118943800Y-140094532D01*
X118944617Y-140327362D01*
X118949445Y-140359582D01*
X119066953Y-140638028D01*
X119294778Y-140895315D01*
X119597222Y-141105906D01*
X119938587Y-141244266D01*
X120283177Y-141284861D01*
X120538888Y-141244350D01*
X120957074Y-141080194D01*
X121369437Y-140816040D01*
X121743868Y-140478002D01*
X122048261Y-140092196D01*
X122250505Y-139684735D01*
X122307857Y-139462564D01*
X122328147Y-139088338D01*
X122257546Y-138752474D01*
X122101648Y-138499503D01*
X122098971Y-138496808D01*
X122041569Y-138407678D01*
X122070021Y-138318288D01*
X122201018Y-138207347D01*
X122451251Y-138053567D01*
X122553943Y-137995587D01*
X122702753Y-137934521D01*
X122810802Y-137957867D01*
X122914562Y-138082054D01*
X123050505Y-138323512D01*
X123161945Y-138569404D01*
X123261024Y-139034686D01*
X123217748Y-139515118D01*
X123030987Y-140017879D01*
X122699609Y-140550151D01*
X122287501Y-141025242D01*
X121791995Y-141435441D01*
X121255648Y-141742928D01*
X120698595Y-141940672D01*
X120140977Y-142021643D01*
X119602933Y-141978810D01*
X119104602Y-141805143D01*
X118847548Y-141651182D01*
X118510600Y-141381970D01*
X118234584Y-141084233D01*
X118059973Y-140797033D01*
X117981611Y-140477949D01*
X118000096Y-140071655D01*
X118131905Y-139601990D01*
X118379553Y-139060303D01*
X118745555Y-138437941D01*
X118974982Y-138069895D01*
X119193254Y-137682334D01*
X119332189Y-137369859D01*
X119399882Y-137108599D01*
X119404431Y-136874684D01*
X119353932Y-136644245D01*
X119272934Y-136462746D01*
X119033720Y-136181852D01*
X118701236Y-135972995D01*
X118305872Y-135848078D01*
X117878016Y-135819004D01*
X117448059Y-135897679D01*
X117352889Y-135932098D01*
X116935119Y-136157762D01*
X116528714Y-136483367D01*
X116167079Y-136874027D01*
X115883618Y-137294857D01*
X115711737Y-137710970D01*
X115696139Y-137778861D01*
X115682173Y-138184952D01*
X115791696Y-138572065D01*
X116012806Y-138893449D01*
X116106594Y-138995428D01*
X116146475Y-139088159D01*
X116084508Y-139151133D01*
X116047537Y-139171798D01*
X115880190Y-139267831D01*
X115673360Y-139388645D01*
X115382191Y-139560153D01*
X115170447Y-139274150D01*
X115105578Y-139182926D01*
X114851705Y-138701016D01*
X114745256Y-138213031D01*
X114786474Y-137714531D01*
X114975601Y-137201076D01*
X115312878Y-136668228D01*
X115346851Y-136623940D01*
X115786120Y-136136217D01*
X116292045Y-135703286D01*
X116826276Y-135354311D01*
X117350465Y-135118462D01*
X117811136Y-135022213D01*
X118314722Y-135028889D01*
G37*
%TO.C,R66*%
X76580000Y-94800460D02*
X76580000Y-94465218D01*
X75820000Y-94800460D02*
X75820000Y-94465218D01*
%TO.C,R79*%
X64937621Y-67690000D02*
X64602379Y-67690000D01*
X64937621Y-66930000D02*
X64602379Y-66930000D01*
%TO.C,R91*%
X92542379Y-65150000D02*
X92877621Y-65150000D01*
X92542379Y-64390000D02*
X92877621Y-64390000D01*
%TO.C,R100*%
X76580000Y-66880121D02*
X76580000Y-66544879D01*
X75820000Y-66880121D02*
X75820000Y-66544879D01*
%TO.C,R36*%
X88022654Y-121101668D02*
X88022654Y-121436910D01*
X87262654Y-121101668D02*
X87262654Y-121436910D01*
%TO.C,R48*%
X64937621Y-97410000D02*
X64602379Y-97410000D01*
X64937621Y-98170000D02*
X64602379Y-98170000D01*
%TO.C,R64*%
X74550000Y-112862379D02*
X74550000Y-113197621D01*
X75310000Y-112862379D02*
X75310000Y-113197621D01*
%TO.C,R4*%
X122655000Y-48487064D02*
X122655000Y-48032936D01*
X121185000Y-48487064D02*
X121185000Y-48032936D01*
%TO.C,R60*%
X88520000Y-90637694D02*
X88520000Y-90972936D01*
X89280000Y-90637694D02*
X89280000Y-90972936D01*
%TO.C,R109*%
X64937621Y-41530000D02*
X64602379Y-41530000D01*
X64937621Y-42290000D02*
X64602379Y-42290000D01*
%TO.C,R2*%
X160755000Y-63272936D02*
X160755000Y-63727064D01*
X159285000Y-63272936D02*
X159285000Y-63727064D01*
%TO.C,R61*%
X91820000Y-92877621D02*
X91820000Y-92542379D01*
X91060000Y-92877621D02*
X91060000Y-92542379D01*
%TO.C,R43*%
X64937621Y-85470000D02*
X64602379Y-85470000D01*
X64937621Y-84710000D02*
X64602379Y-84710000D01*
%TO.C,U5*%
X82550000Y-128895000D02*
X84500000Y-128895000D01*
X82550000Y-120025000D02*
X80600000Y-120025000D01*
X82550000Y-128895000D02*
X79100000Y-128895000D01*
X82550000Y-120025000D02*
X84500000Y-120025000D01*
%TO.C,D2*%
X95570000Y-38380000D02*
X97420000Y-38380000D01*
X95570000Y-35330000D02*
X95570000Y-36330000D01*
X95570000Y-37330000D02*
X95570000Y-38380000D01*
X95590000Y-35320000D02*
X98020000Y-35320000D01*
%TO.C,R96*%
X79842379Y-77850000D02*
X80177621Y-77850000D01*
X79842379Y-77090000D02*
X80177621Y-77090000D01*
%TO.C,R15*%
X64937621Y-136270000D02*
X64602379Y-136270000D01*
X64937621Y-135510000D02*
X64602379Y-135510000D01*
%TO.C,R99*%
X88520000Y-66853156D02*
X88520000Y-66517914D01*
X89280000Y-66853156D02*
X89280000Y-66517914D01*
%TO.C,R49*%
X64937621Y-100710000D02*
X64602379Y-100710000D01*
X64937621Y-99950000D02*
X64602379Y-99950000D01*
%TO.C,C11*%
X112295000Y-48521252D02*
X112295000Y-47998748D01*
X113765000Y-48521252D02*
X113765000Y-47998748D01*
%TO.C,R26*%
X67142379Y-122300000D02*
X67477621Y-122300000D01*
X67142379Y-121540000D02*
X67477621Y-121540000D01*
%TO.C,R124*%
X88520000Y-34749819D02*
X88520000Y-35085061D01*
X89280000Y-34749819D02*
X89280000Y-35085061D01*
%TO.C,R90*%
X92542379Y-61340000D02*
X92877621Y-61340000D01*
X92542379Y-60580000D02*
X92877621Y-60580000D01*
%TO.C,R78*%
X64937621Y-64390000D02*
X64602379Y-64390000D01*
X64937621Y-65150000D02*
X64602379Y-65150000D01*
%TO.C,R101*%
X77637621Y-57530000D02*
X77302379Y-57530000D01*
X77637621Y-56770000D02*
X77302379Y-56770000D01*
%TO.C,R14*%
X64937621Y-133730000D02*
X64602379Y-133730000D01*
X64937621Y-132970000D02*
X64602379Y-132970000D01*
%TO.C,R6*%
X108485000Y-48487064D02*
X108485000Y-48032936D01*
X109955000Y-48487064D02*
X109955000Y-48032936D01*
%TO.C,R59*%
X71287621Y-91820000D02*
X70952379Y-91820000D01*
X71287621Y-91060000D02*
X70952379Y-91060000D01*
%TO.C,C13*%
X85866248Y-117375000D02*
X86388752Y-117375000D01*
X85866248Y-118845000D02*
X86388752Y-118845000D01*
%TO.C,R46*%
X64937621Y-93090000D02*
X64602379Y-93090000D01*
X64937621Y-92330000D02*
X64602379Y-92330000D01*
%TO.C,R29*%
X88022510Y-125284587D02*
X88022510Y-124949345D01*
X87262510Y-125284587D02*
X87262510Y-124949345D01*
%TO.C,R35*%
X77590435Y-121118493D02*
X77590435Y-121453735D01*
X78350435Y-121118493D02*
X78350435Y-121453735D01*
%TO.C,R11*%
X64937621Y-125350000D02*
X64602379Y-125350000D01*
X64937621Y-126110000D02*
X64602379Y-126110000D01*
%TO.C,R47*%
X64937621Y-95630000D02*
X64602379Y-95630000D01*
X64937621Y-94870000D02*
X64602379Y-94870000D01*
%TO.C,C9*%
X126465000Y-54348748D02*
X126465000Y-54871252D01*
X124995000Y-54348748D02*
X124995000Y-54871252D01*
%TO.C,R34*%
X77090000Y-128437621D02*
X77090000Y-128102379D01*
X77850000Y-128437621D02*
X77850000Y-128102379D01*
%TO.C,R107*%
X64937621Y-37210000D02*
X64602379Y-37210000D01*
X64937621Y-36450000D02*
X64602379Y-36450000D01*
%TO.C,R76*%
X64937621Y-59310000D02*
X64602379Y-59310000D01*
X64937621Y-60070000D02*
X64602379Y-60070000D01*
%TO.C,R3*%
X128805000Y-54837064D02*
X128805000Y-54382936D01*
X130275000Y-54837064D02*
X130275000Y-54382936D01*
%TO.C,D1*%
X95590000Y-136285000D02*
X98020000Y-136285000D01*
X95570000Y-138295000D02*
X95570000Y-139345000D01*
X95570000Y-139345000D02*
X97420000Y-139345000D01*
X95570000Y-136295000D02*
X95570000Y-137295000D01*
%TO.C,R69*%
X89280000Y-94788448D02*
X89280000Y-94453206D01*
X88520000Y-94788448D02*
X88520000Y-94453206D01*
%TO.C,R108*%
X64937621Y-39750000D02*
X64602379Y-39750000D01*
X64937621Y-38990000D02*
X64602379Y-38990000D01*
%TO.C,R74*%
X64937621Y-54230000D02*
X64602379Y-54230000D01*
X64937621Y-54990000D02*
X64602379Y-54990000D01*
%TD*%
M02*
