M48
; DRILL file {KiCad (6.0.4)} date Mon Mar  6 22:36:37 2023
; FORMAT={-:-/ absolute / metric / decimal}
; #@! TF.CreationDate,2023-03-06T22:36:37-08:00
; #@! TF.GenerationSoftware,Kicad,Pcbnew,(6.0.4)
; #@! TF.FileFunction,MixedPlating,1,2
FMAT,2
METRIC
; #@! TA.AperFunction,Plated,PTH,ViaDrill
T1C0.400
; #@! TA.AperFunction,Plated,PTH,ViaDrill
T2C0.500
; #@! TA.AperFunction,Plated,PTH,ComponentDrill
T3C0.750
; #@! TA.AperFunction,Plated,PTH,ComponentDrill
T4C1.000
; #@! TA.AperFunction,Plated,PTH,ComponentDrill
T5C1.120
; #@! TA.AperFunction,Plated,PTH,ComponentDrill
T6C1.200
; #@! TA.AperFunction,Plated,PTH,ComponentDrill
T7C1.300
; #@! TA.AperFunction,Plated,PTH,ComponentDrill
T8C1.800
; #@! TA.AperFunction,NonPlated,NPTH,ComponentDrill
T9C1.650
; #@! TA.AperFunction,NonPlated,NPTH,ComponentDrill
T10C3.000
; #@! TA.AperFunction,NonPlated,NPTH,ComponentDrill
T11C3.200
%
G90
G05
T1
X80.01Y-110.49
X81.915Y-96.52
X83.82Y-37.986
X83.82Y-44.45
X84.455Y-100.33
X85.09Y-39.255
X85.09Y-44.45
X85.09Y-102.235
X85.09Y-111.924
X86.36Y-40.526
X86.36Y-44.45
X86.36Y-102.235
X86.36Y-110.654
X86.995Y-91.44
X87.63Y-41.795
X87.63Y-44.45
X87.63Y-102.235
X87.63Y-109.384
X88.9Y-74.93
X88.9Y-102.235
X88.9Y-108.114
X90.17Y-102.235
X90.17Y-106.844
X90.17Y-121.92
X91.44Y-45.72
X91.44Y-50.165
X93.345Y-93.345
X94.615Y-71.12
X94.615Y-76.2
X94.615Y-89.535
X96.52Y-59.575
X96.52Y-66.04
X96.52Y-82.435
X96.52Y-88.265
X97.155Y-44.45
X97.79Y-60.845
X97.79Y-66.04
X97.79Y-83.706
X97.79Y-88.265
X99.06Y-62.115
X99.06Y-66.04
X99.06Y-84.975
X99.06Y-88.265
X100.33Y-63.386
X100.33Y-66.04
X100.33Y-71.755
X100.33Y-86.245
X100.33Y-88.265
X101.6Y-76.2
X102.235Y-53.34
X102.87Y-69.85
X103.505Y-74.93
X106.68Y-56.515
X106.68Y-116.205
X107.95Y-58.42
X107.95Y-74.93
X107.95Y-95.885
X109.855Y-76.2
X109.855Y-90.805
X111.125Y-73.66
X111.76Y-50.8
X111.76Y-80.01
X113.03Y-58.42
X113.03Y-82.55
X116.84Y-103.505
X122.555Y-105.41
X123.825Y-51.435
X127.635Y-56.515
X130.81Y-66.675
X142.875Y-116.205
X144.78Y-72.39
X146.05Y-57.15
X146.05Y-59.69
X146.05Y-62.23
X146.05Y-64.77
X147.32Y-68.58
X147.32Y-92.71
X148.59Y-57.15
X148.59Y-59.69
X148.59Y-62.23
X148.59Y-64.77
X151.13Y-57.15
X151.13Y-64.77
X154.94Y-64.77
X154.94Y-81.745
X156.046Y-75.565
X156.845Y-69.215
X158.115Y-75.565
X160.02Y-73.025
X160.02Y-76.2
X161.29Y-69.215
X161.925Y-64.77
X162.56Y-59.69
X162.56Y-60.96
X162.56Y-62.23
X163.83Y-58.42
X163.83Y-64.77
X166.37Y-58.42
X166.37Y-64.77
X167.64Y-88.9
X168.91Y-58.42
X168.91Y-60.96
X168.91Y-64.77
X171.45Y-58.42
X171.45Y-62.23
X171.45Y-64.77
X177.8Y-81.28
X193.04Y-67.31
X193.04Y-72.39
X195.58Y-67.31
X195.58Y-69.85
X195.58Y-72.39
T2
X71.755Y-51.435
X71.755Y-56.515
X71.755Y-71.12
X71.755Y-85.09
X72.39Y-86.995
X72.39Y-89.535
X73.025Y-54.61
X73.025Y-70.485
X74.295Y-52.705
X74.295Y-70.485
X75.565Y-96.52
X76.34Y-48.895
X76.835Y-100.965
X81.28Y-67.31
X82.55Y-70.485
X86.36Y-74.93
X86.36Y-78.105
X88.9Y-94.615
X92.13Y-100.312
X93.345Y-99.695
X94.615Y-99.06
X106.68Y-103.505
X107.315Y-107.95
X109.22Y-100.751
X109.22Y-105.41
X111.125Y-69.215
X111.125Y-99.48
X120.015Y-102.235
X123.825Y-100.965
X126.365Y-117.475
X133.985Y-48.26
X133.985Y-53.34
X134.62Y-111.125
X135.255Y-50.8
X136.525Y-48.26
X136.525Y-53.34
X137.795Y-50.8
X139.065Y-48.26
X139.065Y-53.34
X140.335Y-50.8
X141.605Y-48.26
X141.605Y-53.34
X142.875Y-50.8
X144.145Y-48.26
X144.173Y-53.185
X154.305Y-95.885
X160.655Y-93.345
X162.56Y-80.645
X162.56Y-85.09
T3
X111.76Y-41.812
X114.3Y-41.812
X123.19Y-41.812
X125.73Y-41.812
T4
X76.2Y-29.21
X78.74Y-29.21
X116.215Y-62.26
X116.215Y-64.8
X116.215Y-67.34
X116.215Y-69.88
X116.215Y-72.42
X116.215Y-74.96
X116.215Y-77.5
X116.215Y-80.04
X116.215Y-82.58
X116.215Y-85.12
X116.215Y-87.66
X116.215Y-90.2
X116.215Y-92.74
X116.215Y-95.28
X116.215Y-97.82
X120.66Y-62.23
X120.66Y-64.77
X120.66Y-67.31
X120.66Y-69.85
X120.66Y-72.39
X120.66Y-74.93
X120.66Y-77.47
X120.66Y-80.01
X120.66Y-82.55
X120.66Y-85.09
X120.66Y-87.63
X120.66Y-90.17
X120.66Y-92.71
X120.66Y-95.25
X120.66Y-97.79
X135.9Y-62.23
X135.9Y-64.77
X135.9Y-67.31
X135.9Y-69.85
X135.9Y-72.39
X135.9Y-74.93
X135.9Y-77.47
X135.9Y-80.01
X135.9Y-82.55
X135.9Y-85.09
X135.9Y-87.63
X135.9Y-90.17
X135.9Y-92.71
X135.9Y-95.25
X135.9Y-97.79
X140.98Y-62.23
X140.98Y-64.77
X140.98Y-67.31
X140.98Y-69.85
X140.98Y-72.39
X140.98Y-74.93
X140.98Y-77.47
X140.98Y-80.01
X140.98Y-82.55
X140.98Y-85.09
X140.98Y-87.63
X140.98Y-90.17
X140.98Y-92.71
X140.98Y-95.25
X140.98Y-97.79
X149.225Y-95.885
X149.225Y-98.425
X149.86Y-73.66
X152.4Y-73.66
X171.45Y-105.41
X171.45Y-112.395
X171.45Y-121.92
X173.99Y-76.2
X176.53Y-76.2
T5
X77.56Y-118.423
X80.06Y-118.423
X82.56Y-118.423
T6
X66.668Y-40.148
X66.668Y-43.648
X66.668Y-47.148
X66.668Y-50.648
X66.668Y-54.148
X66.668Y-57.648
X66.668Y-61.147
X66.668Y-64.647
X66.668Y-68.147
X66.668Y-71.647
X66.668Y-79.517
X66.668Y-83.017
X66.668Y-86.517
X66.668Y-90.017
X66.668Y-93.517
X66.668Y-97.017
X66.668Y-100.517
X66.668Y-104.017
X66.668Y-107.517
X66.668Y-111.017
X78.097Y-60.467
X78.097Y-63.967
X78.097Y-67.468
X78.097Y-70.968
X78.097Y-74.468
X78.097Y-77.968
X78.097Y-81.468
X78.097Y-84.968
X78.097Y-88.468
X78.097Y-91.968
X80.86Y-101.223
X109.86Y-113.223
T7
X136.86Y-32.95
X136.86Y-43.11
X147.62Y-32.95
X147.62Y-43.11
X160.99Y-32.95
X160.99Y-43.11
X171.75Y-32.95
X171.75Y-43.11
T8
X102.87Y-40.22
X102.87Y-45.72
X176.01Y-108.585
X176.01Y-117.475
X176.01Y-126.365
X181.51Y-108.585
X181.51Y-117.475
X181.51Y-126.365
X184.15Y-40.74
X184.15Y-46.24
X191.77Y-40.74
X191.77Y-46.24
T9
X110.49Y-39.273
X115.57Y-39.273
X121.92Y-39.273
X127.0Y-39.273
T10
X102.87Y-32.92
X184.15Y-33.44
X188.81Y-108.585
X188.81Y-117.475
X188.81Y-126.365
X191.77Y-33.44
T11
X67.31Y-31.115
X67.31Y-125.73
X177.165Y-99.06
X193.675Y-55.245
T0
M30
