%TF.GenerationSoftware,KiCad,Pcbnew,(6.0.4)*%
%TF.CreationDate,2023-03-06T22:36:06-08:00*%
%TF.ProjectId,fcp-control-pcb,6663702d-636f-46e7-9472-6f6c2d706362,rev?*%
%TF.SameCoordinates,Original*%
%TF.FileFunction,Soldermask,Bot*%
%TF.FilePolarity,Negative*%
%FSLAX46Y46*%
G04 Gerber Fmt 4.6, Leading zero omitted, Abs format (unit mm)*
G04 Created by KiCad (PCBNEW (6.0.4)) date 2023-03-06 22:36:06*
%MOMM*%
%LPD*%
G01*
G04 APERTURE LIST*
G04 Aperture macros list*
%AMRoundRect*
0 Rectangle with rounded corners*
0 $1 Rounding radius*
0 $2 $3 $4 $5 $6 $7 $8 $9 X,Y pos of 4 corners*
0 Add a 4 corners polygon primitive as box body*
4,1,4,$2,$3,$4,$5,$6,$7,$8,$9,$2,$3,0*
0 Add four circle primitives for the rounded corners*
1,1,$1+$1,$2,$3*
1,1,$1+$1,$4,$5*
1,1,$1+$1,$6,$7*
1,1,$1+$1,$8,$9*
0 Add four rect primitives between the rounded corners*
20,1,$1+$1,$2,$3,$4,$5,0*
20,1,$1+$1,$4,$5,$6,$7,0*
20,1,$1+$1,$6,$7,$8,$9,0*
20,1,$1+$1,$8,$9,$2,$3,0*%
%AMFreePoly0*
4,1,9,5.362500,-0.866500,1.237500,-0.866500,1.237500,-0.450000,-1.237500,-0.450000,-1.237500,0.450000,1.237500,0.450000,1.237500,0.866500,5.362500,0.866500,5.362500,-0.866500,5.362500,-0.866500,$1*%
G04 Aperture macros list end*
%ADD10O,2.700000X3.700000*%
%ADD11RoundRect,0.250001X-1.099999X-1.599999X1.099999X-1.599999X1.099999X1.599999X-1.099999X1.599999X0*%
%ADD12C,3.000000*%
%ADD13RoundRect,0.250000X-1.550000X0.650000X-1.550000X-0.650000X1.550000X-0.650000X1.550000X0.650000X0*%
%ADD14O,3.600000X1.800000*%
%ADD15C,1.650000*%
%ADD16C,1.450000*%
%ADD17R,1.700000X1.700000*%
%ADD18RoundRect,0.250001X-1.599999X1.099999X-1.599999X-1.099999X1.599999X-1.099999X1.599999X1.099999X0*%
%ADD19O,3.700000X2.700000*%
%ADD20O,1.700000X1.700000*%
%ADD21C,3.200000*%
%ADD22C,2.500000*%
%ADD23C,1.680000*%
%ADD24C,1.800000*%
%ADD25R,1.600000X1.600000*%
%ADD26O,1.600000X1.600000*%
%ADD27RoundRect,0.250000X-0.475000X0.337500X-0.475000X-0.337500X0.475000X-0.337500X0.475000X0.337500X0*%
%ADD28RoundRect,0.250000X0.475000X-0.337500X0.475000X0.337500X-0.475000X0.337500X-0.475000X-0.337500X0*%
%ADD29RoundRect,0.250000X0.337500X0.475000X-0.337500X0.475000X-0.337500X-0.475000X0.337500X-0.475000X0*%
%ADD30RoundRect,0.250000X0.450000X-0.350000X0.450000X0.350000X-0.450000X0.350000X-0.450000X-0.350000X0*%
%ADD31RoundRect,0.150000X-0.150000X0.512500X-0.150000X-0.512500X0.150000X-0.512500X0.150000X0.512500X0*%
%ADD32R,0.900000X2.300000*%
%ADD33FreePoly0,270.000000*%
%ADD34RoundRect,0.137500X-0.662500X-0.137500X0.662500X-0.137500X0.662500X0.137500X-0.662500X0.137500X0*%
%ADD35RoundRect,0.250000X-0.337500X-0.475000X0.337500X-0.475000X0.337500X0.475000X-0.337500X0.475000X0*%
%ADD36RoundRect,0.100000X-0.637500X-0.100000X0.637500X-0.100000X0.637500X0.100000X-0.637500X0.100000X0*%
%ADD37FreePoly0,90.000000*%
%ADD38RoundRect,0.250000X-0.450000X0.350000X-0.450000X-0.350000X0.450000X-0.350000X0.450000X0.350000X0*%
G04 APERTURE END LIST*
D10*
%TO.C,J17*%
X102870000Y-45720000D03*
D11*
X102870000Y-40220000D03*
D12*
X102870000Y-32920000D03*
%TD*%
D13*
%TO.C,J15*%
X66667500Y-40147500D03*
D14*
X66667500Y-43647500D03*
X66667500Y-47147500D03*
X66667500Y-50647500D03*
X66667500Y-54147500D03*
X66667500Y-57647500D03*
X66667500Y-61147500D03*
X66667500Y-64647500D03*
X66667500Y-68147500D03*
X66667500Y-71647500D03*
%TD*%
D15*
%TO.C,D5*%
X127000000Y-39272500D03*
X121920000Y-39272500D03*
D16*
X123190000Y-41812500D03*
X125730000Y-41812500D03*
%TD*%
D17*
%TO.C,TP14*%
X171450000Y-121920000D03*
%TD*%
D12*
%TO.C,J10*%
X188810000Y-126365000D03*
D18*
X181510000Y-126365000D03*
D19*
X176010000Y-126365000D03*
%TD*%
D17*
%TO.C,J1*%
X116215000Y-62260000D03*
D20*
X116215000Y-64800000D03*
X116215000Y-67340000D03*
X116215000Y-69880000D03*
X116215000Y-72420000D03*
X116215000Y-74960000D03*
X116215000Y-77500000D03*
X116215000Y-80040000D03*
X116215000Y-82580000D03*
X116215000Y-85120000D03*
X116215000Y-87660000D03*
X116215000Y-90200000D03*
X116215000Y-92740000D03*
X116215000Y-95280000D03*
X116215000Y-97820000D03*
%TD*%
D17*
%TO.C,J9*%
X152400000Y-73660000D03*
D20*
X149860000Y-73660000D03*
%TD*%
D21*
%TO.C,H2*%
X193675000Y-55245000D03*
%TD*%
D17*
%TO.C,J2*%
X140980000Y-97790000D03*
D20*
X140980000Y-95250000D03*
X140980000Y-92710000D03*
X140980000Y-90170000D03*
X140980000Y-87630000D03*
X140980000Y-85090000D03*
X140980000Y-82550000D03*
X140980000Y-80010000D03*
X140980000Y-77470000D03*
X140980000Y-74930000D03*
X140980000Y-72390000D03*
X140980000Y-69850000D03*
X140980000Y-67310000D03*
X140980000Y-64770000D03*
X140980000Y-62230000D03*
%TD*%
D21*
%TO.C,H1*%
X177165000Y-99060000D03*
%TD*%
D17*
%TO.C,TP16*%
X171450000Y-105410000D03*
%TD*%
D22*
%TO.C,J4*%
X136860000Y-32950000D03*
X136860000Y-43110000D03*
X147620000Y-32950000D03*
X147620000Y-43110000D03*
%TD*%
D12*
%TO.C,J7*%
X184150000Y-33440000D03*
D11*
X184150000Y-40740000D03*
D10*
X184150000Y-46240000D03*
%TD*%
D13*
%TO.C,J13*%
X66667500Y-79517500D03*
D14*
X66667500Y-83017500D03*
X66667500Y-86517500D03*
X66667500Y-90017500D03*
X66667500Y-93517500D03*
X66667500Y-97017500D03*
X66667500Y-100517500D03*
X66667500Y-104017500D03*
X66667500Y-107517500D03*
X66667500Y-111017500D03*
%TD*%
D23*
%TO.C,IC1*%
X77560000Y-118423069D03*
X80060000Y-118423069D03*
X82560000Y-118423069D03*
D24*
X80860000Y-101223069D03*
X109860000Y-113223069D03*
%TD*%
D15*
%TO.C,D6*%
X110490000Y-39272500D03*
X115570000Y-39272500D03*
D16*
X111760000Y-41812500D03*
X114300000Y-41812500D03*
%TD*%
D17*
%TO.C,J5*%
X149225000Y-98425000D03*
D20*
X149225000Y-95885000D03*
%TD*%
D21*
%TO.C,H4*%
X67310000Y-125730000D03*
%TD*%
D17*
%TO.C,TP15*%
X171450000Y-112395000D03*
%TD*%
D12*
%TO.C,J12*%
X188810000Y-108585000D03*
D18*
X181510000Y-108585000D03*
D19*
X176010000Y-108585000D03*
%TD*%
D13*
%TO.C,J14*%
X78097500Y-60467500D03*
D14*
X78097500Y-63967500D03*
X78097500Y-67467500D03*
X78097500Y-70967500D03*
X78097500Y-74467500D03*
X78097500Y-77967500D03*
X78097500Y-81467500D03*
X78097500Y-84967500D03*
X78097500Y-88467500D03*
X78097500Y-91967500D03*
%TD*%
D12*
%TO.C,J6*%
X191770000Y-33440000D03*
D11*
X191770000Y-40740000D03*
D10*
X191770000Y-46240000D03*
%TD*%
D22*
%TO.C,J3*%
X160990000Y-32950000D03*
X160990000Y-43110000D03*
X171750000Y-43110000D03*
X171750000Y-32950000D03*
%TD*%
D17*
%TO.C,J16*%
X76200000Y-29210000D03*
D20*
X78740000Y-29210000D03*
%TD*%
D17*
%TO.C,J8*%
X176530000Y-76200000D03*
D20*
X173990000Y-76200000D03*
%TD*%
D25*
%TO.C,A1*%
X120660000Y-62230000D03*
D26*
X120660000Y-64770000D03*
X120660000Y-67310000D03*
X120660000Y-69850000D03*
X120660000Y-72390000D03*
X120660000Y-74930000D03*
X120660000Y-77470000D03*
X120660000Y-80010000D03*
X120660000Y-82550000D03*
X120660000Y-85090000D03*
X120660000Y-87630000D03*
X120660000Y-90170000D03*
X120660000Y-92710000D03*
X120660000Y-95250000D03*
X120660000Y-97790000D03*
X135900000Y-97790000D03*
X135900000Y-95250000D03*
X135900000Y-92710000D03*
X135900000Y-90170000D03*
X135900000Y-87630000D03*
X135900000Y-85090000D03*
X135900000Y-82550000D03*
X135900000Y-80010000D03*
X135900000Y-77470000D03*
X135900000Y-74930000D03*
X135900000Y-72390000D03*
X135900000Y-69850000D03*
X135900000Y-67310000D03*
X135900000Y-64770000D03*
X135900000Y-62230000D03*
%TD*%
D12*
%TO.C,J11*%
X188810000Y-117475000D03*
D18*
X181510000Y-117475000D03*
D19*
X176010000Y-117475000D03*
%TD*%
D21*
%TO.C,H3*%
X67310000Y-31115000D03*
%TD*%
D27*
%TO.C,C7*%
X121920000Y-53572500D03*
X121920000Y-55647500D03*
%TD*%
D28*
%TO.C,C8*%
X125730000Y-49297500D03*
X125730000Y-47222500D03*
%TD*%
D27*
%TO.C,C10*%
X109220000Y-53340000D03*
X109220000Y-55415000D03*
%TD*%
D29*
%TO.C,C4*%
X130577500Y-69850000D03*
X128502500Y-69850000D03*
%TD*%
D30*
%TO.C,R5*%
X116840000Y-55610000D03*
X116840000Y-53610000D03*
%TD*%
D27*
%TO.C,C12*%
X113030000Y-53340000D03*
X113030000Y-55415000D03*
%TD*%
D31*
%TO.C,U5*%
X155895000Y-71887500D03*
X156845000Y-71887500D03*
X157795000Y-71887500D03*
X157795000Y-74162500D03*
X156845000Y-74162500D03*
X155895000Y-74162500D03*
%TD*%
D32*
%TO.C,U4*%
X132485000Y-103895000D03*
D33*
X133985000Y-103982500D03*
D32*
X135485000Y-103895000D03*
%TD*%
D27*
%TO.C,C14*%
X128905000Y-104372500D03*
X128905000Y-106447500D03*
%TD*%
D30*
%TO.C,R4*%
X121920000Y-49260000D03*
X121920000Y-47260000D03*
%TD*%
D34*
%TO.C,RN7*%
X92000000Y-112395000D03*
X92000000Y-111125000D03*
X92000000Y-109855000D03*
X92000000Y-108585000D03*
X92000000Y-107315000D03*
X92000000Y-106045000D03*
X92000000Y-104775000D03*
X92000000Y-103505000D03*
X98500000Y-103505000D03*
X98500000Y-104775000D03*
X98500000Y-106045000D03*
X98500000Y-107315000D03*
X98500000Y-108585000D03*
X98500000Y-109855000D03*
X98500000Y-111125000D03*
X98500000Y-112395000D03*
%TD*%
D35*
%TO.C,C16*%
X96117500Y-39370000D03*
X98192500Y-39370000D03*
%TD*%
D28*
%TO.C,C11*%
X113030000Y-49297500D03*
X113030000Y-47222500D03*
%TD*%
D34*
%TO.C,RN3*%
X76760000Y-112395000D03*
X76760000Y-111125000D03*
X76760000Y-109855000D03*
X76760000Y-108585000D03*
X76760000Y-107315000D03*
X76760000Y-106045000D03*
X76760000Y-104775000D03*
X76760000Y-103505000D03*
X83260000Y-103505000D03*
X83260000Y-104775000D03*
X83260000Y-106045000D03*
X83260000Y-107315000D03*
X83260000Y-108585000D03*
X83260000Y-109855000D03*
X83260000Y-111125000D03*
X83260000Y-112395000D03*
%TD*%
D27*
%TO.C,C13*%
X139065000Y-104372500D03*
X139065000Y-106447500D03*
%TD*%
D36*
%TO.C,U10*%
X84767500Y-98795000D03*
X84767500Y-98145000D03*
X84767500Y-97495000D03*
X84767500Y-96845000D03*
X84767500Y-96195000D03*
X84767500Y-95545000D03*
X84767500Y-94895000D03*
X84767500Y-94245000D03*
X90492500Y-94245000D03*
X90492500Y-94895000D03*
X90492500Y-95545000D03*
X90492500Y-96195000D03*
X90492500Y-96845000D03*
X90492500Y-97495000D03*
X90492500Y-98145000D03*
X90492500Y-98795000D03*
%TD*%
D30*
%TO.C,R6*%
X109220000Y-49260000D03*
X109220000Y-47260000D03*
%TD*%
D28*
%TO.C,C15*%
X88265000Y-39137500D03*
X88265000Y-37062500D03*
%TD*%
D27*
%TO.C,C9*%
X125730000Y-53572500D03*
X125730000Y-55647500D03*
%TD*%
D32*
%TO.C,U6*%
X94210000Y-38980000D03*
D37*
X92710000Y-38892500D03*
D32*
X91210000Y-38980000D03*
%TD*%
D38*
%TO.C,R2*%
X152400000Y-77470000D03*
X152400000Y-79470000D03*
%TD*%
D30*
%TO.C,R3*%
X129540000Y-55610000D03*
X129540000Y-53610000D03*
%TD*%
M02*
