M48
; DRILL file {KiCad (6.0.4)} date Sat Jan 14 20:06:18 2023
; FORMAT={-:-/ absolute / inch / decimal}
; #@! TF.CreationDate,2023-01-14T20:06:18-08:00
; #@! TF.GenerationSoftware,Kicad,Pcbnew,(6.0.4)
; #@! TF.FileFunction,MixedPlating,1,2
FMAT,2
INCH
; #@! TA.AperFunction,Plated,PTH,ViaDrill
T1C0.0157
; #@! TA.AperFunction,Plated,PTH,ComponentDrill
T2C0.0295
; #@! TA.AperFunction,Plated,PTH,ComponentDrill
T3C0.0394
; #@! TA.AperFunction,Plated,PTH,ComponentDrill
T4C0.0441
; #@! TA.AperFunction,Plated,PTH,ComponentDrill
T5C0.0472
; #@! TA.AperFunction,Plated,PTH,ComponentDrill
T6C0.0512
; #@! TA.AperFunction,Plated,PTH,ComponentDrill
T7C0.0709
; #@! TA.AperFunction,NonPlated,NPTH,ComponentDrill
T8C0.0650
; #@! TA.AperFunction,NonPlated,NPTH,ComponentDrill
T9C0.1181
; #@! TA.AperFunction,NonPlated,NPTH,ComponentDrill
T10C0.1260
%
G90
G05
T1
X2.1559Y-5.0642
X2.35Y-5.2
X2.4Y-4.775
X2.4122Y-4.6372
X2.45Y-4.15
X2.45Y-5.05
X2.5Y-4.7
X2.525Y-5.3
X2.625Y-3.3535
X2.65Y-2.5
X2.65Y-2.9
X2.65Y-3.4465
X2.675Y-1.95
X2.675Y-2.05
X2.7Y-2.7
X2.7Y-2.85
X2.7Y-3.6
X2.7Y-5.65
X2.725Y-4.6
X2.75Y-1.65
X2.75Y-2.65
X2.75Y-3.0
X2.75Y-4.2
X2.75Y-4.7
X2.75Y-4.8
X2.75Y-4.9
X2.75Y-4.95
X2.75Y-5.6
X2.75Y-5.75
X2.8Y-1.65
X2.8Y-2.5
X2.8Y-3.45
X2.8Y-4.25
X2.8Y-5.8
X2.85Y-1.75
X2.85Y-3.4
X2.85Y-3.75
X2.85Y-4.4
X2.85Y-4.8
X2.85Y-4.85
X2.875Y-5.95
X2.9Y-1.9
X2.9Y-2.45
X2.9Y-2.5
X2.9Y-2.95
X2.9Y-3.05
X2.9Y-3.35
X2.9Y-3.55
X2.9Y-3.7
X2.9156Y-2.3559
X2.95Y-1.4961
X2.95Y-1.725
X2.95Y-2.25
X2.95Y-2.4
X2.95Y-3.6
X2.95Y-4.8
X2.95Y-4.95
X2.95Y-5.15
X2.95Y-5.3
X2.9674Y-5.0164
X3.0Y-1.3
X3.0Y-1.4
X3.0Y-4.3
X3.0Y-4.45
X3.0Y-4.6
X3.0Y-4.75
X3.025Y-1.675
X3.05Y-1.85
X3.05Y-3.05
X3.05Y-3.6
X3.05Y-4.4
X3.05Y-4.9
X3.05Y-4.95
X3.075Y-4.075
X3.1Y-3.35
X3.1Y-4.2
X3.1Y-5.2
X3.15Y-3.3
X3.15Y-5.15
X3.2Y-4.25
X3.225Y-2.4
X3.225Y-2.475
X3.225Y-2.6
X3.2262Y-2.5356
X3.2278Y-4.3448
X3.2367Y-4.4941
X3.25Y-1.8
X3.25Y-1.85
X3.25Y-1.95
X3.25Y-2.0
X3.25Y-2.15
X3.25Y-2.35
X3.25Y-2.6473
X3.25Y-2.95
X3.25Y-3.0
X3.25Y-3.05
X3.25Y-3.1
X3.25Y-3.15
X3.25Y-4.7
X3.2582Y-1.4755
X3.2855Y-3.6
X3.3Y-4.25
X3.3Y-5.55
X3.325Y-5.3
X3.425Y-1.85
X3.45Y-2.75
X3.475Y-1.475
X3.5Y-2.3
X3.5Y-4.525
X3.5Y-4.65
X3.5Y-4.9
X3.55Y-3.45
X3.575Y-3.125
X3.575Y-4.65
X3.5823Y-1.6603
X3.6Y-1.35
X3.6Y-2.35
X3.6Y-2.8
X3.6Y-4.05
X3.6Y-4.45
X3.6Y-4.8
X3.625Y-1.825
X3.65Y-4.7215
X3.65Y-4.8285
X3.65Y-4.9
X3.675Y-2.5
X3.7Y-1.6225
X3.7Y-4.5
X3.725Y-2.475
X3.725Y-2.525
X3.725Y-3.375
X3.75Y-2.2
X3.75Y-3.45
X3.75Y-3.8
X3.75Y-5.0
X3.8Y-1.65
X3.8Y-1.75
X3.8Y-2.9
X3.825Y-4.95
X3.8378Y-1.9743
X3.85Y-2.6
X3.9Y-2.2
X3.9Y-2.65
X3.95Y-4.225
X3.975Y-4.5
X3.9762Y-2.2345
X4.0Y-2.9
X4.025Y-3.675
X4.05Y-2.825
X4.05Y-4.5
X4.05Y-4.55
X4.1Y-5.0
X4.125Y-2.7
X4.125Y-4.775
X4.225Y-2.325
X4.225Y-3.5
X4.25Y-2.65
X4.25Y-2.8
X4.3Y-4.5
X4.35Y-2.325
X4.35Y-3.65
X4.4Y-2.0
X4.4Y-2.75
X4.425Y-3.1
X4.45Y-3.65
X4.45Y-5.725
X4.675Y-4.725
X4.7Y-2.25
X4.825Y-4.15
X4.875Y-2.025
X4.95Y-2.25
X5.025Y-2.225
X5.125Y-3.225
X5.15Y-2.625
X5.625Y-4.575
X5.7Y-2.85
X5.75Y-2.25
X5.75Y-2.35
X5.75Y-2.45
X5.75Y-2.55
X5.8Y-2.7
X5.8Y-3.65
X5.85Y-2.25
X5.85Y-2.35
X5.85Y-2.45
X5.85Y-2.55
X5.95Y-2.25
X5.95Y-2.55
X6.1Y-2.55
X6.1Y-3.2183
X6.35Y-2.6
X6.35Y-2.725
X6.4Y-2.35
X6.4Y-2.4
X6.4Y-2.45
X6.45Y-2.3
X6.45Y-2.55
X6.55Y-2.3
X6.55Y-2.55
X6.6Y-3.5
X6.65Y-2.3
X6.65Y-2.4
X6.65Y-2.55
X6.75Y-2.3
X6.75Y-2.45
X6.75Y-2.55
X7.0Y-3.2
X7.6Y-2.65
X7.6Y-2.85
X7.7Y-2.65
X7.7Y-2.75
X7.7Y-2.85
T2
X4.4Y-1.6462
X4.5Y-1.6462
X4.85Y-1.6462
X4.95Y-1.6462
T3
X4.5754Y-2.4512
X4.5754Y-2.5512
X4.5754Y-2.6512
X4.5754Y-2.7512
X4.5754Y-2.8512
X4.5754Y-2.9512
X4.5754Y-3.0512
X4.5754Y-3.1512
X4.5754Y-3.2512
X4.5754Y-3.3512
X4.5754Y-3.4512
X4.5754Y-3.5512
X4.5754Y-3.6512
X4.5754Y-3.7512
X4.5754Y-3.8512
X4.7504Y-2.45
X4.7504Y-2.55
X4.7504Y-2.65
X4.7504Y-2.75
X4.7504Y-2.85
X4.7504Y-2.95
X4.7504Y-3.05
X4.7504Y-3.15
X4.7504Y-3.25
X4.7504Y-3.35
X4.7504Y-3.45
X4.7504Y-3.55
X4.7504Y-3.65
X4.7504Y-3.75
X4.7504Y-3.85
X5.3504Y-2.45
X5.3504Y-2.55
X5.3504Y-2.65
X5.3504Y-2.75
X5.3504Y-2.85
X5.3504Y-2.95
X5.3504Y-3.05
X5.3504Y-3.15
X5.3504Y-3.25
X5.3504Y-3.35
X5.3504Y-3.45
X5.3504Y-3.55
X5.3504Y-3.65
X5.3504Y-3.75
X5.3504Y-3.85
X5.5504Y-2.45
X5.5504Y-2.55
X5.5504Y-2.65
X5.5504Y-2.75
X5.5504Y-2.85
X5.5504Y-2.95
X5.5504Y-3.05
X5.5504Y-3.15
X5.5504Y-3.25
X5.5504Y-3.35
X5.5504Y-3.45
X5.5504Y-3.55
X5.5504Y-3.65
X5.5504Y-3.75
X5.5504Y-3.85
X5.9Y-2.9
X6.0Y-2.9
X6.5Y-5.275
X6.7Y-5.275
X6.85Y-3.0
X6.9Y-5.275
X6.95Y-3.0
T4
X4.3785Y-5.9561
X4.477Y-5.9561
X4.5754Y-5.9561
T5
X2.2747Y-1.4806
X2.2747Y-1.6184
X2.2747Y-1.7562
X2.2747Y-1.894
X2.2747Y-2.0318
X2.2747Y-2.1696
X2.2747Y-2.3074
X2.2747Y-2.4452
X2.2747Y-2.583
X2.2747Y-2.7208
X2.2747Y-3.0306
X2.2747Y-3.1684
X2.2747Y-3.3062
X2.2747Y-3.444
X2.2747Y-3.5818
X2.2747Y-3.7196
X2.2747Y-3.8574
X2.2747Y-3.9952
X2.2747Y-4.133
X2.2747Y-4.2708
X2.2747Y-4.5806
X2.2747Y-4.7184
X2.2747Y-4.8562
X2.2747Y-4.994
X2.2747Y-5.1318
X2.2747Y-5.2696
X2.2747Y-5.4074
X2.2747Y-5.5452
X2.2747Y-5.683
X2.2747Y-5.8208
X4.5085Y-5.2789
X5.6502Y-5.7514
T6
X5.3882Y-1.2972
X5.3882Y-1.6972
X5.8118Y-1.2972
X5.8118Y-1.6972
X6.3382Y-1.2972
X6.3382Y-1.6972
X6.7618Y-1.2972
X6.7618Y-1.6972
T7
X6.9295Y-4.275
X6.9295Y-4.625
X6.9295Y-4.975
X7.1461Y-4.275
X7.1461Y-4.625
X7.1461Y-4.975
X7.25Y-1.6039
X7.25Y-1.8205
X7.6Y-1.6039
X7.6Y-1.8205
T8
X4.35Y-1.5462
X4.55Y-1.5462
X4.8Y-1.5462
X5.0Y-1.5462
T9
X7.25Y-1.3165
X7.4335Y-4.275
X7.4335Y-4.625
X7.4335Y-4.975
X7.6Y-1.3165
T10
X2.3Y-1.15
X3.5Y-5.8
X7.5Y-3.3
X7.55Y-5.8
T0
M30
