%TF.GenerationSoftware,KiCad,Pcbnew,(6.0.4)*%
%TF.CreationDate,2023-03-06T22:36:06-08:00*%
%TF.ProjectId,fcp-control-pcb,6663702d-636f-46e7-9472-6f6c2d706362,rev?*%
%TF.SameCoordinates,Original*%
%TF.FileFunction,Paste,Top*%
%TF.FilePolarity,Positive*%
%FSLAX46Y46*%
G04 Gerber Fmt 4.6, Leading zero omitted, Abs format (unit mm)*
G04 Created by KiCad (PCBNEW (6.0.4)) date 2023-03-06 22:36:06*
%MOMM*%
%LPD*%
G01*
G04 APERTURE LIST*
G04 Aperture macros list*
%AMRoundRect*
0 Rectangle with rounded corners*
0 $1 Rounding radius*
0 $2 $3 $4 $5 $6 $7 $8 $9 X,Y pos of 4 corners*
0 Add a 4 corners polygon primitive as box body*
4,1,4,$2,$3,$4,$5,$6,$7,$8,$9,$2,$3,0*
0 Add four circle primitives for the rounded corners*
1,1,$1+$1,$2,$3*
1,1,$1+$1,$4,$5*
1,1,$1+$1,$6,$7*
1,1,$1+$1,$8,$9*
0 Add four rect primitives between the rounded corners*
20,1,$1+$1,$2,$3,$4,$5,0*
20,1,$1+$1,$4,$5,$6,$7,0*
20,1,$1+$1,$6,$7,$8,$9,0*
20,1,$1+$1,$8,$9,$2,$3,0*%
%AMFreePoly0*
4,1,11,1.015000,1.170000,0.435000,0.575000,0.435000,-0.575000,1.015000,-1.170000,1.015000,-1.945000,0.125000,-1.945000,-0.435000,-1.395000,-0.435000,1.395000,0.125000,1.945000,1.015000,1.945000,1.015000,1.170000,1.015000,1.170000,$1*%
%AMFreePoly1*
4,1,11,0.435000,1.395000,0.435000,-1.395000,-0.125000,-1.945000,-1.015000,-1.945000,-1.015000,-1.170000,-0.435000,-0.575000,-0.435000,0.575000,-1.015000,1.170000,-1.015000,1.945000,-0.125000,1.945000,0.435000,1.395000,0.435000,1.395000,$1*%
%AMFreePoly2*
4,1,9,5.362500,-0.866500,1.237500,-0.866500,1.237500,-0.450000,-1.237500,-0.450000,-1.237500,0.450000,1.237500,0.450000,1.237500,0.866500,5.362500,0.866500,5.362500,-0.866500,5.362500,-0.866500,$1*%
G04 Aperture macros list end*
%ADD10C,0.010000*%
%ADD11RoundRect,0.137500X0.662500X0.137500X-0.662500X0.137500X-0.662500X-0.137500X0.662500X-0.137500X0*%
%ADD12RoundRect,0.042000X0.258000X-0.943000X0.258000X0.943000X-0.258000X0.943000X-0.258000X-0.943000X0*%
%ADD13RoundRect,0.250000X-0.475000X0.337500X-0.475000X-0.337500X0.475000X-0.337500X0.475000X0.337500X0*%
%ADD14RoundRect,0.250000X0.337500X0.475000X-0.337500X0.475000X-0.337500X-0.475000X0.337500X-0.475000X0*%
%ADD15R,2.660000X1.700000*%
%ADD16R,1.700000X1.700000*%
%ADD17RoundRect,0.100000X0.637500X0.100000X-0.637500X0.100000X-0.637500X-0.100000X0.637500X-0.100000X0*%
%ADD18RoundRect,0.250000X-0.350000X-0.450000X0.350000X-0.450000X0.350000X0.450000X-0.350000X0.450000X0*%
%ADD19RoundRect,0.080000X-0.080000X-0.160000X0.080000X-0.160000X0.080000X0.160000X-0.080000X0.160000X0*%
%ADD20RoundRect,0.062500X-0.325000X-0.062500X0.325000X-0.062500X0.325000X0.062500X-0.325000X0.062500X0*%
%ADD21R,4.860000X3.360000*%
%ADD22R,1.400000X1.390000*%
%ADD23R,0.500000X0.863000*%
%ADD24R,0.300000X1.200000*%
%ADD25R,2.620000X0.400000*%
%ADD26R,1.600000X0.700000*%
%ADD27R,0.545000X0.700000*%
%ADD28R,1.225000X0.450000*%
%ADD29R,1.275000X0.863000*%
%ADD30R,2.620000X0.950000*%
%ADD31R,0.400000X0.500000*%
%ADD32R,2.055000X0.400000*%
%ADD33R,1.275000X0.700000*%
%ADD34R,2.570000X0.400000*%
%ADD35R,1.225000X0.700000*%
%ADD36R,0.595000X0.450000*%
%ADD37R,0.455000X0.700000*%
%ADD38R,2.570000X0.537000*%
%ADD39R,1.500000X0.863000*%
%ADD40FreePoly0,270.000000*%
%ADD41FreePoly1,270.000000*%
%ADD42RoundRect,0.250000X0.475000X-0.337500X0.475000X0.337500X-0.475000X0.337500X-0.475000X-0.337500X0*%
%ADD43RoundRect,0.218750X-0.218750X-0.256250X0.218750X-0.256250X0.218750X0.256250X-0.218750X0.256250X0*%
%ADD44R,2.300000X0.900000*%
%ADD45FreePoly2,0.000000*%
%ADD46R,1.190000X3.300000*%
%ADD47R,0.500000X0.350000*%
%ADD48R,0.300000X0.400000*%
%ADD49R,0.430000X0.380000*%
G04 APERTURE END LIST*
%TO.C,Q1*%
G36*
X167280888Y-62318685D02*
G01*
X165637388Y-62318685D01*
X165637388Y-60990485D01*
X167280888Y-60990485D01*
X167280888Y-62318685D01*
G37*
D10*
X167280888Y-62318685D02*
X165637388Y-62318685D01*
X165637388Y-60990485D01*
X167280888Y-60990485D01*
X167280888Y-62318685D01*
%TD*%
D11*
%TO.C,RN8*%
X97230000Y-42545000D03*
X97230000Y-41275000D03*
X97230000Y-40005000D03*
X97230000Y-38735000D03*
X97230000Y-37465000D03*
X97230000Y-36195000D03*
X97230000Y-34925000D03*
X97230000Y-33655000D03*
X90730000Y-33655000D03*
X90730000Y-34925000D03*
X90730000Y-36195000D03*
X90730000Y-37465000D03*
X90730000Y-38735000D03*
X90730000Y-40005000D03*
X90730000Y-41275000D03*
X90730000Y-42545000D03*
%TD*%
D12*
%TO.C,U2*%
X163195000Y-74860000D03*
X164465000Y-74860000D03*
X165735000Y-74860000D03*
X167005000Y-74860000D03*
X167005000Y-69920000D03*
X165735000Y-69920000D03*
X164465000Y-69920000D03*
X163195000Y-69920000D03*
%TD*%
D13*
%TO.C,C6*%
X158115000Y-70717500D03*
X158115000Y-72792500D03*
%TD*%
D14*
%TO.C,C3*%
X124227500Y-119380000D03*
X122152500Y-119380000D03*
%TD*%
D15*
%TO.C,F1*%
X190623000Y-72300000D03*
D16*
X192913000Y-69850000D03*
D15*
X190623000Y-67400000D03*
X182795000Y-72300000D03*
D16*
X180505000Y-69850000D03*
D15*
X182795000Y-67400000D03*
%TD*%
D17*
%TO.C,U7*%
X84142500Y-51805000D03*
X84142500Y-51155000D03*
X84142500Y-50505000D03*
X84142500Y-49855000D03*
X84142500Y-49205000D03*
X84142500Y-48555000D03*
X84142500Y-47905000D03*
X84142500Y-47255000D03*
X78417500Y-47255000D03*
X78417500Y-47905000D03*
X78417500Y-48555000D03*
X78417500Y-49205000D03*
X78417500Y-49855000D03*
X78417500Y-50505000D03*
X78417500Y-51155000D03*
X78417500Y-51805000D03*
%TD*%
D18*
%TO.C,R8*%
X155315219Y-116205000D03*
X157315219Y-116205000D03*
%TD*%
D19*
%TO.C,U1*%
X130610000Y-114600000D03*
X131010000Y-114000000D03*
X131010000Y-114600000D03*
X130610000Y-114000000D03*
D20*
X129822500Y-113550000D03*
X129822500Y-114050000D03*
X129822500Y-114550000D03*
X129822500Y-115050000D03*
X131797500Y-115050000D03*
X131797500Y-114550000D03*
X131797500Y-114050000D03*
X131797500Y-113550000D03*
%TD*%
D11*
%TO.C,RN5*%
X109930000Y-64135000D03*
X109930000Y-62865000D03*
X109930000Y-61595000D03*
X109930000Y-60325000D03*
X109930000Y-59055000D03*
X109930000Y-57785000D03*
X109930000Y-56515000D03*
X109930000Y-55245000D03*
X103430000Y-55245000D03*
X103430000Y-56515000D03*
X103430000Y-57785000D03*
X103430000Y-59055000D03*
X103430000Y-60325000D03*
X103430000Y-61595000D03*
X103430000Y-62865000D03*
X103430000Y-64135000D03*
%TD*%
%TO.C,RN1*%
X94690000Y-64135000D03*
X94690000Y-62865000D03*
X94690000Y-61595000D03*
X94690000Y-60325000D03*
X94690000Y-59055000D03*
X94690000Y-57785000D03*
X94690000Y-56515000D03*
X94690000Y-55245000D03*
X88190000Y-55245000D03*
X88190000Y-56515000D03*
X88190000Y-57785000D03*
X88190000Y-59055000D03*
X88190000Y-60325000D03*
X88190000Y-61595000D03*
X88190000Y-62865000D03*
X88190000Y-64135000D03*
%TD*%
D21*
%TO.C,D3*%
X175410000Y-55880000D03*
D22*
X179392000Y-54960000D03*
X179392000Y-56800000D03*
%TD*%
D11*
%TO.C,RN6*%
X109930000Y-86995000D03*
X109930000Y-85725000D03*
X109930000Y-84455000D03*
X109930000Y-83185000D03*
X109930000Y-81915000D03*
X109930000Y-80645000D03*
X109930000Y-79375000D03*
X109930000Y-78105000D03*
X103430000Y-78105000D03*
X103430000Y-79375000D03*
X103430000Y-80645000D03*
X103430000Y-81915000D03*
X103430000Y-83185000D03*
X103430000Y-84455000D03*
X103430000Y-85725000D03*
X103430000Y-86995000D03*
%TD*%
D21*
%TO.C,D4*%
X180340000Y-62230000D03*
D22*
X176358000Y-61310000D03*
X176358000Y-63150000D03*
%TD*%
D23*
%TO.C,U3*%
X153295000Y-60220500D03*
D24*
X152170000Y-67300000D03*
X156170000Y-67300000D03*
D25*
X150730000Y-59389000D03*
D26*
X152245000Y-61939000D03*
D27*
X155572500Y-61939000D03*
D28*
X150032500Y-60014000D03*
D24*
X150170000Y-67300000D03*
D29*
X157282500Y-60220500D03*
D24*
X155170000Y-67300000D03*
X151170000Y-67300000D03*
X157170000Y-67300000D03*
D30*
X150730000Y-60914000D03*
D31*
X150670000Y-66990000D03*
D32*
X154072500Y-59389000D03*
D33*
X157282500Y-61939000D03*
D24*
X151170000Y-67300000D03*
D31*
X156670000Y-66990000D03*
D34*
X156585000Y-59389000D03*
D24*
X153170000Y-67300000D03*
D35*
X150032500Y-61939000D03*
D36*
X151742500Y-60014000D03*
D24*
X154170000Y-67300000D03*
D37*
X154072500Y-61939000D03*
D38*
X156585000Y-61120500D03*
D39*
X155095000Y-60220500D03*
%TD*%
D17*
%TO.C,U8*%
X96842500Y-73395000D03*
X96842500Y-72745000D03*
X96842500Y-72095000D03*
X96842500Y-71445000D03*
X96842500Y-70795000D03*
X96842500Y-70145000D03*
X96842500Y-69495000D03*
X96842500Y-68845000D03*
X91117500Y-68845000D03*
X91117500Y-69495000D03*
X91117500Y-70145000D03*
X91117500Y-70795000D03*
X91117500Y-71445000D03*
X91117500Y-72095000D03*
X91117500Y-72745000D03*
X91117500Y-73395000D03*
%TD*%
D40*
%TO.C,L1*%
X139700000Y-112535000D03*
D41*
X139700000Y-116065000D03*
%TD*%
D42*
%TO.C,C5*%
X194310000Y-65575000D03*
X194310000Y-63500000D03*
%TD*%
D18*
%TO.C,R1*%
X155210000Y-77470000D03*
X157210000Y-77470000D03*
%TD*%
D43*
%TO.C,D7*%
X150737281Y-125095000D03*
X152312281Y-125095000D03*
%TD*%
D18*
%TO.C,R9*%
X155315219Y-107315000D03*
X157315219Y-107315000D03*
%TD*%
D11*
%TO.C,RN2*%
X94690000Y-86995000D03*
X94690000Y-85725000D03*
X94690000Y-84455000D03*
X94690000Y-83185000D03*
X94690000Y-81915000D03*
X94690000Y-80645000D03*
X94690000Y-79375000D03*
X94690000Y-78105000D03*
X88190000Y-78105000D03*
X88190000Y-79375000D03*
X88190000Y-80645000D03*
X88190000Y-81915000D03*
X88190000Y-83185000D03*
X88190000Y-84455000D03*
X88190000Y-85725000D03*
X88190000Y-86995000D03*
%TD*%
D43*
%TO.C,D8*%
X150457500Y-116205000D03*
X152032500Y-116205000D03*
%TD*%
D11*
%TO.C,RN4*%
X81990000Y-42545000D03*
X81990000Y-41275000D03*
X81990000Y-40005000D03*
X81990000Y-38735000D03*
X81990000Y-37465000D03*
X81990000Y-36195000D03*
X81990000Y-34925000D03*
X81990000Y-33655000D03*
X75490000Y-33655000D03*
X75490000Y-34925000D03*
X75490000Y-36195000D03*
X75490000Y-37465000D03*
X75490000Y-38735000D03*
X75490000Y-40005000D03*
X75490000Y-41275000D03*
X75490000Y-42545000D03*
%TD*%
D44*
%TO.C,Q3*%
X162005000Y-115975000D03*
D45*
X162092500Y-117475000D03*
D44*
X162005000Y-118975000D03*
%TD*%
%TO.C,Q4*%
X162005000Y-107085000D03*
D45*
X162092500Y-108585000D03*
D44*
X162005000Y-110085000D03*
%TD*%
D46*
%TO.C,RV2*%
X172720000Y-84430000D03*
X170180000Y-90830000D03*
X167640000Y-84430000D03*
%TD*%
D43*
%TO.C,D9*%
X150457500Y-107315000D03*
X152032500Y-107315000D03*
%TD*%
D47*
%TO.C,Q1*%
X164699138Y-60679585D03*
X164699138Y-61329585D03*
X164699138Y-61979585D03*
X164699138Y-62629585D03*
D48*
X167599138Y-62629585D03*
X167599138Y-61979585D03*
X167599138Y-61329585D03*
X167599138Y-60679585D03*
D49*
X166099138Y-60239585D03*
X166099138Y-63069585D03*
%TD*%
D44*
%TO.C,Q2*%
X162014781Y-124865000D03*
D45*
X162102281Y-126365000D03*
D44*
X162014781Y-127865000D03*
%TD*%
D18*
%TO.C,R7*%
X155325000Y-125095000D03*
X157325000Y-125095000D03*
%TD*%
D14*
%TO.C,C2*%
X124227500Y-114300000D03*
X122152500Y-114300000D03*
%TD*%
D46*
%TO.C,RV1*%
X160020000Y-84430000D03*
X157480000Y-90830000D03*
X154940000Y-84430000D03*
%TD*%
D14*
%TO.C,C1*%
X124227500Y-109220000D03*
X122152500Y-109220000D03*
%TD*%
D17*
%TO.C,U9*%
X96842500Y-96255000D03*
X96842500Y-95605000D03*
X96842500Y-94955000D03*
X96842500Y-94305000D03*
X96842500Y-93655000D03*
X96842500Y-93005000D03*
X96842500Y-92355000D03*
X96842500Y-91705000D03*
X91117500Y-91705000D03*
X91117500Y-92355000D03*
X91117500Y-93005000D03*
X91117500Y-93655000D03*
X91117500Y-94305000D03*
X91117500Y-94955000D03*
X91117500Y-95605000D03*
X91117500Y-96255000D03*
%TD*%
M02*
