%TF.GenerationSoftware,KiCad,Pcbnew,(6.0.4)*%
%TF.CreationDate,2023-03-06T22:36:06-08:00*%
%TF.ProjectId,fcp-control-pcb,6663702d-636f-46e7-9472-6f6c2d706362,rev?*%
%TF.SameCoordinates,Original*%
%TF.FileFunction,Paste,Bot*%
%TF.FilePolarity,Positive*%
%FSLAX46Y46*%
G04 Gerber Fmt 4.6, Leading zero omitted, Abs format (unit mm)*
G04 Created by KiCad (PCBNEW (6.0.4)) date 2023-03-06 22:36:06*
%MOMM*%
%LPD*%
G01*
G04 APERTURE LIST*
G04 Aperture macros list*
%AMRoundRect*
0 Rectangle with rounded corners*
0 $1 Rounding radius*
0 $2 $3 $4 $5 $6 $7 $8 $9 X,Y pos of 4 corners*
0 Add a 4 corners polygon primitive as box body*
4,1,4,$2,$3,$4,$5,$6,$7,$8,$9,$2,$3,0*
0 Add four circle primitives for the rounded corners*
1,1,$1+$1,$2,$3*
1,1,$1+$1,$4,$5*
1,1,$1+$1,$6,$7*
1,1,$1+$1,$8,$9*
0 Add four rect primitives between the rounded corners*
20,1,$1+$1,$2,$3,$4,$5,0*
20,1,$1+$1,$4,$5,$6,$7,0*
20,1,$1+$1,$6,$7,$8,$9,0*
20,1,$1+$1,$8,$9,$2,$3,0*%
%AMFreePoly0*
4,1,9,5.362500,-0.866500,1.237500,-0.866500,1.237500,-0.450000,-1.237500,-0.450000,-1.237500,0.450000,1.237500,0.450000,1.237500,0.866500,5.362500,0.866500,5.362500,-0.866500,5.362500,-0.866500,$1*%
G04 Aperture macros list end*
%ADD10RoundRect,0.250000X-0.475000X0.337500X-0.475000X-0.337500X0.475000X-0.337500X0.475000X0.337500X0*%
%ADD11RoundRect,0.250000X0.475000X-0.337500X0.475000X0.337500X-0.475000X0.337500X-0.475000X-0.337500X0*%
%ADD12RoundRect,0.250000X0.337500X0.475000X-0.337500X0.475000X-0.337500X-0.475000X0.337500X-0.475000X0*%
%ADD13RoundRect,0.250000X0.450000X-0.350000X0.450000X0.350000X-0.450000X0.350000X-0.450000X-0.350000X0*%
%ADD14RoundRect,0.150000X-0.150000X0.512500X-0.150000X-0.512500X0.150000X-0.512500X0.150000X0.512500X0*%
%ADD15R,0.900000X2.300000*%
%ADD16FreePoly0,270.000000*%
%ADD17RoundRect,0.137500X-0.662500X-0.137500X0.662500X-0.137500X0.662500X0.137500X-0.662500X0.137500X0*%
%ADD18RoundRect,0.250000X-0.337500X-0.475000X0.337500X-0.475000X0.337500X0.475000X-0.337500X0.475000X0*%
%ADD19RoundRect,0.100000X-0.637500X-0.100000X0.637500X-0.100000X0.637500X0.100000X-0.637500X0.100000X0*%
%ADD20FreePoly0,90.000000*%
%ADD21RoundRect,0.250000X-0.450000X0.350000X-0.450000X-0.350000X0.450000X-0.350000X0.450000X0.350000X0*%
G04 APERTURE END LIST*
D10*
%TO.C,C7*%
X121920000Y-53572500D03*
X121920000Y-55647500D03*
%TD*%
D11*
%TO.C,C8*%
X125730000Y-49297500D03*
X125730000Y-47222500D03*
%TD*%
D10*
%TO.C,C10*%
X109220000Y-53340000D03*
X109220000Y-55415000D03*
%TD*%
D12*
%TO.C,C4*%
X130577500Y-69850000D03*
X128502500Y-69850000D03*
%TD*%
D13*
%TO.C,R5*%
X116840000Y-55610000D03*
X116840000Y-53610000D03*
%TD*%
D10*
%TO.C,C12*%
X113030000Y-53340000D03*
X113030000Y-55415000D03*
%TD*%
D14*
%TO.C,U5*%
X155895000Y-71887500D03*
X156845000Y-71887500D03*
X157795000Y-71887500D03*
X157795000Y-74162500D03*
X156845000Y-74162500D03*
X155895000Y-74162500D03*
%TD*%
D15*
%TO.C,U4*%
X132485000Y-103895000D03*
D16*
X133985000Y-103982500D03*
D15*
X135485000Y-103895000D03*
%TD*%
D10*
%TO.C,C14*%
X128905000Y-104372500D03*
X128905000Y-106447500D03*
%TD*%
D13*
%TO.C,R4*%
X121920000Y-49260000D03*
X121920000Y-47260000D03*
%TD*%
D17*
%TO.C,RN7*%
X92000000Y-112395000D03*
X92000000Y-111125000D03*
X92000000Y-109855000D03*
X92000000Y-108585000D03*
X92000000Y-107315000D03*
X92000000Y-106045000D03*
X92000000Y-104775000D03*
X92000000Y-103505000D03*
X98500000Y-103505000D03*
X98500000Y-104775000D03*
X98500000Y-106045000D03*
X98500000Y-107315000D03*
X98500000Y-108585000D03*
X98500000Y-109855000D03*
X98500000Y-111125000D03*
X98500000Y-112395000D03*
%TD*%
D18*
%TO.C,C16*%
X96117500Y-39370000D03*
X98192500Y-39370000D03*
%TD*%
D11*
%TO.C,C11*%
X113030000Y-49297500D03*
X113030000Y-47222500D03*
%TD*%
D17*
%TO.C,RN3*%
X76760000Y-112395000D03*
X76760000Y-111125000D03*
X76760000Y-109855000D03*
X76760000Y-108585000D03*
X76760000Y-107315000D03*
X76760000Y-106045000D03*
X76760000Y-104775000D03*
X76760000Y-103505000D03*
X83260000Y-103505000D03*
X83260000Y-104775000D03*
X83260000Y-106045000D03*
X83260000Y-107315000D03*
X83260000Y-108585000D03*
X83260000Y-109855000D03*
X83260000Y-111125000D03*
X83260000Y-112395000D03*
%TD*%
D10*
%TO.C,C13*%
X139065000Y-104372500D03*
X139065000Y-106447500D03*
%TD*%
D19*
%TO.C,U10*%
X84767500Y-98795000D03*
X84767500Y-98145000D03*
X84767500Y-97495000D03*
X84767500Y-96845000D03*
X84767500Y-96195000D03*
X84767500Y-95545000D03*
X84767500Y-94895000D03*
X84767500Y-94245000D03*
X90492500Y-94245000D03*
X90492500Y-94895000D03*
X90492500Y-95545000D03*
X90492500Y-96195000D03*
X90492500Y-96845000D03*
X90492500Y-97495000D03*
X90492500Y-98145000D03*
X90492500Y-98795000D03*
%TD*%
D13*
%TO.C,R6*%
X109220000Y-49260000D03*
X109220000Y-47260000D03*
%TD*%
D11*
%TO.C,C15*%
X88265000Y-39137500D03*
X88265000Y-37062500D03*
%TD*%
D10*
%TO.C,C9*%
X125730000Y-53572500D03*
X125730000Y-55647500D03*
%TD*%
D15*
%TO.C,U6*%
X94210000Y-38980000D03*
D20*
X92710000Y-38892500D03*
D15*
X91210000Y-38980000D03*
%TD*%
D21*
%TO.C,R2*%
X152400000Y-77470000D03*
X152400000Y-79470000D03*
%TD*%
D13*
%TO.C,R3*%
X129540000Y-55610000D03*
X129540000Y-53610000D03*
%TD*%
M02*
